ISO-10303-21;
HEADER;
/* Generated by software containing ST-Developer
 * from STEP Tools, Inc. (www.steptools.com) 
 */

FILE_DESCRIPTION(
/* description */ (''),
/* implementation_level */ '2;1');

FILE_NAME(
/* name */ 'BackPlate.step',
/* time_stamp */ '2026-05-10T12:38:51-05:00',
/* author */ (''),
/* organization */ (''),
/* preprocessor_version */ 'ST-DEVELOPER v20.1',
/* originating_system */ 'Autodesk Translation Framework v15.8.0.0',
/* authorisation */ '');

FILE_SCHEMA (('AUTOMOTIVE_DESIGN { 1 0 10303 214 3 1 1 }'));
ENDSEC;

DATA;
#10=MECHANICAL_DESIGN_GEOMETRIC_PRESENTATION_REPRESENTATION('',(#13),#1507);
#11=SHAPE_REPRESENTATION_RELATIONSHIP('SRR','None',#1517,#12);
#12=ADVANCED_BREP_SHAPE_REPRESENTATION('',(#14),#1506);
#13=STYLED_ITEM('',(#1526),#14);
#14=MANIFOLD_SOLID_BREP('Body2',#919);
#15=ELLIPSE('',#986,0.150000853107331,0.15);
#16=ELLIPSE('',#991,0.150000543526429,0.15);
#17=LINE('',#1260,#117);
#18=LINE('',#1263,#118);
#19=LINE('',#1273,#119);
#20=LINE('',#1276,#120);
#21=LINE('',#1281,#121);
#22=LINE('',#1283,#122);
#23=LINE('',#1285,#123);
#24=LINE('',#1286,#124);
#25=LINE('',#1289,#125);
#26=LINE('',#1291,#126);
#27=LINE('',#1292,#127);
#28=LINE('',#1295,#128);
#29=LINE('',#1297,#129);
#30=LINE('',#1298,#130);
#31=LINE('',#1300,#131);
#32=LINE('',#1301,#132);
#33=LINE('',#1310,#133);
#34=LINE('',#1313,#134);
#35=LINE('',#1323,#135);
#36=LINE('',#1326,#136);
#37=LINE('',#1331,#137);
#38=LINE('',#1333,#138);
#39=LINE('',#1335,#139);
#40=LINE('',#1336,#140);
#41=LINE('',#1339,#141);
#42=LINE('',#1341,#142);
#43=LINE('',#1342,#143);
#44=LINE('',#1345,#144);
#45=LINE('',#1347,#145);
#46=LINE('',#1348,#146);
#47=LINE('',#1350,#147);
#48=LINE('',#1351,#148);
#49=LINE('',#1355,#149);
#50=LINE('',#1357,#150);
#51=LINE('',#1359,#151);
#52=LINE('',#1360,#152);
#53=LINE('',#1363,#153);
#54=LINE('',#1365,#154);
#55=LINE('',#1366,#155);
#56=LINE('',#1369,#156);
#57=LINE('',#1371,#157);
#58=LINE('',#1372,#158);
#59=LINE('',#1374,#159);
#60=LINE('',#1375,#160);
#61=LINE('',#1381,#161);
#62=LINE('',#1383,#162);
#63=LINE('',#1385,#163);
#64=LINE('',#1386,#164);
#65=LINE('',#1389,#165);
#66=LINE('',#1391,#166);
#67=LINE('',#1392,#167);
#68=LINE('',#1395,#168);
#69=LINE('',#1397,#169);
#70=LINE('',#1398,#170);
#71=LINE('',#1400,#171);
#72=LINE('',#1401,#172);
#73=LINE('',#1405,#173);
#74=LINE('',#1407,#174);
#75=LINE('',#1409,#175);
#76=LINE('',#1410,#176);
#77=LINE('',#1413,#177);
#78=LINE('',#1415,#178);
#79=LINE('',#1416,#179);
#80=LINE('',#1419,#180);
#81=LINE('',#1421,#181);
#82=LINE('',#1422,#182);
#83=LINE('',#1424,#183);
#84=LINE('',#1425,#184);
#85=LINE('',#1433,#185);
#86=LINE('',#1436,#186);
#87=LINE('',#1439,#187);
#88=LINE('',#1441,#188);
#89=LINE('',#1443,#189);
#90=LINE('',#1444,#190);
#91=LINE('',#1450,#191);
#92=LINE('',#1455,#192);
#93=LINE('',#1458,#193);
#94=LINE('',#1459,#194);
#95=LINE('',#1461,#195);
#96=LINE('',#1463,#196);
#97=LINE('',#1464,#197);
#98=LINE('',#1467,#198);
#99=LINE('',#1469,#199);
#100=LINE('',#1471,#200);
#101=LINE('',#1473,#201);
#102=LINE('',#1474,#202);
#103=LINE('',#1477,#203);
#104=LINE('',#1479,#204);
#105=LINE('',#1480,#205);
#106=LINE('',#1483,#206);
#107=LINE('',#1484,#207);
#108=LINE('',#1487,#208);
#109=LINE('',#1488,#209);
#110=LINE('',#1490,#210);
#111=LINE('',#1492,#211);
#112=LINE('',#1493,#212);
#113=LINE('',#1495,#213);
#114=LINE('',#1499,#214);
#115=LINE('',#1500,#215);
#116=LINE('',#1502,#216);
#117=VECTOR('',#1017,0.06);
#118=VECTOR('',#1020,0.023);
#119=VECTOR('',#1033,0.06);
#120=VECTOR('',#1036,0.023);
#121=VECTOR('',#1041,0.393700787401575);
#122=VECTOR('',#1042,0.393700787401575);
#123=VECTOR('',#1043,0.393700787401575);
#124=VECTOR('',#1044,0.393700787401575);
#125=VECTOR('',#1047,0.393700787401575);
#126=VECTOR('',#1048,0.393700787401575);
#127=VECTOR('',#1049,0.393700787401575);
#128=VECTOR('',#1052,0.393700787401575);
#129=VECTOR('',#1053,0.393700787401575);
#130=VECTOR('',#1054,0.393700787401575);
#131=VECTOR('',#1057,0.393700787401575);
#132=VECTOR('',#1058,0.393700787401575);
#133=VECTOR('',#1069,0.06);
#134=VECTOR('',#1072,0.023);
#135=VECTOR('',#1085,0.06);
#136=VECTOR('',#1088,0.023);
#137=VECTOR('',#1093,0.393700787401575);
#138=VECTOR('',#1094,0.393700787401575);
#139=VECTOR('',#1095,0.393700787401575);
#140=VECTOR('',#1096,0.393700787401575);
#141=VECTOR('',#1099,0.393700787401575);
#142=VECTOR('',#1100,0.393700787401575);
#143=VECTOR('',#1101,0.393700787401575);
#144=VECTOR('',#1104,0.393700787401575);
#145=VECTOR('',#1105,0.393700787401575);
#146=VECTOR('',#1106,0.393700787401575);
#147=VECTOR('',#1109,0.393700787401575);
#148=VECTOR('',#1110,0.393700787401575);
#149=VECTOR('',#1113,0.393700787401575);
#150=VECTOR('',#1114,0.393700787401575);
#151=VECTOR('',#1115,0.393700787401575);
#152=VECTOR('',#1116,0.393700787401575);
#153=VECTOR('',#1119,0.393700787401575);
#154=VECTOR('',#1120,0.393700787401575);
#155=VECTOR('',#1121,0.393700787401575);
#156=VECTOR('',#1124,0.393700787401575);
#157=VECTOR('',#1125,0.393700787401575);
#158=VECTOR('',#1126,0.393700787401575);
#159=VECTOR('',#1129,0.393700787401575);
#160=VECTOR('',#1130,0.393700787401575);
#161=VECTOR('',#1137,0.393700787401575);
#162=VECTOR('',#1138,0.393700787401575);
#163=VECTOR('',#1139,0.393700787401575);
#164=VECTOR('',#1140,0.393700787401575);
#165=VECTOR('',#1143,0.393700787401575);
#166=VECTOR('',#1144,0.393700787401575);
#167=VECTOR('',#1145,0.393700787401575);
#168=VECTOR('',#1148,0.393700787401575);
#169=VECTOR('',#1149,0.393700787401575);
#170=VECTOR('',#1150,0.393700787401575);
#171=VECTOR('',#1153,0.393700787401575);
#172=VECTOR('',#1154,0.393700787401575);
#173=VECTOR('',#1157,0.393700787401575);
#174=VECTOR('',#1158,0.393700787401575);
#175=VECTOR('',#1159,0.393700787401575);
#176=VECTOR('',#1160,0.393700787401575);
#177=VECTOR('',#1163,0.393700787401575);
#178=VECTOR('',#1164,0.393700787401575);
#179=VECTOR('',#1165,0.393700787401575);
#180=VECTOR('',#1168,0.393700787401575);
#181=VECTOR('',#1169,0.393700787401575);
#182=VECTOR('',#1170,0.393700787401575);
#183=VECTOR('',#1173,0.393700787401575);
#184=VECTOR('',#1174,0.393700787401575);
#185=VECTOR('',#1183,0.393700787401575);
#186=VECTOR('',#1186,0.393700787401575);
#187=VECTOR('',#1189,0.393700787401575);
#188=VECTOR('',#1190,0.393700787401575);
#189=VECTOR('',#1191,0.393700787401575);
#190=VECTOR('',#1192,0.393700787401575);
#191=VECTOR('',#1197,0.393700787401575);
#192=VECTOR('',#1202,0.393700787401575);
#193=VECTOR('',#1205,0.393700787401575);
#194=VECTOR('',#1206,0.393700787401575);
#195=VECTOR('',#1207,0.393700787401575);
#196=VECTOR('',#1208,0.393700787401575);
#197=VECTOR('',#1209,0.393700787401575);
#198=VECTOR('',#1212,0.393700787401575);
#199=VECTOR('',#1213,0.393700787401575);
#200=VECTOR('',#1214,0.393700787401575);
#201=VECTOR('',#1215,0.393700787401575);
#202=VECTOR('',#1216,0.393700787401575);
#203=VECTOR('',#1219,0.393700787401575);
#204=VECTOR('',#1220,0.393700787401575);
#205=VECTOR('',#1221,0.393700787401575);
#206=VECTOR('',#1224,0.393700787401575);
#207=VECTOR('',#1225,0.393700787401575);
#208=VECTOR('',#1228,0.393700787401575);
#209=VECTOR('',#1229,0.393700787401575);
#210=VECTOR('',#1232,0.393700787401575);
#211=VECTOR('',#1235,0.393700787401575);
#212=VECTOR('',#1236,0.393700787401575);
#213=VECTOR('',#1239,0.393700787401575);
#214=VECTOR('',#1244,0.393700787401575);
#215=VECTOR('',#1245,0.393700787401575);
#216=VECTOR('',#1248,0.393700787401575);
#217=CYLINDRICAL_SURFACE('',#936,0.06);
#218=CYLINDRICAL_SURFACE('',#938,0.023235);
#219=CYLINDRICAL_SURFACE('',#943,0.06);
#220=CYLINDRICAL_SURFACE('',#945,0.023235);
#221=CYLINDRICAL_SURFACE('',#954,0.06);
#222=CYLINDRICAL_SURFACE('',#956,0.023235);
#223=CYLINDRICAL_SURFACE('',#961,0.06);
#224=CYLINDRICAL_SURFACE('',#963,0.023235);
#225=CYLINDRICAL_SURFACE('',#985,0.15);
#226=CYLINDRICAL_SURFACE('',#989,0.15);
#227=FACE_BOUND('',#297,.T.);
#228=FACE_BOUND('',#301,.T.);
#229=FACE_BOUND('',#309,.T.);
#230=FACE_BOUND('',#313,.T.);
#231=FACE_BOUND('',#325,.T.);
#232=FACE_BOUND('',#336,.T.);
#233=FACE_BOUND('',#340,.T.);
#234=FACE_BOUND('',#341,.T.);
#235=FACE_BOUND('',#342,.T.);
#236=FACE_BOUND('',#346,.T.);
#237=FACE_BOUND('',#347,.T.);
#238=FACE_BOUND('',#348,.T.);
#239=FACE_BOUND('',#352,.T.);
#240=FACE_BOUND('',#353,.T.);
#241=FACE_BOUND('',#361,.T.);
#242=FACE_BOUND('',#362,.T.);
#243=FACE_BOUND('',#363,.T.);
#244=FACE_BOUND('',#364,.T.);
#245=FACE_OUTER_BOUND('',#296,.T.);
#246=FACE_OUTER_BOUND('',#298,.T.);
#247=FACE_OUTER_BOUND('',#299,.T.);
#248=FACE_OUTER_BOUND('',#300,.T.);
#249=FACE_OUTER_BOUND('',#302,.T.);
#250=FACE_OUTER_BOUND('',#303,.T.);
#251=FACE_OUTER_BOUND('',#304,.T.);
#252=FACE_OUTER_BOUND('',#305,.T.);
#253=FACE_OUTER_BOUND('',#306,.T.);
#254=FACE_OUTER_BOUND('',#307,.T.);
#255=FACE_OUTER_BOUND('',#308,.T.);
#256=FACE_OUTER_BOUND('',#310,.T.);
#257=FACE_OUTER_BOUND('',#311,.T.);
#258=FACE_OUTER_BOUND('',#312,.T.);
#259=FACE_OUTER_BOUND('',#314,.T.);
#260=FACE_OUTER_BOUND('',#315,.T.);
#261=FACE_OUTER_BOUND('',#316,.T.);
#262=FACE_OUTER_BOUND('',#317,.T.);
#263=FACE_OUTER_BOUND('',#318,.T.);
#264=FACE_OUTER_BOUND('',#319,.T.);
#265=FACE_OUTER_BOUND('',#320,.T.);
#266=FACE_OUTER_BOUND('',#321,.T.);
#267=FACE_OUTER_BOUND('',#322,.T.);
#268=FACE_OUTER_BOUND('',#323,.T.);
#269=FACE_OUTER_BOUND('',#324,.T.);
#270=FACE_OUTER_BOUND('',#326,.T.);
#271=FACE_OUTER_BOUND('',#327,.T.);
#272=FACE_OUTER_BOUND('',#328,.T.);
#273=FACE_OUTER_BOUND('',#329,.T.);
#274=FACE_OUTER_BOUND('',#330,.T.);
#275=FACE_OUTER_BOUND('',#331,.T.);
#276=FACE_OUTER_BOUND('',#332,.T.);
#277=FACE_OUTER_BOUND('',#333,.T.);
#278=FACE_OUTER_BOUND('',#334,.T.);
#279=FACE_OUTER_BOUND('',#335,.T.);
#280=FACE_OUTER_BOUND('',#337,.T.);
#281=FACE_OUTER_BOUND('',#338,.T.);
#282=FACE_OUTER_BOUND('',#339,.T.);
#283=FACE_OUTER_BOUND('',#343,.T.);
#284=FACE_OUTER_BOUND('',#344,.T.);
#285=FACE_OUTER_BOUND('',#345,.T.);
#286=FACE_OUTER_BOUND('',#349,.T.);
#287=FACE_OUTER_BOUND('',#350,.T.);
#288=FACE_OUTER_BOUND('',#351,.T.);
#289=FACE_OUTER_BOUND('',#354,.T.);
#290=FACE_OUTER_BOUND('',#355,.T.);
#291=FACE_OUTER_BOUND('',#356,.T.);
#292=FACE_OUTER_BOUND('',#357,.T.);
#293=FACE_OUTER_BOUND('',#358,.T.);
#294=FACE_OUTER_BOUND('',#359,.T.);
#295=FACE_OUTER_BOUND('',#360,.T.);
#296=EDGE_LOOP('',(#585));
#297=EDGE_LOOP('',(#586));
#298=EDGE_LOOP('',(#587,#588,#589,#590));
#299=EDGE_LOOP('',(#591,#592,#593,#594));
#300=EDGE_LOOP('',(#595));
#301=EDGE_LOOP('',(#596));
#302=EDGE_LOOP('',(#597,#598,#599,#600));
#303=EDGE_LOOP('',(#601,#602,#603,#604));
#304=EDGE_LOOP('',(#605,#606,#607,#608));
#305=EDGE_LOOP('',(#609,#610,#611,#612));
#306=EDGE_LOOP('',(#613,#614,#615,#616));
#307=EDGE_LOOP('',(#617,#618,#619,#620));
#308=EDGE_LOOP('',(#621));
#309=EDGE_LOOP('',(#622));
#310=EDGE_LOOP('',(#623,#624,#625,#626));
#311=EDGE_LOOP('',(#627,#628,#629,#630));
#312=EDGE_LOOP('',(#631));
#313=EDGE_LOOP('',(#632));
#314=EDGE_LOOP('',(#633,#634,#635,#636));
#315=EDGE_LOOP('',(#637,#638,#639,#640));
#316=EDGE_LOOP('',(#641,#642,#643,#644));
#317=EDGE_LOOP('',(#645,#646,#647,#648));
#318=EDGE_LOOP('',(#649,#650,#651,#652));
#319=EDGE_LOOP('',(#653,#654,#655,#656));
#320=EDGE_LOOP('',(#657,#658,#659,#660));
#321=EDGE_LOOP('',(#661,#662,#663,#664));
#322=EDGE_LOOP('',(#665,#666,#667,#668));
#323=EDGE_LOOP('',(#669,#670,#671,#672));
#324=EDGE_LOOP('',(#673,#674,#675,#676));
#325=EDGE_LOOP('',(#677,#678,#679,#680));
#326=EDGE_LOOP('',(#681,#682,#683,#684));
#327=EDGE_LOOP('',(#685,#686,#687,#688));
#328=EDGE_LOOP('',(#689,#690,#691,#692));
#329=EDGE_LOOP('',(#693,#694,#695,#696));
#330=EDGE_LOOP('',(#697,#698,#699,#700));
#331=EDGE_LOOP('',(#701,#702,#703,#704));
#332=EDGE_LOOP('',(#705,#706,#707,#708));
#333=EDGE_LOOP('',(#709,#710,#711,#712));
#334=EDGE_LOOP('',(#713,#714,#715,#716));
#335=EDGE_LOOP('',(#717,#718,#719,#720));
#336=EDGE_LOOP('',(#721,#722,#723,#724));
#337=EDGE_LOOP('',(#725,#726,#727,#728));
#338=EDGE_LOOP('',(#729,#730,#731,#732));
#339=EDGE_LOOP('',(#733,#734,#735,#736,#737));
#340=EDGE_LOOP('',(#738));
#341=EDGE_LOOP('',(#739));
#342=EDGE_LOOP('',(#740,#741,#742,#743));
#343=EDGE_LOOP('',(#744,#745,#746,#747,#748));
#344=EDGE_LOOP('',(#749,#750,#751,#752,#753,#754,#755,#756));
#345=EDGE_LOOP('',(#757,#758,#759,#760,#761,#762,#763));
#346=EDGE_LOOP('',(#764));
#347=EDGE_LOOP('',(#765));
#348=EDGE_LOOP('',(#766,#767,#768,#769));
#349=EDGE_LOOP('',(#770,#771,#772,#773,#774));
#350=EDGE_LOOP('',(#775,#776,#777,#778));
#351=EDGE_LOOP('',(#779,#780,#781,#782));
#352=EDGE_LOOP('',(#783));
#353=EDGE_LOOP('',(#784));
#354=EDGE_LOOP('',(#785,#786,#787));
#355=EDGE_LOOP('',(#788,#789,#790,#791,#792,#793,#794));
#356=EDGE_LOOP('',(#795,#796,#797,#798));
#357=EDGE_LOOP('',(#799,#800,#801,#802));
#358=EDGE_LOOP('',(#803,#804,#805,#806));
#359=EDGE_LOOP('',(#807,#808,#809,#810,#811,#812));
#360=EDGE_LOOP('',(#813,#814,#815,#816));
#361=EDGE_LOOP('',(#817));
#362=EDGE_LOOP('',(#818));
#363=EDGE_LOOP('',(#819,#820,#821,#822));
#364=EDGE_LOOP('',(#823,#824,#825,#826));
#365=CIRCLE('',#934,0.06);
#366=CIRCLE('',#935,0.023235);
#367=CIRCLE('',#937,0.06);
#368=CIRCLE('',#939,0.023235);
#369=CIRCLE('',#941,0.06);
#370=CIRCLE('',#942,0.023235);
#371=CIRCLE('',#944,0.06);
#372=CIRCLE('',#946,0.023235);
#373=CIRCLE('',#952,0.06);
#374=CIRCLE('',#953,0.023235);
#375=CIRCLE('',#955,0.06);
#376=CIRCLE('',#957,0.023235);
#377=CIRCLE('',#959,0.06);
#378=CIRCLE('',#960,0.023235);
#379=CIRCLE('',#962,0.06);
#380=CIRCLE('',#964,0.023235);
#381=CIRCLE('',#987,0.15);
#382=CIRCLE('',#990,0.15);
#383=CIRCLE('',#992,0.15);
#384=VERTEX_POINT('',#1253);
#385=VERTEX_POINT('',#1255);
#386=VERTEX_POINT('',#1258);
#387=VERTEX_POINT('',#1262);
#388=VERTEX_POINT('',#1266);
#389=VERTEX_POINT('',#1268);
#390=VERTEX_POINT('',#1271);
#391=VERTEX_POINT('',#1275);
#392=VERTEX_POINT('',#1279);
#393=VERTEX_POINT('',#1280);
#394=VERTEX_POINT('',#1282);
#395=VERTEX_POINT('',#1284);
#396=VERTEX_POINT('',#1288);
#397=VERTEX_POINT('',#1290);
#398=VERTEX_POINT('',#1294);
#399=VERTEX_POINT('',#1296);
#400=VERTEX_POINT('',#1303);
#401=VERTEX_POINT('',#1305);
#402=VERTEX_POINT('',#1308);
#403=VERTEX_POINT('',#1312);
#404=VERTEX_POINT('',#1316);
#405=VERTEX_POINT('',#1318);
#406=VERTEX_POINT('',#1321);
#407=VERTEX_POINT('',#1325);
#408=VERTEX_POINT('',#1329);
#409=VERTEX_POINT('',#1330);
#410=VERTEX_POINT('',#1332);
#411=VERTEX_POINT('',#1334);
#412=VERTEX_POINT('',#1338);
#413=VERTEX_POINT('',#1340);
#414=VERTEX_POINT('',#1344);
#415=VERTEX_POINT('',#1346);
#416=VERTEX_POINT('',#1353);
#417=VERTEX_POINT('',#1354);
#418=VERTEX_POINT('',#1356);
#419=VERTEX_POINT('',#1358);
#420=VERTEX_POINT('',#1362);
#421=VERTEX_POINT('',#1364);
#422=VERTEX_POINT('',#1368);
#423=VERTEX_POINT('',#1370);
#424=VERTEX_POINT('',#1379);
#425=VERTEX_POINT('',#1380);
#426=VERTEX_POINT('',#1382);
#427=VERTEX_POINT('',#1384);
#428=VERTEX_POINT('',#1388);
#429=VERTEX_POINT('',#1390);
#430=VERTEX_POINT('',#1394);
#431=VERTEX_POINT('',#1396);
#432=VERTEX_POINT('',#1403);
#433=VERTEX_POINT('',#1404);
#434=VERTEX_POINT('',#1406);
#435=VERTEX_POINT('',#1408);
#436=VERTEX_POINT('',#1412);
#437=VERTEX_POINT('',#1414);
#438=VERTEX_POINT('',#1418);
#439=VERTEX_POINT('',#1420);
#440=VERTEX_POINT('',#1429);
#441=VERTEX_POINT('',#1430);
#442=VERTEX_POINT('',#1432);
#443=VERTEX_POINT('',#1434);
#444=VERTEX_POINT('',#1438);
#445=VERTEX_POINT('',#1440);
#446=VERTEX_POINT('',#1442);
#447=VERTEX_POINT('',#1446);
#448=VERTEX_POINT('',#1447);
#449=VERTEX_POINT('',#1449);
#450=VERTEX_POINT('',#1451);
#451=VERTEX_POINT('',#1453);
#452=VERTEX_POINT('',#1457);
#453=VERTEX_POINT('',#1460);
#454=VERTEX_POINT('',#1462);
#455=VERTEX_POINT('',#1466);
#456=VERTEX_POINT('',#1468);
#457=VERTEX_POINT('',#1470);
#458=VERTEX_POINT('',#1472);
#459=VERTEX_POINT('',#1476);
#460=VERTEX_POINT('',#1478);
#461=VERTEX_POINT('',#1482);
#462=VERTEX_POINT('',#1486);
#463=VERTEX_POINT('',#1498);
#464=EDGE_CURVE('',#384,#384,#365,.T.);
#465=EDGE_CURVE('',#385,#385,#366,.F.);
#466=EDGE_CURVE('',#386,#386,#367,.T.);
#467=EDGE_CURVE('',#386,#384,#17,.T.);
#468=EDGE_CURVE('',#385,#387,#18,.T.);
#469=EDGE_CURVE('',#387,#387,#368,.F.);
#470=EDGE_CURVE('',#388,#388,#369,.T.);
#471=EDGE_CURVE('',#389,#389,#370,.F.);
#472=EDGE_CURVE('',#390,#390,#371,.T.);
#473=EDGE_CURVE('',#390,#388,#19,.T.);
#474=EDGE_CURVE('',#389,#391,#20,.T.);
#475=EDGE_CURVE('',#391,#391,#372,.F.);
#476=EDGE_CURVE('',#392,#393,#21,.T.);
#477=EDGE_CURVE('',#394,#392,#22,.T.);
#478=EDGE_CURVE('',#395,#394,#23,.T.);
#479=EDGE_CURVE('',#395,#393,#24,.T.);
#480=EDGE_CURVE('',#393,#396,#25,.T.);
#481=EDGE_CURVE('',#397,#395,#26,.T.);
#482=EDGE_CURVE('',#397,#396,#27,.T.);
#483=EDGE_CURVE('',#396,#398,#28,.T.);
#484=EDGE_CURVE('',#399,#397,#29,.T.);
#485=EDGE_CURVE('',#399,#398,#30,.T.);
#486=EDGE_CURVE('',#398,#392,#31,.T.);
#487=EDGE_CURVE('',#394,#399,#32,.T.);
#488=EDGE_CURVE('',#400,#400,#373,.T.);
#489=EDGE_CURVE('',#401,#401,#374,.F.);
#490=EDGE_CURVE('',#402,#402,#375,.T.);
#491=EDGE_CURVE('',#402,#400,#33,.T.);
#492=EDGE_CURVE('',#401,#403,#34,.T.);
#493=EDGE_CURVE('',#403,#403,#376,.F.);
#494=EDGE_CURVE('',#404,#404,#377,.T.);
#495=EDGE_CURVE('',#405,#405,#378,.F.);
#496=EDGE_CURVE('',#406,#406,#379,.T.);
#497=EDGE_CURVE('',#406,#404,#35,.T.);
#498=EDGE_CURVE('',#405,#407,#36,.T.);
#499=EDGE_CURVE('',#407,#407,#380,.F.);
#500=EDGE_CURVE('',#408,#409,#37,.T.);
#501=EDGE_CURVE('',#410,#408,#38,.T.);
#502=EDGE_CURVE('',#411,#410,#39,.T.);
#503=EDGE_CURVE('',#411,#409,#40,.T.);
#504=EDGE_CURVE('',#412,#408,#41,.T.);
#505=EDGE_CURVE('',#413,#412,#42,.T.);
#506=EDGE_CURVE('',#410,#413,#43,.T.);
#507=EDGE_CURVE('',#409,#414,#44,.T.);
#508=EDGE_CURVE('',#415,#411,#45,.T.);
#509=EDGE_CURVE('',#415,#414,#46,.T.);
#510=EDGE_CURVE('',#414,#412,#47,.T.);
#511=EDGE_CURVE('',#413,#415,#48,.T.);
#512=EDGE_CURVE('',#416,#417,#49,.T.);
#513=EDGE_CURVE('',#416,#418,#50,.T.);
#514=EDGE_CURVE('',#419,#418,#51,.T.);
#515=EDGE_CURVE('',#417,#419,#52,.T.);
#516=EDGE_CURVE('',#417,#420,#53,.T.);
#517=EDGE_CURVE('',#421,#419,#54,.T.);
#518=EDGE_CURVE('',#420,#421,#55,.T.);
#519=EDGE_CURVE('',#420,#422,#56,.T.);
#520=EDGE_CURVE('',#423,#421,#57,.T.);
#521=EDGE_CURVE('',#422,#423,#58,.T.);
#522=EDGE_CURVE('',#422,#416,#59,.T.);
#523=EDGE_CURVE('',#418,#423,#60,.T.);
#524=EDGE_CURVE('',#424,#425,#61,.T.);
#525=EDGE_CURVE('',#426,#424,#62,.T.);
#526=EDGE_CURVE('',#427,#426,#63,.T.);
#527=EDGE_CURVE('',#427,#425,#64,.T.);
#528=EDGE_CURVE('',#428,#424,#65,.T.);
#529=EDGE_CURVE('',#429,#428,#66,.T.);
#530=EDGE_CURVE('',#426,#429,#67,.T.);
#531=EDGE_CURVE('',#425,#430,#68,.T.);
#532=EDGE_CURVE('',#431,#427,#69,.T.);
#533=EDGE_CURVE('',#431,#430,#70,.T.);
#534=EDGE_CURVE('',#430,#428,#71,.T.);
#535=EDGE_CURVE('',#429,#431,#72,.T.);
#536=EDGE_CURVE('',#432,#433,#73,.T.);
#537=EDGE_CURVE('',#432,#434,#74,.T.);
#538=EDGE_CURVE('',#435,#434,#75,.T.);
#539=EDGE_CURVE('',#433,#435,#76,.T.);
#540=EDGE_CURVE('',#433,#436,#77,.T.);
#541=EDGE_CURVE('',#437,#435,#78,.T.);
#542=EDGE_CURVE('',#436,#437,#79,.T.);
#543=EDGE_CURVE('',#436,#438,#80,.T.);
#544=EDGE_CURVE('',#439,#437,#81,.T.);
#545=EDGE_CURVE('',#438,#439,#82,.T.);
#546=EDGE_CURVE('',#438,#432,#83,.T.);
#547=EDGE_CURVE('',#434,#439,#84,.T.);
#548=EDGE_CURVE('',#440,#441,#15,.F.);
#549=EDGE_CURVE('',#440,#442,#85,.T.);
#550=EDGE_CURVE('',#442,#443,#381,.T.);
#551=EDGE_CURVE('',#443,#441,#86,.T.);
#552=EDGE_CURVE('',#443,#444,#87,.T.);
#553=EDGE_CURVE('',#444,#445,#88,.T.);
#554=EDGE_CURVE('',#446,#445,#89,.T.);
#555=EDGE_CURVE('',#441,#446,#90,.T.);
#556=EDGE_CURVE('',#447,#448,#382,.T.);
#557=EDGE_CURVE('',#448,#449,#91,.T.);
#558=EDGE_CURVE('',#449,#450,#16,.T.);
#559=EDGE_CURVE('',#450,#451,#383,.T.);
#560=EDGE_CURVE('',#451,#447,#92,.T.);
#561=EDGE_CURVE('',#452,#447,#93,.T.);
#562=EDGE_CURVE('',#444,#452,#94,.T.);
#563=EDGE_CURVE('',#453,#442,#95,.T.);
#564=EDGE_CURVE('',#453,#454,#96,.T.);
#565=EDGE_CURVE('',#454,#448,#97,.T.);
#566=EDGE_CURVE('',#455,#451,#98,.T.);
#567=EDGE_CURVE('',#456,#455,#99,.T.);
#568=EDGE_CURVE('',#456,#457,#100,.T.);
#569=EDGE_CURVE('',#457,#458,#101,.T.);
#570=EDGE_CURVE('',#458,#452,#102,.T.);
#571=EDGE_CURVE('',#459,#450,#103,.T.);
#572=EDGE_CURVE('',#459,#460,#104,.T.);
#573=EDGE_CURVE('',#455,#460,#105,.T.);
#574=EDGE_CURVE('',#460,#461,#106,.T.);
#575=EDGE_CURVE('',#456,#461,#107,.T.);
#576=EDGE_CURVE('',#462,#449,#108,.T.);
#577=EDGE_CURVE('',#454,#462,#109,.T.);
#578=EDGE_CURVE('',#461,#459,#110,.T.);
#579=EDGE_CURVE('',#440,#459,#111,.T.);
#580=EDGE_CURVE('',#446,#457,#112,.T.);
#581=EDGE_CURVE('',#445,#458,#113,.T.);
#582=EDGE_CURVE('',#463,#453,#114,.T.);
#583=EDGE_CURVE('',#463,#462,#115,.T.);
#584=EDGE_CURVE('',#463,#440,#116,.T.);
#585=ORIENTED_EDGE('',*,*,#464,.F.);
#586=ORIENTED_EDGE('',*,*,#465,.T.);
#587=ORIENTED_EDGE('',*,*,#466,.F.);
#588=ORIENTED_EDGE('',*,*,#467,.T.);
#589=ORIENTED_EDGE('',*,*,#464,.T.);
#590=ORIENTED_EDGE('',*,*,#467,.F.);
#591=ORIENTED_EDGE('',*,*,#465,.F.);
#592=ORIENTED_EDGE('',*,*,#468,.T.);
#593=ORIENTED_EDGE('',*,*,#469,.F.);
#594=ORIENTED_EDGE('',*,*,#468,.F.);
#595=ORIENTED_EDGE('',*,*,#470,.F.);
#596=ORIENTED_EDGE('',*,*,#471,.T.);
#597=ORIENTED_EDGE('',*,*,#472,.F.);
#598=ORIENTED_EDGE('',*,*,#473,.T.);
#599=ORIENTED_EDGE('',*,*,#470,.T.);
#600=ORIENTED_EDGE('',*,*,#473,.F.);
#601=ORIENTED_EDGE('',*,*,#471,.F.);
#602=ORIENTED_EDGE('',*,*,#474,.T.);
#603=ORIENTED_EDGE('',*,*,#475,.F.);
#604=ORIENTED_EDGE('',*,*,#474,.F.);
#605=ORIENTED_EDGE('',*,*,#476,.F.);
#606=ORIENTED_EDGE('',*,*,#477,.F.);
#607=ORIENTED_EDGE('',*,*,#478,.F.);
#608=ORIENTED_EDGE('',*,*,#479,.T.);
#609=ORIENTED_EDGE('',*,*,#480,.F.);
#610=ORIENTED_EDGE('',*,*,#479,.F.);
#611=ORIENTED_EDGE('',*,*,#481,.F.);
#612=ORIENTED_EDGE('',*,*,#482,.T.);
#613=ORIENTED_EDGE('',*,*,#483,.F.);
#614=ORIENTED_EDGE('',*,*,#482,.F.);
#615=ORIENTED_EDGE('',*,*,#484,.F.);
#616=ORIENTED_EDGE('',*,*,#485,.T.);
#617=ORIENTED_EDGE('',*,*,#486,.F.);
#618=ORIENTED_EDGE('',*,*,#485,.F.);
#619=ORIENTED_EDGE('',*,*,#487,.F.);
#620=ORIENTED_EDGE('',*,*,#477,.T.);
#621=ORIENTED_EDGE('',*,*,#488,.F.);
#622=ORIENTED_EDGE('',*,*,#489,.T.);
#623=ORIENTED_EDGE('',*,*,#490,.F.);
#624=ORIENTED_EDGE('',*,*,#491,.T.);
#625=ORIENTED_EDGE('',*,*,#488,.T.);
#626=ORIENTED_EDGE('',*,*,#491,.F.);
#627=ORIENTED_EDGE('',*,*,#489,.F.);
#628=ORIENTED_EDGE('',*,*,#492,.T.);
#629=ORIENTED_EDGE('',*,*,#493,.F.);
#630=ORIENTED_EDGE('',*,*,#492,.F.);
#631=ORIENTED_EDGE('',*,*,#494,.F.);
#632=ORIENTED_EDGE('',*,*,#495,.T.);
#633=ORIENTED_EDGE('',*,*,#496,.F.);
#634=ORIENTED_EDGE('',*,*,#497,.T.);
#635=ORIENTED_EDGE('',*,*,#494,.T.);
#636=ORIENTED_EDGE('',*,*,#497,.F.);
#637=ORIENTED_EDGE('',*,*,#495,.F.);
#638=ORIENTED_EDGE('',*,*,#498,.T.);
#639=ORIENTED_EDGE('',*,*,#499,.F.);
#640=ORIENTED_EDGE('',*,*,#498,.F.);
#641=ORIENTED_EDGE('',*,*,#500,.F.);
#642=ORIENTED_EDGE('',*,*,#501,.F.);
#643=ORIENTED_EDGE('',*,*,#502,.F.);
#644=ORIENTED_EDGE('',*,*,#503,.T.);
#645=ORIENTED_EDGE('',*,*,#504,.F.);
#646=ORIENTED_EDGE('',*,*,#505,.F.);
#647=ORIENTED_EDGE('',*,*,#506,.F.);
#648=ORIENTED_EDGE('',*,*,#501,.T.);
#649=ORIENTED_EDGE('',*,*,#507,.F.);
#650=ORIENTED_EDGE('',*,*,#503,.F.);
#651=ORIENTED_EDGE('',*,*,#508,.F.);
#652=ORIENTED_EDGE('',*,*,#509,.T.);
#653=ORIENTED_EDGE('',*,*,#510,.F.);
#654=ORIENTED_EDGE('',*,*,#509,.F.);
#655=ORIENTED_EDGE('',*,*,#511,.F.);
#656=ORIENTED_EDGE('',*,*,#505,.T.);
#657=ORIENTED_EDGE('',*,*,#512,.F.);
#658=ORIENTED_EDGE('',*,*,#513,.T.);
#659=ORIENTED_EDGE('',*,*,#514,.F.);
#660=ORIENTED_EDGE('',*,*,#515,.F.);
#661=ORIENTED_EDGE('',*,*,#516,.F.);
#662=ORIENTED_EDGE('',*,*,#515,.T.);
#663=ORIENTED_EDGE('',*,*,#517,.F.);
#664=ORIENTED_EDGE('',*,*,#518,.F.);
#665=ORIENTED_EDGE('',*,*,#519,.F.);
#666=ORIENTED_EDGE('',*,*,#518,.T.);
#667=ORIENTED_EDGE('',*,*,#520,.F.);
#668=ORIENTED_EDGE('',*,*,#521,.F.);
#669=ORIENTED_EDGE('',*,*,#522,.F.);
#670=ORIENTED_EDGE('',*,*,#521,.T.);
#671=ORIENTED_EDGE('',*,*,#523,.F.);
#672=ORIENTED_EDGE('',*,*,#513,.F.);
#673=ORIENTED_EDGE('',*,*,#523,.T.);
#674=ORIENTED_EDGE('',*,*,#520,.T.);
#675=ORIENTED_EDGE('',*,*,#517,.T.);
#676=ORIENTED_EDGE('',*,*,#514,.T.);
#677=ORIENTED_EDGE('',*,*,#511,.T.);
#678=ORIENTED_EDGE('',*,*,#508,.T.);
#679=ORIENTED_EDGE('',*,*,#502,.T.);
#680=ORIENTED_EDGE('',*,*,#506,.T.);
#681=ORIENTED_EDGE('',*,*,#522,.T.);
#682=ORIENTED_EDGE('',*,*,#512,.T.);
#683=ORIENTED_EDGE('',*,*,#516,.T.);
#684=ORIENTED_EDGE('',*,*,#519,.T.);
#685=ORIENTED_EDGE('',*,*,#524,.F.);
#686=ORIENTED_EDGE('',*,*,#525,.F.);
#687=ORIENTED_EDGE('',*,*,#526,.F.);
#688=ORIENTED_EDGE('',*,*,#527,.T.);
#689=ORIENTED_EDGE('',*,*,#528,.F.);
#690=ORIENTED_EDGE('',*,*,#529,.F.);
#691=ORIENTED_EDGE('',*,*,#530,.F.);
#692=ORIENTED_EDGE('',*,*,#525,.T.);
#693=ORIENTED_EDGE('',*,*,#531,.F.);
#694=ORIENTED_EDGE('',*,*,#527,.F.);
#695=ORIENTED_EDGE('',*,*,#532,.F.);
#696=ORIENTED_EDGE('',*,*,#533,.T.);
#697=ORIENTED_EDGE('',*,*,#534,.F.);
#698=ORIENTED_EDGE('',*,*,#533,.F.);
#699=ORIENTED_EDGE('',*,*,#535,.F.);
#700=ORIENTED_EDGE('',*,*,#529,.T.);
#701=ORIENTED_EDGE('',*,*,#536,.F.);
#702=ORIENTED_EDGE('',*,*,#537,.T.);
#703=ORIENTED_EDGE('',*,*,#538,.F.);
#704=ORIENTED_EDGE('',*,*,#539,.F.);
#705=ORIENTED_EDGE('',*,*,#540,.F.);
#706=ORIENTED_EDGE('',*,*,#539,.T.);
#707=ORIENTED_EDGE('',*,*,#541,.F.);
#708=ORIENTED_EDGE('',*,*,#542,.F.);
#709=ORIENTED_EDGE('',*,*,#543,.F.);
#710=ORIENTED_EDGE('',*,*,#542,.T.);
#711=ORIENTED_EDGE('',*,*,#544,.F.);
#712=ORIENTED_EDGE('',*,*,#545,.F.);
#713=ORIENTED_EDGE('',*,*,#546,.F.);
#714=ORIENTED_EDGE('',*,*,#545,.T.);
#715=ORIENTED_EDGE('',*,*,#547,.F.);
#716=ORIENTED_EDGE('',*,*,#537,.F.);
#717=ORIENTED_EDGE('',*,*,#547,.T.);
#718=ORIENTED_EDGE('',*,*,#544,.T.);
#719=ORIENTED_EDGE('',*,*,#541,.T.);
#720=ORIENTED_EDGE('',*,*,#538,.T.);
#721=ORIENTED_EDGE('',*,*,#535,.T.);
#722=ORIENTED_EDGE('',*,*,#532,.T.);
#723=ORIENTED_EDGE('',*,*,#526,.T.);
#724=ORIENTED_EDGE('',*,*,#530,.T.);
#725=ORIENTED_EDGE('',*,*,#546,.T.);
#726=ORIENTED_EDGE('',*,*,#536,.T.);
#727=ORIENTED_EDGE('',*,*,#540,.T.);
#728=ORIENTED_EDGE('',*,*,#543,.T.);
#729=ORIENTED_EDGE('',*,*,#548,.F.);
#730=ORIENTED_EDGE('',*,*,#549,.T.);
#731=ORIENTED_EDGE('',*,*,#550,.T.);
#732=ORIENTED_EDGE('',*,*,#551,.T.);
#733=ORIENTED_EDGE('',*,*,#551,.F.);
#734=ORIENTED_EDGE('',*,*,#552,.T.);
#735=ORIENTED_EDGE('',*,*,#553,.T.);
#736=ORIENTED_EDGE('',*,*,#554,.F.);
#737=ORIENTED_EDGE('',*,*,#555,.F.);
#738=ORIENTED_EDGE('',*,*,#469,.T.);
#739=ORIENTED_EDGE('',*,*,#475,.T.);
#740=ORIENTED_EDGE('',*,*,#484,.T.);
#741=ORIENTED_EDGE('',*,*,#481,.T.);
#742=ORIENTED_EDGE('',*,*,#478,.T.);
#743=ORIENTED_EDGE('',*,*,#487,.T.);
#744=ORIENTED_EDGE('',*,*,#556,.T.);
#745=ORIENTED_EDGE('',*,*,#557,.T.);
#746=ORIENTED_EDGE('',*,*,#558,.T.);
#747=ORIENTED_EDGE('',*,*,#559,.T.);
#748=ORIENTED_EDGE('',*,*,#560,.T.);
#749=ORIENTED_EDGE('',*,*,#556,.F.);
#750=ORIENTED_EDGE('',*,*,#561,.F.);
#751=ORIENTED_EDGE('',*,*,#562,.F.);
#752=ORIENTED_EDGE('',*,*,#552,.F.);
#753=ORIENTED_EDGE('',*,*,#550,.F.);
#754=ORIENTED_EDGE('',*,*,#563,.F.);
#755=ORIENTED_EDGE('',*,*,#564,.T.);
#756=ORIENTED_EDGE('',*,*,#565,.T.);
#757=ORIENTED_EDGE('',*,*,#560,.F.);
#758=ORIENTED_EDGE('',*,*,#566,.F.);
#759=ORIENTED_EDGE('',*,*,#567,.F.);
#760=ORIENTED_EDGE('',*,*,#568,.T.);
#761=ORIENTED_EDGE('',*,*,#569,.T.);
#762=ORIENTED_EDGE('',*,*,#570,.T.);
#763=ORIENTED_EDGE('',*,*,#561,.T.);
#764=ORIENTED_EDGE('',*,*,#466,.T.);
#765=ORIENTED_EDGE('',*,*,#472,.T.);
#766=ORIENTED_EDGE('',*,*,#483,.T.);
#767=ORIENTED_EDGE('',*,*,#486,.T.);
#768=ORIENTED_EDGE('',*,*,#476,.T.);
#769=ORIENTED_EDGE('',*,*,#480,.T.);
#770=ORIENTED_EDGE('',*,*,#559,.F.);
#771=ORIENTED_EDGE('',*,*,#571,.F.);
#772=ORIENTED_EDGE('',*,*,#572,.T.);
#773=ORIENTED_EDGE('',*,*,#573,.F.);
#774=ORIENTED_EDGE('',*,*,#566,.T.);
#775=ORIENTED_EDGE('',*,*,#567,.T.);
#776=ORIENTED_EDGE('',*,*,#573,.T.);
#777=ORIENTED_EDGE('',*,*,#574,.T.);
#778=ORIENTED_EDGE('',*,*,#575,.F.);
#779=ORIENTED_EDGE('',*,*,#576,.T.);
#780=ORIENTED_EDGE('',*,*,#557,.F.);
#781=ORIENTED_EDGE('',*,*,#565,.F.);
#782=ORIENTED_EDGE('',*,*,#577,.T.);
#783=ORIENTED_EDGE('',*,*,#490,.T.);
#784=ORIENTED_EDGE('',*,*,#496,.T.);
#785=ORIENTED_EDGE('',*,*,#578,.F.);
#786=ORIENTED_EDGE('',*,*,#574,.F.);
#787=ORIENTED_EDGE('',*,*,#572,.F.);
#788=ORIENTED_EDGE('',*,*,#575,.T.);
#789=ORIENTED_EDGE('',*,*,#578,.T.);
#790=ORIENTED_EDGE('',*,*,#579,.F.);
#791=ORIENTED_EDGE('',*,*,#548,.T.);
#792=ORIENTED_EDGE('',*,*,#555,.T.);
#793=ORIENTED_EDGE('',*,*,#580,.T.);
#794=ORIENTED_EDGE('',*,*,#568,.F.);
#795=ORIENTED_EDGE('',*,*,#553,.F.);
#796=ORIENTED_EDGE('',*,*,#562,.T.);
#797=ORIENTED_EDGE('',*,*,#570,.F.);
#798=ORIENTED_EDGE('',*,*,#581,.F.);
#799=ORIENTED_EDGE('',*,*,#554,.T.);
#800=ORIENTED_EDGE('',*,*,#581,.T.);
#801=ORIENTED_EDGE('',*,*,#569,.F.);
#802=ORIENTED_EDGE('',*,*,#580,.F.);
#803=ORIENTED_EDGE('',*,*,#582,.F.);
#804=ORIENTED_EDGE('',*,*,#583,.T.);
#805=ORIENTED_EDGE('',*,*,#577,.F.);
#806=ORIENTED_EDGE('',*,*,#564,.F.);
#807=ORIENTED_EDGE('',*,*,#558,.F.);
#808=ORIENTED_EDGE('',*,*,#576,.F.);
#809=ORIENTED_EDGE('',*,*,#583,.F.);
#810=ORIENTED_EDGE('',*,*,#584,.T.);
#811=ORIENTED_EDGE('',*,*,#579,.T.);
#812=ORIENTED_EDGE('',*,*,#571,.T.);
#813=ORIENTED_EDGE('',*,*,#549,.F.);
#814=ORIENTED_EDGE('',*,*,#584,.F.);
#815=ORIENTED_EDGE('',*,*,#582,.T.);
#816=ORIENTED_EDGE('',*,*,#563,.T.);
#817=ORIENTED_EDGE('',*,*,#493,.T.);
#818=ORIENTED_EDGE('',*,*,#499,.T.);
#819=ORIENTED_EDGE('',*,*,#510,.T.);
#820=ORIENTED_EDGE('',*,*,#504,.T.);
#821=ORIENTED_EDGE('',*,*,#500,.T.);
#822=ORIENTED_EDGE('',*,*,#507,.T.);
#823=ORIENTED_EDGE('',*,*,#534,.T.);
#824=ORIENTED_EDGE('',*,*,#528,.T.);
#825=ORIENTED_EDGE('',*,*,#524,.T.);
#826=ORIENTED_EDGE('',*,*,#531,.T.);
#827=PLANE('',#933);
#828=PLANE('',#940);
#829=PLANE('',#947);
#830=PLANE('',#948);
#831=PLANE('',#949);
#832=PLANE('',#950);
#833=PLANE('',#951);
#834=PLANE('',#958);
#835=PLANE('',#965);
#836=PLANE('',#966);
#837=PLANE('',#967);
#838=PLANE('',#968);
#839=PLANE('',#969);
#840=PLANE('',#970);
#841=PLANE('',#971);
#842=PLANE('',#972);
#843=PLANE('',#973);
#844=PLANE('',#974);
#845=PLANE('',#975);
#846=PLANE('',#976);
#847=PLANE('',#977);
#848=PLANE('',#978);
#849=PLANE('',#979);
#850=PLANE('',#980);
#851=PLANE('',#981);
#852=PLANE('',#982);
#853=PLANE('',#983);
#854=PLANE('',#984);
#855=PLANE('',#988);
#856=PLANE('',#993);
#857=PLANE('',#994);
#858=PLANE('',#995);
#859=PLANE('',#996);
#860=PLANE('',#997);
#861=PLANE('',#998);
#862=PLANE('',#999);
#863=PLANE('',#1000);
#864=PLANE('',#1001);
#865=PLANE('',#1002);
#866=PLANE('',#1003);
#867=PLANE('',#1004);
#868=ADVANCED_FACE('',(#245,#227),#827,.F.);
#869=ADVANCED_FACE('',(#246),#217,.F.);
#870=ADVANCED_FACE('',(#247),#218,.F.);
#871=ADVANCED_FACE('',(#248,#228),#828,.F.);
#872=ADVANCED_FACE('',(#249),#219,.F.);
#873=ADVANCED_FACE('',(#250),#220,.F.);
#874=ADVANCED_FACE('',(#251),#829,.F.);
#875=ADVANCED_FACE('',(#252),#830,.F.);
#876=ADVANCED_FACE('',(#253),#831,.F.);
#877=ADVANCED_FACE('',(#254),#832,.F.);
#878=ADVANCED_FACE('',(#255,#229),#833,.F.);
#879=ADVANCED_FACE('',(#256),#221,.F.);
#880=ADVANCED_FACE('',(#257),#222,.F.);
#881=ADVANCED_FACE('',(#258,#230),#834,.F.);
#882=ADVANCED_FACE('',(#259),#223,.F.);
#883=ADVANCED_FACE('',(#260),#224,.F.);
#884=ADVANCED_FACE('',(#261),#835,.T.);
#885=ADVANCED_FACE('',(#262),#836,.T.);
#886=ADVANCED_FACE('',(#263),#837,.T.);
#887=ADVANCED_FACE('',(#264),#838,.T.);
#888=ADVANCED_FACE('',(#265),#839,.T.);
#889=ADVANCED_FACE('',(#266),#840,.T.);
#890=ADVANCED_FACE('',(#267),#841,.T.);
#891=ADVANCED_FACE('',(#268),#842,.T.);
#892=ADVANCED_FACE('',(#269,#231),#843,.T.);
#893=ADVANCED_FACE('',(#270),#844,.F.);
#894=ADVANCED_FACE('',(#271),#845,.T.);
#895=ADVANCED_FACE('',(#272),#846,.T.);
#896=ADVANCED_FACE('',(#273),#847,.T.);
#897=ADVANCED_FACE('',(#274),#848,.T.);
#898=ADVANCED_FACE('',(#275),#849,.T.);
#899=ADVANCED_FACE('',(#276),#850,.T.);
#900=ADVANCED_FACE('',(#277),#851,.T.);
#901=ADVANCED_FACE('',(#278),#852,.T.);
#902=ADVANCED_FACE('',(#279,#232),#853,.T.);
#903=ADVANCED_FACE('',(#280),#854,.F.);
#904=ADVANCED_FACE('',(#281),#225,.F.);
#905=ADVANCED_FACE('',(#282,#233,#234,#235),#855,.F.);
#906=ADVANCED_FACE('',(#283),#226,.T.);
#907=ADVANCED_FACE('',(#284),#856,.T.);
#908=ADVANCED_FACE('',(#285,#236,#237,#238),#857,.F.);
#909=ADVANCED_FACE('',(#286),#858,.T.);
#910=ADVANCED_FACE('',(#287),#859,.T.);
#911=ADVANCED_FACE('',(#288,#239,#240),#860,.T.);
#912=ADVANCED_FACE('',(#289),#861,.T.);
#913=ADVANCED_FACE('',(#290),#862,.T.);
#914=ADVANCED_FACE('',(#291),#863,.T.);
#915=ADVANCED_FACE('',(#292),#864,.T.);
#916=ADVANCED_FACE('',(#293),#865,.T.);
#917=ADVANCED_FACE('',(#294),#866,.T.);
#918=ADVANCED_FACE('',(#295,#241,#242,#243,#244),#867,.F.);
#919=CLOSED_SHELL('',(#868,#869,#870,#871,#872,#873,#874,#875,#876,#877,
#878,#879,#880,#881,#882,#883,#884,#885,#886,#887,#888,#889,#890,#891,#892,
#893,#894,#895,#896,#897,#898,#899,#900,#901,#902,#903,#904,#905,#906,#907,
#908,#909,#910,#911,#912,#913,#914,#915,#916,#917,#918));
#920=DERIVED_UNIT_ELEMENT(#922,1.);
#921=DERIVED_UNIT_ELEMENT(#1511,-3.);
#922=(
MASS_UNIT()
NAMED_UNIT(*)
SI_UNIT(.KILO.,.GRAM.)
);
#923=DERIVED_UNIT((#920,#921));
#924=MEASURE_REPRESENTATION_ITEM('density measure',
POSITIVE_RATIO_MEASURE(7850.),#923);
#925=PROPERTY_DEFINITION_REPRESENTATION(#930,#927);
#926=PROPERTY_DEFINITION_REPRESENTATION(#931,#928);
#927=REPRESENTATION('material name',(#929),#1506);
#928=REPRESENTATION('density',(#924),#1506);
#929=DESCRIPTIVE_REPRESENTATION_ITEM('Steel','Steel');
#930=PROPERTY_DEFINITION('material property','material name',#1519);
#931=PROPERTY_DEFINITION('material property','density of part',#1519);
#932=AXIS2_PLACEMENT_3D('',#1251,#1005,#1006);
#933=AXIS2_PLACEMENT_3D('',#1252,#1007,#1008);
#934=AXIS2_PLACEMENT_3D('',#1254,#1009,#1010);
#935=AXIS2_PLACEMENT_3D('',#1256,#1011,#1012);
#936=AXIS2_PLACEMENT_3D('',#1257,#1013,#1014);
#937=AXIS2_PLACEMENT_3D('',#1259,#1015,#1016);
#938=AXIS2_PLACEMENT_3D('',#1261,#1018,#1019);
#939=AXIS2_PLACEMENT_3D('',#1264,#1021,#1022);
#940=AXIS2_PLACEMENT_3D('',#1265,#1023,#1024);
#941=AXIS2_PLACEMENT_3D('',#1267,#1025,#1026);
#942=AXIS2_PLACEMENT_3D('',#1269,#1027,#1028);
#943=AXIS2_PLACEMENT_3D('',#1270,#1029,#1030);
#944=AXIS2_PLACEMENT_3D('',#1272,#1031,#1032);
#945=AXIS2_PLACEMENT_3D('',#1274,#1034,#1035);
#946=AXIS2_PLACEMENT_3D('',#1277,#1037,#1038);
#947=AXIS2_PLACEMENT_3D('',#1278,#1039,#1040);
#948=AXIS2_PLACEMENT_3D('',#1287,#1045,#1046);
#949=AXIS2_PLACEMENT_3D('',#1293,#1050,#1051);
#950=AXIS2_PLACEMENT_3D('',#1299,#1055,#1056);
#951=AXIS2_PLACEMENT_3D('',#1302,#1059,#1060);
#952=AXIS2_PLACEMENT_3D('',#1304,#1061,#1062);
#953=AXIS2_PLACEMENT_3D('',#1306,#1063,#1064);
#954=AXIS2_PLACEMENT_3D('',#1307,#1065,#1066);
#955=AXIS2_PLACEMENT_3D('',#1309,#1067,#1068);
#956=AXIS2_PLACEMENT_3D('',#1311,#1070,#1071);
#957=AXIS2_PLACEMENT_3D('',#1314,#1073,#1074);
#958=AXIS2_PLACEMENT_3D('',#1315,#1075,#1076);
#959=AXIS2_PLACEMENT_3D('',#1317,#1077,#1078);
#960=AXIS2_PLACEMENT_3D('',#1319,#1079,#1080);
#961=AXIS2_PLACEMENT_3D('',#1320,#1081,#1082);
#962=AXIS2_PLACEMENT_3D('',#1322,#1083,#1084);
#963=AXIS2_PLACEMENT_3D('',#1324,#1086,#1087);
#964=AXIS2_PLACEMENT_3D('',#1327,#1089,#1090);
#965=AXIS2_PLACEMENT_3D('',#1328,#1091,#1092);
#966=AXIS2_PLACEMENT_3D('',#1337,#1097,#1098);
#967=AXIS2_PLACEMENT_3D('',#1343,#1102,#1103);
#968=AXIS2_PLACEMENT_3D('',#1349,#1107,#1108);
#969=AXIS2_PLACEMENT_3D('',#1352,#1111,#1112);
#970=AXIS2_PLACEMENT_3D('',#1361,#1117,#1118);
#971=AXIS2_PLACEMENT_3D('',#1367,#1122,#1123);
#972=AXIS2_PLACEMENT_3D('',#1373,#1127,#1128);
#973=AXIS2_PLACEMENT_3D('',#1376,#1131,#1132);
#974=AXIS2_PLACEMENT_3D('',#1377,#1133,#1134);
#975=AXIS2_PLACEMENT_3D('',#1378,#1135,#1136);
#976=AXIS2_PLACEMENT_3D('',#1387,#1141,#1142);
#977=AXIS2_PLACEMENT_3D('',#1393,#1146,#1147);
#978=AXIS2_PLACEMENT_3D('',#1399,#1151,#1152);
#979=AXIS2_PLACEMENT_3D('',#1402,#1155,#1156);
#980=AXIS2_PLACEMENT_3D('',#1411,#1161,#1162);
#981=AXIS2_PLACEMENT_3D('',#1417,#1166,#1167);
#982=AXIS2_PLACEMENT_3D('',#1423,#1171,#1172);
#983=AXIS2_PLACEMENT_3D('',#1426,#1175,#1176);
#984=AXIS2_PLACEMENT_3D('',#1427,#1177,#1178);
#985=AXIS2_PLACEMENT_3D('',#1428,#1179,#1180);
#986=AXIS2_PLACEMENT_3D('',#1431,#1181,#1182);
#987=AXIS2_PLACEMENT_3D('',#1435,#1184,#1185);
#988=AXIS2_PLACEMENT_3D('',#1437,#1187,#1188);
#989=AXIS2_PLACEMENT_3D('',#1445,#1193,#1194);
#990=AXIS2_PLACEMENT_3D('',#1448,#1195,#1196);
#991=AXIS2_PLACEMENT_3D('',#1452,#1198,#1199);
#992=AXIS2_PLACEMENT_3D('',#1454,#1200,#1201);
#993=AXIS2_PLACEMENT_3D('',#1456,#1203,#1204);
#994=AXIS2_PLACEMENT_3D('',#1465,#1210,#1211);
#995=AXIS2_PLACEMENT_3D('',#1475,#1217,#1218);
#996=AXIS2_PLACEMENT_3D('',#1481,#1222,#1223);
#997=AXIS2_PLACEMENT_3D('',#1485,#1226,#1227);
#998=AXIS2_PLACEMENT_3D('',#1489,#1230,#1231);
#999=AXIS2_PLACEMENT_3D('',#1491,#1233,#1234);
#1000=AXIS2_PLACEMENT_3D('',#1494,#1237,#1238);
#1001=AXIS2_PLACEMENT_3D('',#1496,#1240,#1241);
#1002=AXIS2_PLACEMENT_3D('',#1497,#1242,#1243);
#1003=AXIS2_PLACEMENT_3D('',#1501,#1246,#1247);
#1004=AXIS2_PLACEMENT_3D('',#1503,#1249,#1250);
#1005=DIRECTION('axis',(0.,0.,1.));
#1006=DIRECTION('refdir',(1.,0.,0.));
#1007=DIRECTION('center_axis',(0.,0.,1.));
#1008=DIRECTION('ref_axis',(-1.,0.,0.));
#1009=DIRECTION('center_axis',(0.,0.,1.));
#1010=DIRECTION('ref_axis',(-1.,0.,0.));
#1011=DIRECTION('center_axis',(0.,0.,-1.));
#1012=DIRECTION('ref_axis',(-1.,0.,0.));
#1013=DIRECTION('center_axis',(0.,0.,1.));
#1014=DIRECTION('ref_axis',(-1.,0.,0.));
#1015=DIRECTION('center_axis',(0.,0.,1.));
#1016=DIRECTION('ref_axis',(-1.,0.,0.));
#1017=DIRECTION('',(0.,0.,1.));
#1018=DIRECTION('center_axis',(0.,0.,1.));
#1019=DIRECTION('ref_axis',(-1.,0.,0.));
#1020=DIRECTION('',(0.,0.,1.));
#1021=DIRECTION('center_axis',(0.,0.,1.));
#1022=DIRECTION('ref_axis',(-1.,0.,0.));
#1023=DIRECTION('center_axis',(0.,0.,1.));
#1024=DIRECTION('ref_axis',(-1.,0.,0.));
#1025=DIRECTION('center_axis',(0.,0.,1.));
#1026=DIRECTION('ref_axis',(-1.,0.,0.));
#1027=DIRECTION('center_axis',(0.,0.,-1.));
#1028=DIRECTION('ref_axis',(-1.,0.,0.));
#1029=DIRECTION('center_axis',(0.,0.,1.));
#1030=DIRECTION('ref_axis',(-1.,0.,0.));
#1031=DIRECTION('center_axis',(0.,0.,1.));
#1032=DIRECTION('ref_axis',(-1.,0.,0.));
#1033=DIRECTION('',(0.,0.,1.));
#1034=DIRECTION('center_axis',(0.,0.,1.));
#1035=DIRECTION('ref_axis',(-1.,0.,0.));
#1036=DIRECTION('',(0.,0.,1.));
#1037=DIRECTION('center_axis',(0.,0.,1.));
#1038=DIRECTION('ref_axis',(-1.,0.,0.));
#1039=DIRECTION('center_axis',(-1.,0.,0.));
#1040=DIRECTION('ref_axis',(0.,1.,0.));
#1041=DIRECTION('',(0.,-1.,0.));
#1042=DIRECTION('',(0.,0.,-1.));
#1043=DIRECTION('',(0.,1.,0.));
#1044=DIRECTION('',(0.,0.,-1.));
#1045=DIRECTION('center_axis',(0.,-1.,0.));
#1046=DIRECTION('ref_axis',(-1.,0.,0.));
#1047=DIRECTION('',(1.,0.,0.));
#1048=DIRECTION('',(-1.,0.,0.));
#1049=DIRECTION('',(0.,0.,-1.));
#1050=DIRECTION('center_axis',(1.,0.,0.));
#1051=DIRECTION('ref_axis',(0.,-1.,0.));
#1052=DIRECTION('',(0.,1.,0.));
#1053=DIRECTION('',(0.,-1.,0.));
#1054=DIRECTION('',(0.,0.,-1.));
#1055=DIRECTION('center_axis',(0.,1.,0.));
#1056=DIRECTION('ref_axis',(1.,0.,0.));
#1057=DIRECTION('',(-1.,0.,0.));
#1058=DIRECTION('',(1.,0.,0.));
#1059=DIRECTION('center_axis',(0.,-0.602400934984153,0.79819365665872));
#1060=DIRECTION('ref_axis',(-1.,0.,0.));
#1061=DIRECTION('center_axis',(0.,-0.602400934984153,0.79819365665872));
#1062=DIRECTION('ref_axis',(-1.,0.,0.));
#1063=DIRECTION('center_axis',(0.,0.602400934984153,-0.79819365665872));
#1064=DIRECTION('ref_axis',(-1.,0.,0.));
#1065=DIRECTION('center_axis',(0.,-0.602400934984153,0.79819365665872));
#1066=DIRECTION('ref_axis',(-1.,0.,0.));
#1067=DIRECTION('center_axis',(0.,-0.602400934984153,0.79819365665872));
#1068=DIRECTION('ref_axis',(-1.,0.,0.));
#1069=DIRECTION('',(0.,-0.602400934984153,0.79819365665872));
#1070=DIRECTION('center_axis',(0.,-0.602400934984153,0.79819365665872));
#1071=DIRECTION('ref_axis',(-1.,0.,0.));
#1072=DIRECTION('',(0.,-0.602400934984153,0.79819365665872));
#1073=DIRECTION('center_axis',(-1.50106249532877E-32,-0.602400934984153,
0.79819365665872));
#1074=DIRECTION('ref_axis',(-1.,0.,0.));
#1075=DIRECTION('center_axis',(0.,-0.602400934984153,0.79819365665872));
#1076=DIRECTION('ref_axis',(-1.,0.,0.));
#1077=DIRECTION('center_axis',(0.,-0.602400934984153,0.79819365665872));
#1078=DIRECTION('ref_axis',(-1.,0.,0.));
#1079=DIRECTION('center_axis',(0.,0.602400934984153,-0.79819365665872));
#1080=DIRECTION('ref_axis',(-1.,0.,0.));
#1081=DIRECTION('center_axis',(0.,-0.602400934984153,0.79819365665872));
#1082=DIRECTION('ref_axis',(-1.,0.,0.));
#1083=DIRECTION('center_axis',(0.,-0.602400934984153,0.79819365665872));
#1084=DIRECTION('ref_axis',(-1.,0.,0.));
#1085=DIRECTION('',(0.,-0.602400934984153,0.79819365665872));
#1086=DIRECTION('center_axis',(0.,-0.602400934984153,0.79819365665872));
#1087=DIRECTION('ref_axis',(-1.,0.,0.));
#1088=DIRECTION('',(0.,-0.602400934984153,0.79819365665872));
#1089=DIRECTION('center_axis',(-1.50106249532877E-32,-0.602400934984153,
0.79819365665872));
#1090=DIRECTION('ref_axis',(-1.,0.,0.));
#1091=DIRECTION('center_axis',(-1.,0.,0.));
#1092=DIRECTION('ref_axis',(0.,1.,0.));
#1093=DIRECTION('',(0.,0.79819365665872,0.602400934984153));
#1094=DIRECTION('',(0.,0.,-1.));
#1095=DIRECTION('',(0.,-1.,0.));
#1096=DIRECTION('',(0.,0.,-1.));
#1097=DIRECTION('center_axis',(0.,-1.,0.));
#1098=DIRECTION('ref_axis',(-1.,0.,0.));
#1099=DIRECTION('',(-1.,0.,-1.88057432279316E-32));
#1100=DIRECTION('',(0.,0.,-1.));
#1101=DIRECTION('',(1.,0.,0.));
#1102=DIRECTION('center_axis',(0.,1.,0.));
#1103=DIRECTION('ref_axis',(1.,0.,0.));
#1104=DIRECTION('',(1.,0.,1.88057432279316E-32));
#1105=DIRECTION('',(-1.,0.,0.));
#1106=DIRECTION('',(0.,0.,-1.));
#1107=DIRECTION('center_axis',(1.,0.,0.));
#1108=DIRECTION('ref_axis',(0.,-1.,0.));
#1109=DIRECTION('',(0.,-0.79819365665872,-0.602400934984153));
#1110=DIRECTION('',(0.,1.,0.));
#1111=DIRECTION('center_axis',(1.,0.,0.));
#1112=DIRECTION('ref_axis',(0.,-1.,0.));
#1113=DIRECTION('',(0.,1.,0.));
#1114=DIRECTION('',(0.,0.,-1.));
#1115=DIRECTION('',(0.,-1.,0.));
#1116=DIRECTION('',(0.,0.,-1.));
#1117=DIRECTION('center_axis',(0.,1.,0.));
#1118=DIRECTION('ref_axis',(1.,0.,0.));
#1119=DIRECTION('',(-1.,0.,0.));
#1120=DIRECTION('',(1.,0.,0.));
#1121=DIRECTION('',(0.,0.,-1.));
#1122=DIRECTION('center_axis',(-1.,0.,0.));
#1123=DIRECTION('ref_axis',(0.,1.,0.));
#1124=DIRECTION('',(0.,-1.,0.));
#1125=DIRECTION('',(0.,1.,0.));
#1126=DIRECTION('',(0.,0.,-1.));
#1127=DIRECTION('center_axis',(0.,-1.,0.));
#1128=DIRECTION('ref_axis',(-1.,0.,0.));
#1129=DIRECTION('',(1.,0.,0.));
#1130=DIRECTION('',(-1.,0.,0.));
#1131=DIRECTION('center_axis',(0.,0.,-1.));
#1132=DIRECTION('ref_axis',(-1.,0.,0.));
#1133=DIRECTION('center_axis',(0.,0.,-1.));
#1134=DIRECTION('ref_axis',(-1.,0.,0.));
#1135=DIRECTION('center_axis',(-1.,0.,0.));
#1136=DIRECTION('ref_axis',(0.,1.,0.));
#1137=DIRECTION('',(0.,0.79819365665872,0.602400934984153));
#1138=DIRECTION('',(0.,0.,-1.));
#1139=DIRECTION('',(0.,-1.,0.));
#1140=DIRECTION('',(0.,0.,-1.));
#1141=DIRECTION('center_axis',(0.,-1.,0.));
#1142=DIRECTION('ref_axis',(-1.,0.,0.));
#1143=DIRECTION('',(-1.,0.,-1.88057432279316E-32));
#1144=DIRECTION('',(0.,0.,-1.));
#1145=DIRECTION('',(1.,0.,0.));
#1146=DIRECTION('center_axis',(0.,1.,0.));
#1147=DIRECTION('ref_axis',(1.,0.,0.));
#1148=DIRECTION('',(1.,0.,1.88057432279316E-32));
#1149=DIRECTION('',(-1.,0.,0.));
#1150=DIRECTION('',(0.,0.,-1.));
#1151=DIRECTION('center_axis',(1.,0.,0.));
#1152=DIRECTION('ref_axis',(0.,-1.,0.));
#1153=DIRECTION('',(0.,-0.79819365665872,-0.602400934984153));
#1154=DIRECTION('',(0.,1.,0.));
#1155=DIRECTION('center_axis',(1.,0.,0.));
#1156=DIRECTION('ref_axis',(0.,-1.,0.));
#1157=DIRECTION('',(0.,1.,0.));
#1158=DIRECTION('',(0.,0.,-1.));
#1159=DIRECTION('',(0.,-1.,0.));
#1160=DIRECTION('',(0.,0.,-1.));
#1161=DIRECTION('center_axis',(0.,1.,0.));
#1162=DIRECTION('ref_axis',(1.,0.,0.));
#1163=DIRECTION('',(-1.,0.,0.));
#1164=DIRECTION('',(1.,0.,0.));
#1165=DIRECTION('',(0.,0.,-1.));
#1166=DIRECTION('center_axis',(-1.,0.,0.));
#1167=DIRECTION('ref_axis',(0.,1.,0.));
#1168=DIRECTION('',(0.,-1.,0.));
#1169=DIRECTION('',(0.,1.,0.));
#1170=DIRECTION('',(0.,0.,-1.));
#1171=DIRECTION('center_axis',(0.,-1.,0.));
#1172=DIRECTION('ref_axis',(-1.,0.,0.));
#1173=DIRECTION('',(1.,0.,0.));
#1174=DIRECTION('',(-1.,0.,0.));
#1175=DIRECTION('center_axis',(0.,0.,-1.));
#1176=DIRECTION('ref_axis',(-1.,0.,0.));
#1177=DIRECTION('center_axis',(0.,0.,-1.));
#1178=DIRECTION('ref_axis',(-1.,0.,0.));
#1179=DIRECTION('center_axis',(1.,-2.49179974358482E-32,0.));
#1180=DIRECTION('ref_axis',(0.,0.317652595882106,-0.948207165301634));
#1181=DIRECTION('center_axis',(0.999994312650139,-0.00337263507900984,0.));
#1182=DIRECTION('ref_axis',(0.00337263507900984,0.999994312650139,4.73849088164164E-12));
#1183=DIRECTION('',(-1.,2.49179974358482E-32,0.));
#1184=DIRECTION('center_axis',(-1.,0.,0.));
#1185=DIRECTION('ref_axis',(0.,0.317652595882106,-0.948207165301634));
#1186=DIRECTION('',(1.,-2.49179974358482E-32,0.));
#1187=DIRECTION('center_axis',(0.,0.,-1.));
#1188=DIRECTION('ref_axis',(-1.,0.,0.));
#1189=DIRECTION('',(-5.82686705627551E-16,-1.,0.));
#1190=DIRECTION('',(1.,0.,0.));
#1191=DIRECTION('',(0.,-1.,0.));
#1192=DIRECTION('',(-0.00337263507900984,-0.999994312650139,0.));
#1193=DIRECTION('center_axis',(-1.,0.,0.));
#1194=DIRECTION('ref_axis',(0.,0.317652595882105,-0.948207165301634));
#1195=DIRECTION('center_axis',(1.,0.,0.));
#1196=DIRECTION('ref_axis',(0.,0.317652595882105,-0.948207165301634));
#1197=DIRECTION('',(1.,0.,0.));
#1198=DIRECTION('center_axis',(-0.999996376503605,0.00214875447070693,0.00162167625789424));
#1199=DIRECTION('ref_axis',(-0.00269202148223243,-0.798190764412275,-0.602398752179391));
#1200=DIRECTION('center_axis',(-1.,0.,0.));
#1201=DIRECTION('ref_axis',(0.,0.317652595882105,-0.948207165301634));
#1202=DIRECTION('',(-1.,0.,0.));
#1203=DIRECTION('center_axis',(-1.,0.,0.));
#1204=DIRECTION('ref_axis',(0.,0.79819365665872,0.602400934984153));
#1205=DIRECTION('',(5.82686705627551E-16,1.,0.));
#1206=DIRECTION('',(0.,0.,-1.));
#1207=DIRECTION('',(0.,-0.79819365665872,-0.602400934984153));
#1208=DIRECTION('',(0.,0.602400934984153,-0.79819365665872));
#1209=DIRECTION('',(0.,-0.79819365665872,-0.602400934984153));
#1210=DIRECTION('center_axis',(0.,0.,1.));
#1211=DIRECTION('ref_axis',(0.00337263507900984,0.999994312650139,0.));
#1212=DIRECTION('',(0.,1.,0.));
#1213=DIRECTION('',(1.,0.,0.));
#1214=DIRECTION('',(-0.00337263507900984,-0.999994312650139,0.));
#1215=DIRECTION('',(0.,-1.,0.));
#1216=DIRECTION('',(-1.,0.,0.));
#1217=DIRECTION('center_axis',(1.,0.,0.));
#1218=DIRECTION('ref_axis',(0.,-0.602400934984153,0.79819365665872));
#1219=DIRECTION('',(0.,0.602400934984153,-0.79819365665872));
#1220=DIRECTION('',(0.,-0.79819365665872,-0.602400934984153));
#1221=DIRECTION('',(0.,-0.602400934984153,0.79819365665872));
#1222=DIRECTION('center_axis',(0.,-0.79819365665872,-0.602400934984153));
#1223=DIRECTION('ref_axis',(-1.,0.,0.));
#1224=DIRECTION('',(-1.,0.,0.));
#1225=DIRECTION('',(-0.00203168588673198,-0.602399691703381,0.798192009286067));
#1226=DIRECTION('center_axis',(0.,0.602400934984153,-0.79819365665872));
#1227=DIRECTION('ref_axis',(-1.,0.,0.));
#1228=DIRECTION('',(-0.00269202148223243,-0.798190764406882,-0.602398752186537));
#1229=DIRECTION('',(0.999999999408589,-2.74516234242636E-5,-2.07178840368563E-5));
#1230=DIRECTION('center_axis',(0.,-0.602400934984153,0.79819365665872));
#1231=DIRECTION('ref_axis',(-1.,0.,0.));
#1232=DIRECTION('',(0.00269202148224833,0.798190764406882,0.602398752186537));
#1233=DIRECTION('center_axis',(0.999994312650139,-0.00337263507900984,0.));
#1234=DIRECTION('ref_axis',(-0.00337263507900984,-0.999994312650139,0.));
#1235=DIRECTION('',(-0.00269202148223243,-0.798190764406882,-0.602398752186537));
#1236=DIRECTION('',(0.,0.,-1.));
#1237=DIRECTION('center_axis',(0.,-1.,0.));
#1238=DIRECTION('ref_axis',(-1.,0.,0.));
#1239=DIRECTION('',(0.,0.,-1.));
#1240=DIRECTION('center_axis',(1.,0.,0.));
#1241=DIRECTION('ref_axis',(0.,-1.,0.));
#1242=DIRECTION('center_axis',(3.43921843969266E-5,0.798193656186659,0.602400934627886));
#1243=DIRECTION('ref_axis',(0.999999999408589,-2.74516234242636E-5,-2.07178840368563E-5));
#1244=DIRECTION('',(-0.999999999408589,2.74516234242636E-5,2.07178840368563E-5));
#1245=DIRECTION('',(0.,0.602400934984153,-0.79819365665872));
#1246=DIRECTION('center_axis',(0.999996376503605,-0.00214875447070693,-0.00162167625789424));
#1247=DIRECTION('ref_axis',(-0.00269202148223243,-0.798190764406882,-0.602398752186537));
#1248=DIRECTION('',(-0.00269202148223243,-0.798190764406882,-0.602398752186537));
#1249=DIRECTION('center_axis',(1.50106249532877E-32,0.602400934984153,-0.79819365665872));
#1250=DIRECTION('ref_axis',(-1.,9.04241450655697E-33,-1.19813856201973E-32));
#1251=CARTESIAN_POINT('',(0.,0.,0.));
#1252=CARTESIAN_POINT('Origin',(-1.33079354193164,1.35793256733445,-4.24370078740135));
#1253=CARTESIAN_POINT('',(-1.27079354193163,1.35793256733445,-4.24370078740135));
#1254=CARTESIAN_POINT('Origin',(-1.33079354193164,1.35793256733445,-4.24370078740135));
#1255=CARTESIAN_POINT('',(-1.30755854193164,1.35793256733445,-4.24370078740135));
#1256=CARTESIAN_POINT('Origin',(-1.33079354193164,1.35793256733445,-4.24370078740135));
#1257=CARTESIAN_POINT('Origin',(-1.33079354193164,1.35793256733445,-4.26870078740135));
#1258=CARTESIAN_POINT('',(-1.27079354193163,1.35793256733445,-4.29370078740135));
#1259=CARTESIAN_POINT('Origin',(-1.33079354193164,1.35793256733445,-4.29370078740135));
#1260=CARTESIAN_POINT('',(-1.27079354193163,1.35793256733445,-4.26870078740135));
#1261=CARTESIAN_POINT('Origin',(-1.33079354193164,1.35793256733445,-4.19370078740135));
#1262=CARTESIAN_POINT('',(-1.30755854193164,1.35793256733445,-4.19370078740135));
#1263=CARTESIAN_POINT('',(-1.30755854193164,1.35793256733445,-4.19370078740135));
#1264=CARTESIAN_POINT('Origin',(-1.33079354193164,1.35793256733445,-4.19370078740135));
#1265=CARTESIAN_POINT('Origin',(1.38155995082517,1.35602144057951,-4.24370078740135));
#1266=CARTESIAN_POINT('',(1.44155995082517,1.35602144057951,-4.24370078740135));
#1267=CARTESIAN_POINT('Origin',(1.38155995082517,1.35602144057951,-4.24370078740135));
#1268=CARTESIAN_POINT('',(1.40479495082517,1.35602144057951,-4.24370078740135));
#1269=CARTESIAN_POINT('Origin',(1.38155995082517,1.35602144057951,-4.24370078740135));
#1270=CARTESIAN_POINT('Origin',(1.38155995082517,1.35602144057951,-4.26870078740135));
#1271=CARTESIAN_POINT('',(1.44155995082517,1.35602144057951,-4.29370078740135));
#1272=CARTESIAN_POINT('Origin',(1.38155995082517,1.35602144057951,-4.29370078740135));
#1273=CARTESIAN_POINT('',(1.44155995082517,1.35602144057951,-4.26870078740135));
#1274=CARTESIAN_POINT('Origin',(1.38155995082517,1.35602144057951,-4.19370078740135));
#1275=CARTESIAN_POINT('',(1.40479495082517,1.35602144057951,-4.19370078740135));
#1276=CARTESIAN_POINT('',(1.40479495082517,1.35602144057951,-4.19370078740135));
#1277=CARTESIAN_POINT('Origin',(1.38155995082517,1.35602144057951,-4.19370078740135));
#1278=CARTESIAN_POINT('Origin',(-0.346091800578345,1.30000004148859,-4.19370078740135));
#1279=CARTESIAN_POINT('',(-0.346091800578345,1.43297520657115,-4.29370078740135));
#1280=CARTESIAN_POINT('',(-0.346091800578345,1.30000004148859,-4.29370078740135));
#1281=CARTESIAN_POINT('',(-0.346091800578345,1.37482609770291,-4.29370078740135));
#1282=CARTESIAN_POINT('',(-0.346091800578345,1.43297520657115,-4.19370078740135));
#1283=CARTESIAN_POINT('',(-0.346091800578345,1.43297520657115,-4.19370078740135));
#1284=CARTESIAN_POINT('',(-0.346091800578345,1.30000004148859,-4.19370078740135));
#1285=CARTESIAN_POINT('',(-0.346091800578345,1.32471843463534,-4.19370078740135));
#1286=CARTESIAN_POINT('',(-0.346091800578345,1.30000004148859,-4.19370078740135));
#1287=CARTESIAN_POINT('Origin',(0.0539082121873741,1.30000004148859,-4.19370078740135));
#1288=CARTESIAN_POINT('',(0.0539082121873741,1.30000004148859,-4.29370078740135));
#1289=CARTESIAN_POINT('',(0.799421861669234,1.30000004148859,-4.29370078740135));
#1290=CARTESIAN_POINT('',(0.0539082121873741,1.30000004148859,-4.19370078740135));
#1291=CARTESIAN_POINT('',(0.0388439280024671,1.30000004148859,-4.19370078740135));
#1292=CARTESIAN_POINT('',(0.0539082121873741,1.30000004148859,-4.19370078740135));
#1293=CARTESIAN_POINT('Origin',(0.0539082121873741,1.43297520657115,-4.19370078740135));
#1294=CARTESIAN_POINT('',(0.0539082121873741,1.43297520657115,-4.29370078740135));
#1295=CARTESIAN_POINT('',(0.0539082121873741,1.4413136802442,-4.29370078740135));
#1296=CARTESIAN_POINT('',(0.0539082121873741,1.43297520657115,-4.19370078740135));
#1297=CARTESIAN_POINT('',(0.0539082121873741,1.39120601717662,-4.19370078740135));
#1298=CARTESIAN_POINT('',(0.0539082121873741,1.43297520657115,-4.19370078740135));
#1299=CARTESIAN_POINT('Origin',(-0.346091800578345,1.43297520657115,-4.19370078740135));
#1300=CARTESIAN_POINT('',(0.599421855286374,1.43297520657115,-4.29370078740135));
#1301=CARTESIAN_POINT('',(-0.161156078380392,1.43297520657115,-4.19370078740135));
#1302=CARTESIAN_POINT('Origin',(-1.23431752724362,4.25846946870893,-2.17410672847211));
#1303=CARTESIAN_POINT('',(-1.17431752724362,4.25846946870893,-2.17410672847211));
#1304=CARTESIAN_POINT('Origin',(-1.23431752724362,4.25846946870893,-2.17410672847211));
#1305=CARTESIAN_POINT('',(-1.21108252724362,4.25846946870893,-2.17410672847211));
#1306=CARTESIAN_POINT('Origin',(-1.23431752724362,4.25846946870893,-2.17410672847211));
#1307=CARTESIAN_POINT('Origin',(-1.23431752724362,4.27352949208354,-2.19406156988858));
#1308=CARTESIAN_POINT('',(-1.17431752724362,4.28858951545808,-2.21401641130497));
#1309=CARTESIAN_POINT('Origin',(-1.23431752724362,4.28858951545808,-2.21401641130497));
#1310=CARTESIAN_POINT('',(-1.17431752724362,4.27352949208354,-2.19406156988858));
#1311=CARTESIAN_POINT('Origin',(-1.23431752724362,4.22834942195972,-2.13419704563918));
#1312=CARTESIAN_POINT('',(-1.21108252724362,4.22834942195967,-2.1341970456391));
#1313=CARTESIAN_POINT('',(-1.21108252724362,4.22834942195972,-2.13419704563918));
#1314=CARTESIAN_POINT('Origin',(-1.23431752724362,4.22834942195967,-2.1341970456391));
#1315=CARTESIAN_POINT('Origin',(1.22998872245895,4.27454278068062,-2.16072328690885));
#1316=CARTESIAN_POINT('',(1.28998872245895,4.27454278068062,-2.16072328690885));
#1317=CARTESIAN_POINT('Origin',(1.22998872245895,4.27454278068062,-2.16072328690885));
#1318=CARTESIAN_POINT('',(1.25322372245895,4.27454278068062,-2.16072328690885));
#1319=CARTESIAN_POINT('Origin',(1.22998872245895,4.27454278068062,-2.16072328690885));
#1320=CARTESIAN_POINT('Origin',(1.22998872245895,4.28990400452272,-2.18107722515365));
#1321=CARTESIAN_POINT('',(1.28998872245895,4.30526522836477,-2.20143116339839));
#1322=CARTESIAN_POINT('Origin',(1.22998872245895,4.30526522836477,-2.20143116339839));
#1323=CARTESIAN_POINT('',(1.28998872245895,4.28990400452272,-2.18107722515365));
#1324=CARTESIAN_POINT('Origin',(1.22998872245895,4.2450251348664,-2.12161179773257));
#1325=CARTESIAN_POINT('',(1.25322372245895,4.24502513486635,-2.12161179773251));
#1326=CARTESIAN_POINT('',(1.25322372245895,4.2450251348664,-2.12161179773257));
#1327=CARTESIAN_POINT('Origin',(1.22998872245895,4.24502513486635,-2.12161179773251));
#1328=CARTESIAN_POINT('Origin',(-0.10000000319143,2.15000006861574,-1.89370078740135));
#1329=CARTESIAN_POINT('',(-0.10000000319143,2.15000006861574,-3.70273819255704));
#1330=CARTESIAN_POINT('',(-0.10000000319143,2.3500000749986,-3.55179713979773));
#1331=CARTESIAN_POINT('',(-0.10000000319143,2.98317230758903,-3.07393873822243));
#1332=CARTESIAN_POINT('',(-0.10000000319143,2.15000006861574,-1.89370078740135));
#1333=CARTESIAN_POINT('',(-0.10000000319143,2.15000006861574,-1.89370078740135));
#1334=CARTESIAN_POINT('',(-0.10000000319143,2.3500000749986,-1.89370078740135));
#1335=CARTESIAN_POINT('',(-0.10000000319143,2.20041877718375,-1.89370078740135));
#1336=CARTESIAN_POINT('',(-0.10000000319143,2.3500000749986,-1.89370078740135));
#1337=CARTESIAN_POINT('Origin',(0.10000000319143,2.15000006861574,-1.89370078740135));
#1338=CARTESIAN_POINT('',(0.10000000319143,2.15000006861574,-3.70273819255704));
#1339=CARTESIAN_POINT('',(0.0643300271214055,2.15000006861574,-3.70273819255704));
#1340=CARTESIAN_POINT('',(0.10000000319143,2.15000006861574,-1.89370078740135));
#1341=CARTESIAN_POINT('',(0.10000000319143,2.15000006861574,-1.89370078740135));
#1342=CARTESIAN_POINT('',(0.0500000015957149,2.15000006861574,-1.89370078740135));
#1343=CARTESIAN_POINT('Origin',(-0.10000000319143,2.3500000749986,-1.89370078740135));
#1344=CARTESIAN_POINT('',(0.10000000319143,2.3500000749986,-3.55179713979773));
#1345=CARTESIAN_POINT('',(-0.0356699760700243,2.3500000749986,-3.55179713979773));
#1346=CARTESIAN_POINT('',(0.10000000319143,2.3500000749986,-1.89370078740135));
#1347=CARTESIAN_POINT('',(-0.0500000015957149,2.3500000749986,-1.89370078740135));
#1348=CARTESIAN_POINT('',(0.10000000319143,2.3500000749986,-1.89370078740135));
#1349=CARTESIAN_POINT('Origin',(0.10000000319143,2.3500000749986,-1.89370078740135));
#1350=CARTESIAN_POINT('',(0.10000000319143,3.04688362097535,-3.02585547618092));
#1351=CARTESIAN_POINT('',(0.10000000319143,2.30041878037518,-1.89370078740135));
#1352=CARTESIAN_POINT('Origin',(0.250000007978574,2.49256812817243,-1.79370078740135));
#1353=CARTESIAN_POINT('',(0.250000007978574,2.0091068433311,-1.79370078740135));
#1354=CARTESIAN_POINT('',(0.250000007978574,2.49256812817243,-1.79370078740135));
#1355=CARTESIAN_POINT('',(0.250000007978574,2.0091068433311,-1.79370078740135));
#1356=CARTESIAN_POINT('',(0.250000007978574,2.0091068433311,-1.89370078740135));
#1357=CARTESIAN_POINT('',(0.250000007978574,2.0091068433311,-1.79370078740135));
#1358=CARTESIAN_POINT('',(0.250000007978574,2.49256812817243,-1.89370078740135));
#1359=CARTESIAN_POINT('',(0.250000007978574,2.0091068433311,-1.89370078740135));
#1360=CARTESIAN_POINT('',(0.250000007978574,2.49256812817243,-1.79370078740135));
#1361=CARTESIAN_POINT('Origin',(-0.250000007978574,2.49256812817243,-1.79370078740135));
#1362=CARTESIAN_POINT('',(-0.250000007978574,2.49256812817243,-1.79370078740135));
#1363=CARTESIAN_POINT('',(0.250000007978574,2.49256812817243,-1.79370078740135));
#1364=CARTESIAN_POINT('',(-0.250000007978574,2.49256812817243,-1.89370078740135));
#1365=CARTESIAN_POINT('',(0.250000007978574,2.49256812817243,-1.89370078740135));
#1366=CARTESIAN_POINT('',(-0.250000007978574,2.49256812817243,-1.79370078740135));
#1367=CARTESIAN_POINT('Origin',(-0.250000007978574,2.0091068433311,-1.79370078740135));
#1368=CARTESIAN_POINT('',(-0.250000007978574,2.0091068433311,-1.79370078740135));
#1369=CARTESIAN_POINT('',(-0.250000007978574,2.49256812817243,-1.79370078740135));
#1370=CARTESIAN_POINT('',(-0.250000007978574,2.0091068433311,-1.89370078740135));
#1371=CARTESIAN_POINT('',(-0.250000007978574,2.49256812817243,-1.89370078740135));
#1372=CARTESIAN_POINT('',(-0.250000007978574,2.0091068433311,-1.79370078740135));
#1373=CARTESIAN_POINT('Origin',(0.250000007978574,2.0091068433311,-1.79370078740135));
#1374=CARTESIAN_POINT('',(-0.250000007978574,2.0091068433311,-1.79370078740135));
#1375=CARTESIAN_POINT('',(-0.250000007978574,2.0091068433311,-1.89370078740135));
#1376=CARTESIAN_POINT('Origin',(0.,2.25083748575176,-1.89370078740135));
#1377=CARTESIAN_POINT('Origin',(0.,2.25083748575176,-1.79370078740135));
#1378=CARTESIAN_POINT('Origin',(-0.10000000319143,3.65000011648719,-1.89370078740135));
#1379=CARTESIAN_POINT('',(-0.10000000319143,3.65000011648719,-2.57068029686221));
#1380=CARTESIAN_POINT('',(-0.10000000319143,3.85000012287005,-2.4197392441029));
#1381=CARTESIAN_POINT('',(-0.10000000319143,3.46100715798645,-2.71331427291113));
#1382=CARTESIAN_POINT('',(-0.10000000319143,3.65000011648719,-1.89370078740135));
#1383=CARTESIAN_POINT('',(-0.10000000319143,3.65000011648719,-1.89370078740135));
#1384=CARTESIAN_POINT('',(-0.10000000319143,3.85000012287005,-1.89370078740135));
#1385=CARTESIAN_POINT('',(-0.10000000319143,3.7000001180829,-1.89370078740135));
#1386=CARTESIAN_POINT('',(-0.10000000319143,3.85000012287005,-1.89370078740135));
#1387=CARTESIAN_POINT('Origin',(0.10000000319143,3.65000011648719,-1.89370078740135));
#1388=CARTESIAN_POINT('',(0.10000000319143,3.65000011648719,-2.57068029686221));
#1389=CARTESIAN_POINT('',(0.0643300271214055,3.65000011648719,-2.57068029686221));
#1390=CARTESIAN_POINT('',(0.10000000319143,3.65000011648719,-1.89370078740135));
#1391=CARTESIAN_POINT('',(0.10000000319143,3.65000011648719,-1.89370078740135));
#1392=CARTESIAN_POINT('',(0.0500000015957149,3.65000011648719,-1.89370078740135));
#1393=CARTESIAN_POINT('Origin',(-0.10000000319143,3.85000012287005,-1.89370078740135));
#1394=CARTESIAN_POINT('',(0.10000000319143,3.85000012287005,-2.4197392441029));
#1395=CARTESIAN_POINT('',(-0.0356699760700243,3.85000012287005,-2.4197392441029));
#1396=CARTESIAN_POINT('',(0.10000000319143,3.85000012287005,-1.89370078740135));
#1397=CARTESIAN_POINT('',(-0.0500000015957149,3.85000012287005,-1.89370078740135));
#1398=CARTESIAN_POINT('',(0.10000000319143,3.85000012287005,-1.89370078740135));
#1399=CARTESIAN_POINT('Origin',(0.10000000319143,3.85000012287005,-1.89370078740135));
#1400=CARTESIAN_POINT('',(0.10000000319143,3.52471847137278,-2.66523101086962));
#1401=CARTESIAN_POINT('',(0.10000000319143,3.80000012127433,-1.89370078740135));
#1402=CARTESIAN_POINT('Origin',(0.250000007978574,4.00000012765719,-1.79370078740135));
#1403=CARTESIAN_POINT('',(0.250000007978574,3.50000011170004,-1.79370078740135));
#1404=CARTESIAN_POINT('',(0.250000007978574,4.00000012765719,-1.79370078740135));
#1405=CARTESIAN_POINT('',(0.250000007978574,3.50000011170004,-1.79370078740135));
#1406=CARTESIAN_POINT('',(0.250000007978574,3.50000011170004,-1.89370078740135));
#1407=CARTESIAN_POINT('',(0.250000007978574,3.50000011170004,-1.79370078740135));
#1408=CARTESIAN_POINT('',(0.250000007978574,4.00000012765719,-1.89370078740135));
#1409=CARTESIAN_POINT('',(0.250000007978574,3.50000011170004,-1.89370078740135));
#1410=CARTESIAN_POINT('',(0.250000007978574,4.00000012765719,-1.79370078740135));
#1411=CARTESIAN_POINT('Origin',(-0.250000007978574,4.00000012765719,-1.79370078740135));
#1412=CARTESIAN_POINT('',(-0.250000007978574,4.00000012765719,-1.79370078740135));
#1413=CARTESIAN_POINT('',(0.250000007978574,4.00000012765719,-1.79370078740135));
#1414=CARTESIAN_POINT('',(-0.250000007978574,4.00000012765719,-1.89370078740135));
#1415=CARTESIAN_POINT('',(0.250000007978574,4.00000012765719,-1.89370078740135));
#1416=CARTESIAN_POINT('',(-0.250000007978574,4.00000012765719,-1.79370078740135));
#1417=CARTESIAN_POINT('Origin',(-0.250000007978574,3.50000011170004,-1.79370078740135));
#1418=CARTESIAN_POINT('',(-0.250000007978574,3.50000011170004,-1.79370078740135));
#1419=CARTESIAN_POINT('',(-0.250000007978574,4.00000012765719,-1.79370078740135));
#1420=CARTESIAN_POINT('',(-0.250000007978574,3.50000011170004,-1.89370078740135));
#1421=CARTESIAN_POINT('',(-0.250000007978574,4.00000012765719,-1.89370078740135));
#1422=CARTESIAN_POINT('',(-0.250000007978574,3.50000011170004,-1.79370078740135));
#1423=CARTESIAN_POINT('Origin',(0.250000007978574,3.50000011170004,-1.79370078740135));
#1424=CARTESIAN_POINT('',(-0.250000007978574,3.50000011170004,-1.79370078740135));
#1425=CARTESIAN_POINT('',(-0.250000007978574,3.50000011170004,-1.89370078740135));
#1426=CARTESIAN_POINT('Origin',(0.,3.75000011967862,-1.89370078740135));
#1427=CARTESIAN_POINT('Origin',(0.,3.75000011967862,-1.79370078740135));
#1428=CARTESIAN_POINT('Origin',(0.0262198474344707,1.44921400430837,-4.04370078740135));
#1429=CARTESIAN_POINT('',(1.54523878693593,1.53957414455599,-4.16342983590016));
#1430=CARTESIAN_POINT('',(1.54493403342395,1.44921400430837,-4.19370078740135));
#1431=CARTESIAN_POINT('Origin',(1.54493403342395,1.44921400430837,-4.04370078740135));
#1432=CARTESIAN_POINT('',(-1.49754422337032,1.53957414455599,-4.16342983590016));
#1433=CARTESIAN_POINT('',(0.0262198474344707,1.53957414455599,-4.16342983590016));
#1434=CARTESIAN_POINT('',(-1.49754422337032,1.44921400430837,-4.19370078740135));
#1435=CARTESIAN_POINT('Origin',(-1.49754422337032,1.44921400430837,-4.04370078740135));
#1436=CARTESIAN_POINT('',(0.0262198474344707,1.44921400430837,-4.19370078740135));
#1437=CARTESIAN_POINT('Origin',(0.0237796438175601,1.34943682778208,-4.19370078740135));
#1438=CARTESIAN_POINT('',(-1.49754422337032,1.19940914574821,-4.19370078740135));
#1439=CARTESIAN_POINT('',(-1.49754422337032,1.49946450981596,-4.19370078740135));
#1440=CARTESIAN_POINT('',(1.54442984068348,1.19940914574821,-4.19370078740135));
#1441=CARTESIAN_POINT('',(-1.49754422337032,1.19940914574821,-4.19370078740135));
#1442=CARTESIAN_POINT('',(1.54442984068348,1.29971965904516,-4.19370078740135));
#1443=CARTESIAN_POINT('',(1.54442984068348,1.29971965904516,-4.19370078740135));
#1444=CARTESIAN_POINT('',(1.54510351100544,1.49946450981596,-4.19370078740135));
#1445=CARTESIAN_POINT('Origin',(0.786797781101237,1.48271434131342,-4.14370078740135));
#1446=CARTESIAN_POINT('',(-1.49754422337032,1.48271434131342,-4.29370078740135));
#1447=CARTESIAN_POINT('',(-1.49754422337032,1.57307448156104,-4.26342983590016));
#1448=CARTESIAN_POINT('Origin',(-1.49754422337032,1.48271434131342,-4.14370078740135));
#1449=CARTESIAN_POINT('',(1.54514860298227,1.57307448156104,-4.26342983590016));
#1450=CARTESIAN_POINT('',(0.786797781101237,1.57307448156104,-4.26342983590016));
#1451=CARTESIAN_POINT('',(1.54510351100544,1.55913945426914,-4.27277131893239));
#1452=CARTESIAN_POINT('Origin',(1.54514860298227,1.48271434131342,-4.14370078740135));
#1453=CARTESIAN_POINT('',(1.54510351100544,1.48271434131342,-4.29370078740135));
#1454=CARTESIAN_POINT('Origin',(1.54510351100544,1.48271434131342,-4.14370078740135));
#1455=CARTESIAN_POINT('',(0.786797781101237,1.48271434131342,-4.29370078740135));
#1456=CARTESIAN_POINT('Origin',(-1.49754422337032,1.49946450981595,-4.19370078740134));
#1457=CARTESIAN_POINT('',(-1.49754422337032,1.19940914574821,-4.29370078740135));
#1458=CARTESIAN_POINT('',(-1.49754422337032,1.49946450981596,-4.29370078740135));
#1459=CARTESIAN_POINT('',(-1.49754422337032,1.19940914574821,-4.19370078740135));
#1460=CARTESIAN_POINT('',(-1.49754422337032,4.39353624692984,-2.00952968330294));
#1461=CARTESIAN_POINT('',(-1.49754422337032,4.39355257605142,-2.00951735962933));
#1462=CARTESIAN_POINT('',(-1.49754422337032,4.45377634042825,-2.08934904896881));
#1463=CARTESIAN_POINT('',(-1.49754422337032,4.39353624692984,-2.00952968330294));
#1464=CARTESIAN_POINT('',(-1.49754422337032,1.55970460331437,-4.27352015306721));
#1465=CARTESIAN_POINT('Origin',(1.54493551115109,1.44965215391724,-4.29370078740135));
#1466=CARTESIAN_POINT('',(1.54510351100544,1.44965215391724,-4.29370078740135));
#1467=CARTESIAN_POINT('',(1.54510351100544,1.50467837861581,-4.29370078740135));
#1468=CARTESIAN_POINT('',(1.54493551115109,1.44965215391724,-4.29370078740135));
#1469=CARTESIAN_POINT('',(1.54510351100544,1.44965215391724,-4.29370078740135));
#1470=CARTESIAN_POINT('',(1.54442984068348,1.29971965904516,-4.29370078740135));
#1471=CARTESIAN_POINT('',(1.54510351100544,1.49946450981596,-4.29370078740135));
#1472=CARTESIAN_POINT('',(1.54442984068348,1.19940914574821,-4.29370078740135));
#1473=CARTESIAN_POINT('',(1.54442984068348,1.29971965904516,-4.29370078740135));
#1474=CARTESIAN_POINT('',(-1.49754422337032,1.19940914574821,-4.29370078740135));
#1475=CARTESIAN_POINT('Origin',(1.54510351100544,1.55970460331437,-4.27352015306722));
#1476=CARTESIAN_POINT('',(1.54510351100544,1.49946450981595,-4.19370078740134));
#1477=CARTESIAN_POINT('',(1.54510351100544,1.49946450981595,-4.19370078740134));
#1478=CARTESIAN_POINT('',(1.54510351100544,1.41964514415008,-4.25394088089976));
#1479=CARTESIAN_POINT('',(1.54510351100544,1.49946450981595,-4.19370078740134));
#1480=CARTESIAN_POINT('',(1.54510351100544,1.41964514415008,-4.25394088089976));
#1481=CARTESIAN_POINT('Origin',(1.54510351100544,1.41964514415008,-4.25394088089976));
#1482=CARTESIAN_POINT('',(1.54483430788176,1.41964514415008,-4.25394088089976));
#1483=CARTESIAN_POINT('',(-1.49754422337032,1.41964514415008,-4.25394088089976));
#1484=CARTESIAN_POINT('',(1.54483430899296,1.41964547362428,-4.25394131745986));
#1485=CARTESIAN_POINT('Origin',(0.0286600510513812,3.00674047187131,-3.18143460101802));
#1486=CARTESIAN_POINT('',(1.55486373943769,4.45369254687427,-2.08941228840306));
#1487=CARTESIAN_POINT('',(1.55486426945216,4.45379266954983,-2.0893367252952));
#1488=CARTESIAN_POINT('',(1.55486373943769,4.45369254687427,-2.08941228840306));
#1489=CARTESIAN_POINT('Origin',(1.54510351100544,1.49946450981595,-4.19370078740134));
#1490=CARTESIAN_POINT('',(1.54510351100544,1.49946450981595,-4.19370078740134));
#1491=CARTESIAN_POINT('Origin',(1.54510351100544,1.49946450981596,-4.19370078740135));
#1492=CARTESIAN_POINT('',(1.55486426945216,4.39355257605142,-2.00951735962933));
#1493=CARTESIAN_POINT('',(1.54442984068348,1.29971965904516,-4.19370078740135));
#1494=CARTESIAN_POINT('Origin',(1.54442984068348,1.19940914574821,-4.19370078740135));
#1495=CARTESIAN_POINT('',(1.54442984068348,1.19940914574821,-4.19370078740135));
#1496=CARTESIAN_POINT('Origin',(1.54442984068348,1.29971965904516,-4.19370078740135));
#1497=CARTESIAN_POINT('Origin',(-1.49754422337032,4.39353624692984,-2.00952968330294));
#1498=CARTESIAN_POINT('',(1.55486373943769,4.39345245337586,-2.00959292273719));
#1499=CARTESIAN_POINT('',(1.55486373943769,4.39345245337586,-2.00959292273719));
#1500=CARTESIAN_POINT('',(1.55486373943769,4.39345245337586,-2.00959292273719));
#1501=CARTESIAN_POINT('Origin',(1.5548639317716,4.39345245296258,-2.00959292304909));
#1502=CARTESIAN_POINT('',(1.55486426945216,4.39355257605142,-2.00951735962933));
#1503=CARTESIAN_POINT('Origin',(0.0286600510513812,2.9465003783729,-3.10161523535214));
#1504=UNCERTAINTY_MEASURE_WITH_UNIT(LENGTH_MEASURE(0.000393700787401575),
#1509,'DISTANCE_ACCURACY_VALUE',
'Maximum model space distance between geometric entities at asserted c
onnectivities');
#1505=UNCERTAINTY_MEASURE_WITH_UNIT(LENGTH_MEASURE(0.000393700787401575),
#1509,'DISTANCE_ACCURACY_VALUE',
'Maximum model space distance between geometric entities at asserted c
onnectivities');
#1506=(
GEOMETRIC_REPRESENTATION_CONTEXT(3)
GLOBAL_UNCERTAINTY_ASSIGNED_CONTEXT((#1504))
GLOBAL_UNIT_ASSIGNED_CONTEXT((#1509,#1513,#1514))
REPRESENTATION_CONTEXT('','3D')
);
#1507=(
GEOMETRIC_REPRESENTATION_CONTEXT(3)
GLOBAL_UNCERTAINTY_ASSIGNED_CONTEXT((#1505))
GLOBAL_UNIT_ASSIGNED_CONTEXT((#1509,#1513,#1514))
REPRESENTATION_CONTEXT('','3D')
);
#1508=DIMENSIONAL_EXPONENTS(1.,0.,0.,0.,0.,0.,0.);
#1509=(
CONVERSION_BASED_UNIT('inch',#1512)
LENGTH_UNIT()
NAMED_UNIT(#1508)
);
#1510=(
LENGTH_UNIT()
NAMED_UNIT(*)
SI_UNIT(.MILLI.,.METRE.)
);
#1511=(
LENGTH_UNIT()
NAMED_UNIT(*)
SI_UNIT($,.METRE.)
);
#1512=LENGTH_MEASURE_WITH_UNIT(LENGTH_MEASURE(25.4),#1510);
#1513=(
NAMED_UNIT(*)
PLANE_ANGLE_UNIT()
SI_UNIT($,.RADIAN.)
);
#1514=(
NAMED_UNIT(*)
SI_UNIT($,.STERADIAN.)
SOLID_ANGLE_UNIT()
);
#1515=SHAPE_DEFINITION_REPRESENTATION(#1516,#1517);
#1516=PRODUCT_DEFINITION_SHAPE('',$,#1519);
#1517=SHAPE_REPRESENTATION('',(#932),#1506);
#1518=PRODUCT_DEFINITION_CONTEXT('part definition',#1523,'design');
#1519=PRODUCT_DEFINITION('External1','(Unsaved)',#1520,#1518);
#1520=PRODUCT_DEFINITION_FORMATION('',$,#1525);
#1521=PRODUCT_RELATED_PRODUCT_CATEGORY('(Unsaved)','(Unsaved)',(#1525));
#1522=APPLICATION_PROTOCOL_DEFINITION('international standard',
'automotive_design',2009,#1523);
#1523=APPLICATION_CONTEXT(
'Core Data for Automotive Mechanical Design Process');
#1524=PRODUCT_CONTEXT('part definition',#1523,'mechanical');
#1525=PRODUCT('External1','(Unsaved)',$,(#1524));
#1526=PRESENTATION_STYLE_ASSIGNMENT((#1528));
#1527=PRESENTATION_STYLE_ASSIGNMENT((#1529));
#1528=SURFACE_STYLE_USAGE(.BOTH.,#1530);
#1529=SURFACE_STYLE_USAGE(.BOTH.,#1531);
#1530=SURFACE_SIDE_STYLE('',(#1532));
#1531=SURFACE_SIDE_STYLE('',(#1533));
#1532=SURFACE_STYLE_FILL_AREA(#1534);
#1533=SURFACE_STYLE_FILL_AREA(#1535);
#1534=FILL_AREA_STYLE('Steel - Satin',(#1536));
#1535=FILL_AREA_STYLE('Opaque(160,160,160)',(#1537));
#1536=FILL_AREA_STYLE_COLOUR('Steel - Satin',#1538);
#1537=FILL_AREA_STYLE_COLOUR('Opaque(160,160,160)',#1539);
#1538=COLOUR_RGB('Steel - Satin',0.627450980392157,0.627450980392157,0.627450980392157);
#1539=COLOUR_RGB('Opaque(160,160,160)',0.627450980392157,0.627450980392157,
0.627450980392157);
ENDSEC;
END-ISO-10303-21;
