ISO-10303-21;
HEADER;
/* Generated by software containing ST-Developer
 * from STEP Tools, Inc. (www.steptools.com) 
 */

FILE_DESCRIPTION(
/* description */ (''),
/* implementation_level */ '2;1');

FILE_NAME(
/* name */ 'Case.step',
/* time_stamp */ '2026-04-27T21:02:20-05:00',
/* author */ (''),
/* organization */ (''),
/* preprocessor_version */ 'ST-DEVELOPER v20.1',
/* originating_system */ 'Autodesk Translation Framework v14.24.0.0',
/* authorisation */ '');

FILE_SCHEMA (('AUTOMOTIVE_DESIGN { 1 0 10303 214 3 1 1 }'));
ENDSEC;

DATA;
#10=MECHANICAL_DESIGN_GEOMETRIC_PRESENTATION_REPRESENTATION('',(#13),#1623);
#11=SHAPE_REPRESENTATION_RELATIONSHIP('SRR','None',#1633,#12);
#12=ADVANCED_BREP_SHAPE_REPRESENTATION('',(#14),#1622);
#13=STYLED_ITEM('',(#1642),#14);
#14=MANIFOLD_SOLID_BREP('Body1',#1010);
#15=ELLIPSE('',#1044,0.0353553390593269,0.025);
#16=ELLIPSE('',#1045,0.0353553390593273,0.025);
#17=ELLIPSE('',#1047,0.0353553390593275,0.025);
#18=ELLIPSE('',#1049,0.0353553390593274,0.025);
#19=ELLIPSE('',#1055,0.200001137476441,0.2);
#20=ELLIPSE('',#1056,0.200001785357277,0.2);
#21=ELLIPSE('',#1057,0.200001137476441,0.2);
#22=CYLINDRICAL_SURFACE('',#1043,0.025);
#23=CYLINDRICAL_SURFACE('',#1046,0.025);
#24=CYLINDRICAL_SURFACE('',#1048,0.025);
#25=CYLINDRICAL_SURFACE('',#1050,0.025);
#26=CYLINDRICAL_SURFACE('',#1054,0.2);
#27=FACE_BOUND('',#89,.T.);
#28=FACE_BOUND('',#110,.T.);
#29=FACE_BOUND('',#134,.T.);
#30=FACE_OUTER_BOUND('',#83,.T.);
#31=FACE_OUTER_BOUND('',#84,.T.);
#32=FACE_OUTER_BOUND('',#85,.T.);
#33=FACE_OUTER_BOUND('',#86,.T.);
#34=FACE_OUTER_BOUND('',#87,.T.);
#35=FACE_OUTER_BOUND('',#88,.T.);
#36=FACE_OUTER_BOUND('',#90,.T.);
#37=FACE_OUTER_BOUND('',#91,.T.);
#38=FACE_OUTER_BOUND('',#92,.T.);
#39=FACE_OUTER_BOUND('',#93,.T.);
#40=FACE_OUTER_BOUND('',#94,.T.);
#41=FACE_OUTER_BOUND('',#95,.T.);
#42=FACE_OUTER_BOUND('',#96,.T.);
#43=FACE_OUTER_BOUND('',#97,.T.);
#44=FACE_OUTER_BOUND('',#98,.T.);
#45=FACE_OUTER_BOUND('',#99,.T.);
#46=FACE_OUTER_BOUND('',#100,.T.);
#47=FACE_OUTER_BOUND('',#101,.T.);
#48=FACE_OUTER_BOUND('',#102,.T.);
#49=FACE_OUTER_BOUND('',#103,.T.);
#50=FACE_OUTER_BOUND('',#104,.T.);
#51=FACE_OUTER_BOUND('',#105,.T.);
#52=FACE_OUTER_BOUND('',#106,.T.);
#53=FACE_OUTER_BOUND('',#107,.T.);
#54=FACE_OUTER_BOUND('',#108,.T.);
#55=FACE_OUTER_BOUND('',#109,.T.);
#56=FACE_OUTER_BOUND('',#111,.T.);
#57=FACE_OUTER_BOUND('',#112,.T.);
#58=FACE_OUTER_BOUND('',#113,.T.);
#59=FACE_OUTER_BOUND('',#114,.T.);
#60=FACE_OUTER_BOUND('',#115,.T.);
#61=FACE_OUTER_BOUND('',#116,.T.);
#62=FACE_OUTER_BOUND('',#117,.T.);
#63=FACE_OUTER_BOUND('',#118,.T.);
#64=FACE_OUTER_BOUND('',#119,.T.);
#65=FACE_OUTER_BOUND('',#120,.T.);
#66=FACE_OUTER_BOUND('',#121,.T.);
#67=FACE_OUTER_BOUND('',#122,.T.);
#68=FACE_OUTER_BOUND('',#123,.T.);
#69=FACE_OUTER_BOUND('',#124,.T.);
#70=FACE_OUTER_BOUND('',#125,.T.);
#71=FACE_OUTER_BOUND('',#126,.T.);
#72=FACE_OUTER_BOUND('',#127,.T.);
#73=FACE_OUTER_BOUND('',#128,.T.);
#74=FACE_OUTER_BOUND('',#129,.T.);
#75=FACE_OUTER_BOUND('',#130,.T.);
#76=FACE_OUTER_BOUND('',#131,.T.);
#77=FACE_OUTER_BOUND('',#132,.T.);
#78=FACE_OUTER_BOUND('',#133,.T.);
#79=FACE_OUTER_BOUND('',#135,.T.);
#80=FACE_OUTER_BOUND('',#136,.T.);
#81=FACE_OUTER_BOUND('',#137,.T.);
#82=FACE_OUTER_BOUND('',#138,.T.);
#83=EDGE_LOOP('',(#631,#632,#633,#634));
#84=EDGE_LOOP('',(#635,#636,#637,#638));
#85=EDGE_LOOP('',(#639,#640,#641,#642));
#86=EDGE_LOOP('',(#643,#644,#645,#646,#647,#648,#649,#650));
#87=EDGE_LOOP('',(#651,#652,#653,#654,#655,#656));
#88=EDGE_LOOP('',(#657,#658,#659,#660));
#89=EDGE_LOOP('',(#661,#662,#663,#664,#665,#666));
#90=EDGE_LOOP('',(#667,#668,#669,#670));
#91=EDGE_LOOP('',(#671,#672,#673,#674));
#92=EDGE_LOOP('',(#675,#676,#677,#678,#679));
#93=EDGE_LOOP('',(#680,#681,#682,#683));
#94=EDGE_LOOP('',(#684,#685,#686,#687,#688));
#95=EDGE_LOOP('',(#689,#690,#691,#692));
#96=EDGE_LOOP('',(#693,#694,#695,#696,#697,#698,#699,#700));
#97=EDGE_LOOP('',(#701,#702,#703,#704,#705,#706));
#98=EDGE_LOOP('',(#707,#708,#709,#710,#711));
#99=EDGE_LOOP('',(#712,#713,#714,#715));
#100=EDGE_LOOP('',(#716,#717,#718,#719));
#101=EDGE_LOOP('',(#720,#721,#722,#723));
#102=EDGE_LOOP('',(#724,#725,#726,#727));
#103=EDGE_LOOP('',(#728,#729,#730,#731));
#104=EDGE_LOOP('',(#732,#733,#734,#735));
#105=EDGE_LOOP('',(#736,#737,#738,#739));
#106=EDGE_LOOP('',(#740,#741,#742,#743));
#107=EDGE_LOOP('',(#744,#745,#746,#747));
#108=EDGE_LOOP('',(#748,#749,#750,#751));
#109=EDGE_LOOP('',(#752,#753,#754,#755,#756,#757));
#110=EDGE_LOOP('',(#758,#759,#760,#761));
#111=EDGE_LOOP('',(#762,#763,#764,#765,#766,#767,#768));
#112=EDGE_LOOP('',(#769,#770,#771,#772));
#113=EDGE_LOOP('',(#773,#774,#775,#776,#777));
#114=EDGE_LOOP('',(#778,#779,#780,#781,#782,#783,#784,#785,#786));
#115=EDGE_LOOP('',(#787,#788,#789,#790,#791));
#116=EDGE_LOOP('',(#792,#793,#794,#795,#796,#797,#798));
#117=EDGE_LOOP('',(#799,#800,#801,#802));
#118=EDGE_LOOP('',(#803,#804,#805,#806));
#119=EDGE_LOOP('',(#807,#808,#809,#810));
#120=EDGE_LOOP('',(#811,#812,#813,#814));
#121=EDGE_LOOP('',(#815,#816,#817,#818));
#122=EDGE_LOOP('',(#819,#820,#821,#822));
#123=EDGE_LOOP('',(#823,#824,#825));
#124=EDGE_LOOP('',(#826,#827,#828,#829,#830));
#125=EDGE_LOOP('',(#831,#832,#833,#834,#835,#836,#837,#838,#839,#840));
#126=EDGE_LOOP('',(#841,#842,#843,#844));
#127=EDGE_LOOP('',(#845,#846,#847,#848,#849));
#128=EDGE_LOOP('',(#850,#851,#852,#853,#854,#855));
#129=EDGE_LOOP('',(#856,#857,#858,#859,#860,#861,#862,#863,#864));
#130=EDGE_LOOP('',(#865,#866,#867,#868,#869));
#131=EDGE_LOOP('',(#870,#871,#872,#873,#874));
#132=EDGE_LOOP('',(#875,#876,#877,#878,#879,#880,#881,#882,#883));
#133=EDGE_LOOP('',(#884,#885,#886,#887));
#134=EDGE_LOOP('',(#888,#889,#890,#891));
#135=EDGE_LOOP('',(#892,#893,#894,#895,#896));
#136=EDGE_LOOP('',(#897,#898,#899,#900));
#137=EDGE_LOOP('',(#901,#902,#903,#904));
#138=EDGE_LOOP('',(#905,#906,#907,#908));
#139=LINE('',#1342,#271);
#140=LINE('',#1344,#272);
#141=LINE('',#1346,#273);
#142=LINE('',#1347,#274);
#143=LINE('',#1350,#275);
#144=LINE('',#1352,#276);
#145=LINE('',#1353,#277);
#146=LINE('',#1356,#278);
#147=LINE('',#1358,#279);
#148=LINE('',#1359,#280);
#149=LINE('',#1362,#281);
#150=LINE('',#1364,#282);
#151=LINE('',#1366,#283);
#152=LINE('',#1368,#284);
#153=LINE('',#1369,#285);
#154=LINE('',#1372,#286);
#155=LINE('',#1374,#287);
#156=LINE('',#1376,#288);
#157=LINE('',#1377,#289);
#158=LINE('',#1381,#290);
#159=LINE('',#1383,#291);
#160=LINE('',#1385,#292);
#161=LINE('',#1386,#293);
#162=LINE('',#1389,#294);
#163=LINE('',#1391,#295);
#164=LINE('',#1393,#296);
#165=LINE('',#1395,#297);
#166=LINE('',#1397,#298);
#167=LINE('',#1398,#299);
#168=LINE('',#1402,#300);
#169=LINE('',#1404,#301);
#170=LINE('',#1405,#302);
#171=LINE('',#1406,#303);
#172=LINE('',#1409,#304);
#173=LINE('',#1410,#305);
#174=LINE('',#1412,#306);
#175=LINE('',#1413,#307);
#176=LINE('',#1416,#308);
#177=LINE('',#1417,#309);
#178=LINE('',#1418,#310);
#179=LINE('',#1420,#311);
#180=LINE('',#1421,#312);
#181=LINE('',#1424,#313);
#182=LINE('',#1425,#314);
#183=LINE('',#1430,#315);
#184=LINE('',#1432,#316);
#185=LINE('',#1434,#317);
#186=LINE('',#1436,#318);
#187=LINE('',#1437,#319);
#188=LINE('',#1440,#320);
#189=LINE('',#1442,#321);
#190=LINE('',#1443,#322);
#191=LINE('',#1446,#323);
#192=LINE('',#1447,#324);
#193=LINE('',#1453,#325);
#194=LINE('',#1457,#326);
#195=LINE('',#1461,#327);
#196=LINE('',#1464,#328);
#197=LINE('',#1467,#329);
#198=LINE('',#1470,#330);
#199=LINE('',#1472,#331);
#200=LINE('',#1473,#332);
#201=LINE('',#1476,#333);
#202=LINE('',#1478,#334);
#203=LINE('',#1479,#335);
#204=LINE('',#1482,#336);
#205=LINE('',#1483,#337);
#206=LINE('',#1487,#338);
#207=LINE('',#1489,#339);
#208=LINE('',#1490,#340);
#209=LINE('',#1491,#341);
#210=LINE('',#1496,#342);
#211=LINE('',#1498,#343);
#212=LINE('',#1502,#344);
#213=LINE('',#1506,#345);
#214=LINE('',#1507,#346);
#215=LINE('',#1510,#347);
#216=LINE('',#1512,#348);
#217=LINE('',#1513,#349);
#218=LINE('',#1516,#350);
#219=LINE('',#1518,#351);
#220=LINE('',#1520,#352);
#221=LINE('',#1522,#353);
#222=LINE('',#1524,#354);
#223=LINE('',#1526,#355);
#224=LINE('',#1527,#356);
#225=LINE('',#1530,#357);
#226=LINE('',#1532,#358);
#227=LINE('',#1533,#359);
#228=LINE('',#1536,#360);
#229=LINE('',#1538,#361);
#230=LINE('',#1540,#362);
#231=LINE('',#1541,#363);
#232=LINE('',#1544,#364);
#233=LINE('',#1546,#365);
#234=LINE('',#1547,#366);
#235=LINE('',#1549,#367);
#236=LINE('',#1552,#368);
#237=LINE('',#1553,#369);
#238=LINE('',#1554,#370);
#239=LINE('',#1558,#371);
#240=LINE('',#1560,#372);
#241=LINE('',#1561,#373);
#242=LINE('',#1563,#374);
#243=LINE('',#1565,#375);
#244=LINE('',#1568,#376);
#245=LINE('',#1570,#377);
#246=LINE('',#1572,#378);
#247=LINE('',#1573,#379);
#248=LINE('',#1576,#380);
#249=LINE('',#1577,#381);
#250=LINE('',#1580,#382);
#251=LINE('',#1581,#383);
#252=LINE('',#1584,#384);
#253=LINE('',#1585,#385);
#254=LINE('',#1587,#386);
#255=LINE('',#1588,#387);
#256=LINE('',#1591,#388);
#257=LINE('',#1593,#389);
#258=LINE('',#1595,#390);
#259=LINE('',#1597,#391);
#260=LINE('',#1598,#392);
#261=LINE('',#1601,#393);
#262=LINE('',#1603,#394);
#263=LINE('',#1604,#395);
#264=LINE('',#1606,#396);
#265=LINE('',#1609,#397);
#266=LINE('',#1610,#398);
#267=LINE('',#1612,#399);
#268=LINE('',#1613,#400);
#269=LINE('',#1615,#401);
#270=LINE('',#1618,#402);
#271=VECTOR('',#1088,0.393700787401575);
#272=VECTOR('',#1089,0.393700787401575);
#273=VECTOR('',#1090,0.393700787401575);
#274=VECTOR('',#1091,0.393700787401575);
#275=VECTOR('',#1094,0.393700787401575);
#276=VECTOR('',#1095,0.393700787401575);
#277=VECTOR('',#1096,0.393700787401575);
#278=VECTOR('',#1099,0.393700787401575);
#279=VECTOR('',#1100,0.393700787401575);
#280=VECTOR('',#1101,0.393700787401575);
#281=VECTOR('',#1104,0.393700787401575);
#282=VECTOR('',#1105,0.393700787401575);
#283=VECTOR('',#1106,0.393700787401575);
#284=VECTOR('',#1107,0.393700787401575);
#285=VECTOR('',#1108,0.393700787401575);
#286=VECTOR('',#1111,0.393700787401575);
#287=VECTOR('',#1112,0.393700787401575);
#288=VECTOR('',#1113,0.393700787401575);
#289=VECTOR('',#1114,0.393700787401575);
#290=VECTOR('',#1117,0.393700787401575);
#291=VECTOR('',#1118,0.393700787401575);
#292=VECTOR('',#1119,0.393700787401575);
#293=VECTOR('',#1120,0.393700787401575);
#294=VECTOR('',#1121,0.393700787401575);
#295=VECTOR('',#1122,0.393700787401575);
#296=VECTOR('',#1123,0.393700787401575);
#297=VECTOR('',#1124,0.393700787401575);
#298=VECTOR('',#1125,0.393700787401575);
#299=VECTOR('',#1126,0.393700787401575);
#300=VECTOR('',#1129,0.393700787401575);
#301=VECTOR('',#1130,0.393700787401575);
#302=VECTOR('',#1131,0.393700787401575);
#303=VECTOR('',#1132,0.393700787401575);
#304=VECTOR('',#1135,0.393700787401575);
#305=VECTOR('',#1136,0.393700787401575);
#306=VECTOR('',#1139,0.393700787401575);
#307=VECTOR('',#1140,0.393700787401575);
#308=VECTOR('',#1143,0.393700787401575);
#309=VECTOR('',#1144,0.393700787401575);
#310=VECTOR('',#1145,0.393700787401575);
#311=VECTOR('',#1148,0.393700787401575);
#312=VECTOR('',#1149,0.393700787401575);
#313=VECTOR('',#1154,0.393700787401575);
#314=VECTOR('',#1155,0.393700787401575);
#315=VECTOR('',#1160,0.393700787401575);
#316=VECTOR('',#1161,0.393700787401575);
#317=VECTOR('',#1162,0.393700787401575);
#318=VECTOR('',#1163,0.393700787401575);
#319=VECTOR('',#1164,0.393700787401575);
#320=VECTOR('',#1167,0.393700787401575);
#321=VECTOR('',#1168,0.393700787401575);
#322=VECTOR('',#1169,0.393700787401575);
#323=VECTOR('',#1172,0.393700787401575);
#324=VECTOR('',#1173,0.393700787401575);
#325=VECTOR('',#1180,0.393700787401575);
#326=VECTOR('',#1183,0.393700787401575);
#327=VECTOR('',#1188,0.393700787401575);
#328=VECTOR('',#1191,0.393700787401575);
#329=VECTOR('',#1194,0.393700787401575);
#330=VECTOR('',#1197,0.393700787401575);
#331=VECTOR('',#1200,0.393700787401575);
#332=VECTOR('',#1201,0.393700787401575);
#333=VECTOR('',#1204,0.393700787401575);
#334=VECTOR('',#1205,0.393700787401575);
#335=VECTOR('',#1206,0.393700787401575);
#336=VECTOR('',#1209,0.393700787401575);
#337=VECTOR('',#1210,0.393700787401575);
#338=VECTOR('',#1213,0.2);
#339=VECTOR('',#1214,0.393700787401575);
#340=VECTOR('',#1215,0.393700787401575);
#341=VECTOR('',#1216,0.393700787401575);
#342=VECTOR('',#1221,0.2);
#343=VECTOR('',#1222,0.393700787401575);
#344=VECTOR('',#1225,0.393700787401575);
#345=VECTOR('',#1230,0.393700787401575);
#346=VECTOR('',#1231,0.393700787401575);
#347=VECTOR('',#1234,0.393700787401575);
#348=VECTOR('',#1235,0.393700787401575);
#349=VECTOR('',#1236,0.393700787401575);
#350=VECTOR('',#1239,0.393700787401575);
#351=VECTOR('',#1240,0.393700787401575);
#352=VECTOR('',#1241,0.393700787401575);
#353=VECTOR('',#1242,0.393700787401575);
#354=VECTOR('',#1243,0.393700787401575);
#355=VECTOR('',#1244,0.393700787401575);
#356=VECTOR('',#1245,0.393700787401575);
#357=VECTOR('',#1248,0.393700787401575);
#358=VECTOR('',#1249,0.393700787401575);
#359=VECTOR('',#1250,0.393700787401575);
#360=VECTOR('',#1253,0.393700787401575);
#361=VECTOR('',#1254,0.393700787401575);
#362=VECTOR('',#1255,0.393700787401575);
#363=VECTOR('',#1256,0.393700787401575);
#364=VECTOR('',#1259,0.393700787401575);
#365=VECTOR('',#1260,0.393700787401575);
#366=VECTOR('',#1261,0.393700787401575);
#367=VECTOR('',#1264,0.393700787401575);
#368=VECTOR('',#1267,0.393700787401575);
#369=VECTOR('',#1268,0.393700787401575);
#370=VECTOR('',#1269,0.393700787401575);
#371=VECTOR('',#1274,0.393700787401575);
#372=VECTOR('',#1275,0.393700787401575);
#373=VECTOR('',#1276,0.393700787401575);
#374=VECTOR('',#1279,0.393700787401575);
#375=VECTOR('',#1282,0.393700787401575);
#376=VECTOR('',#1285,0.393700787401575);
#377=VECTOR('',#1286,0.393700787401575);
#378=VECTOR('',#1287,0.393700787401575);
#379=VECTOR('',#1288,0.393700787401575);
#380=VECTOR('',#1291,0.393700787401575);
#381=VECTOR('',#1292,0.393700787401575);
#382=VECTOR('',#1295,0.393700787401575);
#383=VECTOR('',#1296,0.393700787401575);
#384=VECTOR('',#1299,0.393700787401575);
#385=VECTOR('',#1300,0.393700787401575);
#386=VECTOR('',#1303,0.393700787401575);
#387=VECTOR('',#1304,0.393700787401575);
#388=VECTOR('',#1307,0.393700787401575);
#389=VECTOR('',#1308,0.393700787401575);
#390=VECTOR('',#1309,0.393700787401575);
#391=VECTOR('',#1310,0.393700787401575);
#392=VECTOR('',#1311,0.393700787401575);
#393=VECTOR('',#1316,0.393700787401575);
#394=VECTOR('',#1317,0.393700787401575);
#395=VECTOR('',#1318,0.393700787401575);
#396=VECTOR('',#1321,0.393700787401575);
#397=VECTOR('',#1324,0.393700787401575);
#398=VECTOR('',#1325,0.393700787401575);
#399=VECTOR('',#1326,0.393700787401575);
#400=VECTOR('',#1327,0.393700787401575);
#401=VECTOR('',#1330,0.393700787401575);
#402=VECTOR('',#1335,0.393700787401575);
#403=VERTEX_POINT('',#1340);
#404=VERTEX_POINT('',#1341);
#405=VERTEX_POINT('',#1343);
#406=VERTEX_POINT('',#1345);
#407=VERTEX_POINT('',#1349);
#408=VERTEX_POINT('',#1351);
#409=VERTEX_POINT('',#1355);
#410=VERTEX_POINT('',#1357);
#411=VERTEX_POINT('',#1361);
#412=VERTEX_POINT('',#1363);
#413=VERTEX_POINT('',#1365);
#414=VERTEX_POINT('',#1367);
#415=VERTEX_POINT('',#1371);
#416=VERTEX_POINT('',#1373);
#417=VERTEX_POINT('',#1375);
#418=VERTEX_POINT('',#1379);
#419=VERTEX_POINT('',#1380);
#420=VERTEX_POINT('',#1382);
#421=VERTEX_POINT('',#1384);
#422=VERTEX_POINT('',#1387);
#423=VERTEX_POINT('',#1388);
#424=VERTEX_POINT('',#1390);
#425=VERTEX_POINT('',#1392);
#426=VERTEX_POINT('',#1394);
#427=VERTEX_POINT('',#1396);
#428=VERTEX_POINT('',#1400);
#429=VERTEX_POINT('',#1401);
#430=VERTEX_POINT('',#1403);
#431=VERTEX_POINT('',#1408);
#432=VERTEX_POINT('',#1415);
#433=VERTEX_POINT('',#1428);
#434=VERTEX_POINT('',#1429);
#435=VERTEX_POINT('',#1431);
#436=VERTEX_POINT('',#1433);
#437=VERTEX_POINT('',#1435);
#438=VERTEX_POINT('',#1439);
#439=VERTEX_POINT('',#1441);
#440=VERTEX_POINT('',#1445);
#441=VERTEX_POINT('',#1451);
#442=VERTEX_POINT('',#1452);
#443=VERTEX_POINT('',#1454);
#444=VERTEX_POINT('',#1456);
#445=VERTEX_POINT('',#1460);
#446=VERTEX_POINT('',#1462);
#447=VERTEX_POINT('',#1466);
#448=VERTEX_POINT('',#1468);
#449=VERTEX_POINT('',#1475);
#450=VERTEX_POINT('',#1477);
#451=VERTEX_POINT('',#1481);
#452=VERTEX_POINT('',#1485);
#453=VERTEX_POINT('',#1486);
#454=VERTEX_POINT('',#1488);
#455=VERTEX_POINT('',#1493);
#456=VERTEX_POINT('',#1495);
#457=VERTEX_POINT('',#1497);
#458=VERTEX_POINT('',#1499);
#459=VERTEX_POINT('',#1501);
#460=VERTEX_POINT('',#1505);
#461=VERTEX_POINT('',#1509);
#462=VERTEX_POINT('',#1511);
#463=VERTEX_POINT('',#1515);
#464=VERTEX_POINT('',#1517);
#465=VERTEX_POINT('',#1519);
#466=VERTEX_POINT('',#1521);
#467=VERTEX_POINT('',#1523);
#468=VERTEX_POINT('',#1525);
#469=VERTEX_POINT('',#1529);
#470=VERTEX_POINT('',#1531);
#471=VERTEX_POINT('',#1535);
#472=VERTEX_POINT('',#1537);
#473=VERTEX_POINT('',#1539);
#474=VERTEX_POINT('',#1543);
#475=VERTEX_POINT('',#1545);
#476=VERTEX_POINT('',#1551);
#477=VERTEX_POINT('',#1557);
#478=VERTEX_POINT('',#1559);
#479=VERTEX_POINT('',#1567);
#480=VERTEX_POINT('',#1569);
#481=VERTEX_POINT('',#1571);
#482=VERTEX_POINT('',#1575);
#483=VERTEX_POINT('',#1579);
#484=VERTEX_POINT('',#1583);
#485=VERTEX_POINT('',#1590);
#486=VERTEX_POINT('',#1592);
#487=VERTEX_POINT('',#1594);
#488=VERTEX_POINT('',#1596);
#489=VERTEX_POINT('',#1602);
#490=VERTEX_POINT('',#1608);
#491=VERTEX_POINT('',#1611);
#492=EDGE_CURVE('',#403,#404,#139,.T.);
#493=EDGE_CURVE('',#405,#403,#140,.T.);
#494=EDGE_CURVE('',#406,#405,#141,.T.);
#495=EDGE_CURVE('',#406,#404,#142,.T.);
#496=EDGE_CURVE('',#404,#407,#143,.T.);
#497=EDGE_CURVE('',#408,#406,#144,.T.);
#498=EDGE_CURVE('',#407,#408,#145,.T.);
#499=EDGE_CURVE('',#409,#403,#146,.T.);
#500=EDGE_CURVE('',#410,#409,#147,.T.);
#501=EDGE_CURVE('',#405,#410,#148,.T.);
#502=EDGE_CURVE('',#411,#407,#149,.T.);
#503=EDGE_CURVE('',#412,#411,#150,.T.);
#504=EDGE_CURVE('',#413,#412,#151,.T.);
#505=EDGE_CURVE('',#413,#414,#152,.T.);
#506=EDGE_CURVE('',#409,#414,#153,.T.);
#507=EDGE_CURVE('',#408,#415,#154,.T.);
#508=EDGE_CURVE('',#415,#416,#155,.T.);
#509=EDGE_CURVE('',#416,#417,#156,.T.);
#510=EDGE_CURVE('',#417,#411,#157,.T.);
#511=EDGE_CURVE('',#418,#419,#158,.T.);
#512=EDGE_CURVE('',#420,#418,#159,.T.);
#513=EDGE_CURVE('',#421,#420,#160,.T.);
#514=EDGE_CURVE('',#419,#421,#161,.T.);
#515=EDGE_CURVE('',#422,#423,#162,.T.);
#516=EDGE_CURVE('',#423,#424,#163,.T.);
#517=EDGE_CURVE('',#424,#425,#164,.T.);
#518=EDGE_CURVE('',#426,#425,#165,.T.);
#519=EDGE_CURVE('',#426,#427,#166,.T.);
#520=EDGE_CURVE('',#427,#422,#167,.T.);
#521=EDGE_CURVE('',#428,#429,#168,.T.);
#522=EDGE_CURVE('',#430,#429,#169,.T.);
#523=EDGE_CURVE('',#426,#430,#170,.T.);
#524=EDGE_CURVE('',#426,#428,#171,.T.);
#525=EDGE_CURVE('',#431,#430,#172,.T.);
#526=EDGE_CURVE('',#427,#431,#173,.T.);
#527=EDGE_CURVE('',#414,#431,#174,.T.);
#528=EDGE_CURVE('',#413,#422,#175,.T.);
#529=EDGE_CURVE('',#432,#415,#176,.T.);
#530=EDGE_CURVE('',#425,#432,#177,.T.);
#531=EDGE_CURVE('',#425,#416,#178,.T.);
#532=EDGE_CURVE('',#424,#417,#179,.T.);
#533=EDGE_CURVE('',#423,#412,#180,.T.);
#534=EDGE_CURVE('',#429,#410,#181,.T.);
#535=EDGE_CURVE('',#432,#428,#182,.T.);
#536=EDGE_CURVE('',#433,#434,#183,.T.);
#537=EDGE_CURVE('',#433,#435,#184,.T.);
#538=EDGE_CURVE('',#435,#436,#185,.T.);
#539=EDGE_CURVE('',#436,#437,#186,.T.);
#540=EDGE_CURVE('',#434,#437,#187,.T.);
#541=EDGE_CURVE('',#438,#434,#188,.T.);
#542=EDGE_CURVE('',#437,#439,#189,.T.);
#543=EDGE_CURVE('',#439,#438,#190,.T.);
#544=EDGE_CURVE('',#436,#440,#191,.T.);
#545=EDGE_CURVE('',#440,#439,#192,.T.);
#546=EDGE_CURVE('',#441,#442,#193,.T.);
#547=EDGE_CURVE('',#442,#443,#15,.T.);
#548=EDGE_CURVE('',#443,#444,#194,.T.);
#549=EDGE_CURVE('',#441,#444,#16,.T.);
#550=EDGE_CURVE('',#442,#445,#195,.T.);
#551=EDGE_CURVE('',#445,#446,#17,.T.);
#552=EDGE_CURVE('',#446,#443,#196,.T.);
#553=EDGE_CURVE('',#445,#447,#197,.T.);
#554=EDGE_CURVE('',#447,#448,#18,.T.);
#555=EDGE_CURVE('',#448,#446,#198,.T.);
#556=EDGE_CURVE('',#444,#448,#199,.T.);
#557=EDGE_CURVE('',#447,#441,#200,.T.);
#558=EDGE_CURVE('',#449,#444,#201,.T.);
#559=EDGE_CURVE('',#449,#450,#202,.T.);
#560=EDGE_CURVE('',#450,#448,#203,.T.);
#561=EDGE_CURVE('',#451,#443,#204,.T.);
#562=EDGE_CURVE('',#451,#449,#205,.T.);
#563=EDGE_CURVE('',#452,#453,#206,.T.);
#564=EDGE_CURVE('',#454,#452,#207,.T.);
#565=EDGE_CURVE('',#454,#440,#208,.T.);
#566=EDGE_CURVE('',#435,#453,#209,.T.);
#567=EDGE_CURVE('',#453,#455,#19,.T.);
#568=EDGE_CURVE('',#455,#456,#210,.T.);
#569=EDGE_CURVE('',#456,#457,#211,.T.);
#570=EDGE_CURVE('',#457,#458,#20,.T.);
#571=EDGE_CURVE('',#458,#459,#212,.T.);
#572=EDGE_CURVE('',#459,#452,#21,.T.);
#573=EDGE_CURVE('',#460,#459,#213,.T.);
#574=EDGE_CURVE('',#460,#454,#214,.T.);
#575=EDGE_CURVE('',#458,#461,#215,.T.);
#576=EDGE_CURVE('',#462,#461,#216,.T.);
#577=EDGE_CURVE('',#460,#462,#217,.T.);
#578=EDGE_CURVE('',#457,#463,#218,.T.);
#579=EDGE_CURVE('',#463,#464,#219,.T.);
#580=EDGE_CURVE('',#464,#465,#220,.T.);
#581=EDGE_CURVE('',#465,#466,#221,.T.);
#582=EDGE_CURVE('',#466,#467,#222,.T.);
#583=EDGE_CURVE('',#467,#468,#223,.T.);
#584=EDGE_CURVE('',#461,#468,#224,.T.);
#585=EDGE_CURVE('',#469,#456,#225,.T.);
#586=EDGE_CURVE('',#470,#469,#226,.T.);
#587=EDGE_CURVE('',#470,#463,#227,.T.);
#588=EDGE_CURVE('',#471,#433,#228,.T.);
#589=EDGE_CURVE('',#471,#472,#229,.T.);
#590=EDGE_CURVE('',#472,#473,#230,.T.);
#591=EDGE_CURVE('',#473,#455,#231,.T.);
#592=EDGE_CURVE('',#474,#469,#232,.T.);
#593=EDGE_CURVE('',#475,#474,#233,.T.);
#594=EDGE_CURVE('',#470,#475,#234,.T.);
#595=EDGE_CURVE('',#475,#464,#235,.T.);
#596=EDGE_CURVE('',#476,#474,#236,.T.);
#597=EDGE_CURVE('',#476,#466,#237,.T.);
#598=EDGE_CURVE('',#474,#465,#238,.T.);
#599=EDGE_CURVE('',#468,#477,#239,.T.);
#600=EDGE_CURVE('',#478,#467,#240,.T.);
#601=EDGE_CURVE('',#477,#478,#241,.T.);
#602=EDGE_CURVE('',#478,#476,#242,.T.);
#603=EDGE_CURVE('',#462,#468,#243,.T.);
#604=EDGE_CURVE('',#478,#479,#244,.T.);
#605=EDGE_CURVE('',#479,#480,#245,.T.);
#606=EDGE_CURVE('',#481,#480,#246,.T.);
#607=EDGE_CURVE('',#477,#481,#247,.T.);
#608=EDGE_CURVE('',#482,#438,#248,.T.);
#609=EDGE_CURVE('',#481,#482,#249,.T.);
#610=EDGE_CURVE('',#476,#483,#250,.T.);
#611=EDGE_CURVE('',#479,#483,#251,.T.);
#612=EDGE_CURVE('',#484,#469,#252,.T.);
#613=EDGE_CURVE('',#483,#484,#253,.T.);
#614=EDGE_CURVE('',#484,#473,#254,.T.);
#615=EDGE_CURVE('',#480,#472,#255,.T.);
#616=EDGE_CURVE('',#485,#471,#256,.T.);
#617=EDGE_CURVE('',#486,#485,#257,.T.);
#618=EDGE_CURVE('',#487,#486,#258,.T.);
#619=EDGE_CURVE('',#488,#487,#259,.T.);
#620=EDGE_CURVE('',#482,#488,#260,.T.);
#621=EDGE_CURVE('',#421,#485,#261,.T.);
#622=EDGE_CURVE('',#489,#420,#262,.T.);
#623=EDGE_CURVE('',#489,#486,#263,.T.);
#624=EDGE_CURVE('',#488,#419,#264,.T.);
#625=EDGE_CURVE('',#490,#418,#265,.T.);
#626=EDGE_CURVE('',#490,#489,#266,.T.);
#627=EDGE_CURVE('',#491,#451,#267,.T.);
#628=EDGE_CURVE('',#450,#491,#268,.T.);
#629=EDGE_CURVE('',#490,#487,#269,.T.);
#630=EDGE_CURVE('',#491,#446,#270,.T.);
#631=ORIENTED_EDGE('',*,*,#492,.F.);
#632=ORIENTED_EDGE('',*,*,#493,.F.);
#633=ORIENTED_EDGE('',*,*,#494,.F.);
#634=ORIENTED_EDGE('',*,*,#495,.T.);
#635=ORIENTED_EDGE('',*,*,#496,.F.);
#636=ORIENTED_EDGE('',*,*,#495,.F.);
#637=ORIENTED_EDGE('',*,*,#497,.F.);
#638=ORIENTED_EDGE('',*,*,#498,.F.);
#639=ORIENTED_EDGE('',*,*,#499,.F.);
#640=ORIENTED_EDGE('',*,*,#500,.F.);
#641=ORIENTED_EDGE('',*,*,#501,.F.);
#642=ORIENTED_EDGE('',*,*,#493,.T.);
#643=ORIENTED_EDGE('',*,*,#499,.T.);
#644=ORIENTED_EDGE('',*,*,#492,.T.);
#645=ORIENTED_EDGE('',*,*,#496,.T.);
#646=ORIENTED_EDGE('',*,*,#502,.F.);
#647=ORIENTED_EDGE('',*,*,#503,.F.);
#648=ORIENTED_EDGE('',*,*,#504,.F.);
#649=ORIENTED_EDGE('',*,*,#505,.T.);
#650=ORIENTED_EDGE('',*,*,#506,.F.);
#651=ORIENTED_EDGE('',*,*,#498,.T.);
#652=ORIENTED_EDGE('',*,*,#507,.T.);
#653=ORIENTED_EDGE('',*,*,#508,.T.);
#654=ORIENTED_EDGE('',*,*,#509,.T.);
#655=ORIENTED_EDGE('',*,*,#510,.T.);
#656=ORIENTED_EDGE('',*,*,#502,.T.);
#657=ORIENTED_EDGE('',*,*,#511,.F.);
#658=ORIENTED_EDGE('',*,*,#512,.F.);
#659=ORIENTED_EDGE('',*,*,#513,.F.);
#660=ORIENTED_EDGE('',*,*,#514,.F.);
#661=ORIENTED_EDGE('',*,*,#515,.T.);
#662=ORIENTED_EDGE('',*,*,#516,.T.);
#663=ORIENTED_EDGE('',*,*,#517,.T.);
#664=ORIENTED_EDGE('',*,*,#518,.F.);
#665=ORIENTED_EDGE('',*,*,#519,.T.);
#666=ORIENTED_EDGE('',*,*,#520,.T.);
#667=ORIENTED_EDGE('',*,*,#521,.T.);
#668=ORIENTED_EDGE('',*,*,#522,.F.);
#669=ORIENTED_EDGE('',*,*,#523,.F.);
#670=ORIENTED_EDGE('',*,*,#524,.T.);
#671=ORIENTED_EDGE('',*,*,#519,.F.);
#672=ORIENTED_EDGE('',*,*,#523,.T.);
#673=ORIENTED_EDGE('',*,*,#525,.F.);
#674=ORIENTED_EDGE('',*,*,#526,.F.);
#675=ORIENTED_EDGE('',*,*,#526,.T.);
#676=ORIENTED_EDGE('',*,*,#527,.F.);
#677=ORIENTED_EDGE('',*,*,#505,.F.);
#678=ORIENTED_EDGE('',*,*,#528,.T.);
#679=ORIENTED_EDGE('',*,*,#520,.F.);
#680=ORIENTED_EDGE('',*,*,#529,.F.);
#681=ORIENTED_EDGE('',*,*,#530,.F.);
#682=ORIENTED_EDGE('',*,*,#531,.T.);
#683=ORIENTED_EDGE('',*,*,#508,.F.);
#684=ORIENTED_EDGE('',*,*,#503,.T.);
#685=ORIENTED_EDGE('',*,*,#510,.F.);
#686=ORIENTED_EDGE('',*,*,#532,.F.);
#687=ORIENTED_EDGE('',*,*,#516,.F.);
#688=ORIENTED_EDGE('',*,*,#533,.T.);
#689=ORIENTED_EDGE('',*,*,#517,.F.);
#690=ORIENTED_EDGE('',*,*,#532,.T.);
#691=ORIENTED_EDGE('',*,*,#509,.F.);
#692=ORIENTED_EDGE('',*,*,#531,.F.);
#693=ORIENTED_EDGE('',*,*,#501,.T.);
#694=ORIENTED_EDGE('',*,*,#534,.F.);
#695=ORIENTED_EDGE('',*,*,#521,.F.);
#696=ORIENTED_EDGE('',*,*,#535,.F.);
#697=ORIENTED_EDGE('',*,*,#529,.T.);
#698=ORIENTED_EDGE('',*,*,#507,.F.);
#699=ORIENTED_EDGE('',*,*,#497,.T.);
#700=ORIENTED_EDGE('',*,*,#494,.T.);
#701=ORIENTED_EDGE('',*,*,#500,.T.);
#702=ORIENTED_EDGE('',*,*,#506,.T.);
#703=ORIENTED_EDGE('',*,*,#527,.T.);
#704=ORIENTED_EDGE('',*,*,#525,.T.);
#705=ORIENTED_EDGE('',*,*,#522,.T.);
#706=ORIENTED_EDGE('',*,*,#534,.T.);
#707=ORIENTED_EDGE('',*,*,#536,.F.);
#708=ORIENTED_EDGE('',*,*,#537,.T.);
#709=ORIENTED_EDGE('',*,*,#538,.T.);
#710=ORIENTED_EDGE('',*,*,#539,.T.);
#711=ORIENTED_EDGE('',*,*,#540,.F.);
#712=ORIENTED_EDGE('',*,*,#541,.T.);
#713=ORIENTED_EDGE('',*,*,#540,.T.);
#714=ORIENTED_EDGE('',*,*,#542,.T.);
#715=ORIENTED_EDGE('',*,*,#543,.T.);
#716=ORIENTED_EDGE('',*,*,#544,.T.);
#717=ORIENTED_EDGE('',*,*,#545,.T.);
#718=ORIENTED_EDGE('',*,*,#542,.F.);
#719=ORIENTED_EDGE('',*,*,#539,.F.);
#720=ORIENTED_EDGE('',*,*,#515,.F.);
#721=ORIENTED_EDGE('',*,*,#528,.F.);
#722=ORIENTED_EDGE('',*,*,#504,.T.);
#723=ORIENTED_EDGE('',*,*,#533,.F.);
#724=ORIENTED_EDGE('',*,*,#518,.T.);
#725=ORIENTED_EDGE('',*,*,#530,.T.);
#726=ORIENTED_EDGE('',*,*,#535,.T.);
#727=ORIENTED_EDGE('',*,*,#524,.F.);
#728=ORIENTED_EDGE('',*,*,#546,.T.);
#729=ORIENTED_EDGE('',*,*,#547,.T.);
#730=ORIENTED_EDGE('',*,*,#548,.T.);
#731=ORIENTED_EDGE('',*,*,#549,.F.);
#732=ORIENTED_EDGE('',*,*,#550,.T.);
#733=ORIENTED_EDGE('',*,*,#551,.T.);
#734=ORIENTED_EDGE('',*,*,#552,.T.);
#735=ORIENTED_EDGE('',*,*,#547,.F.);
#736=ORIENTED_EDGE('',*,*,#553,.T.);
#737=ORIENTED_EDGE('',*,*,#554,.T.);
#738=ORIENTED_EDGE('',*,*,#555,.T.);
#739=ORIENTED_EDGE('',*,*,#551,.F.);
#740=ORIENTED_EDGE('',*,*,#556,.T.);
#741=ORIENTED_EDGE('',*,*,#554,.F.);
#742=ORIENTED_EDGE('',*,*,#557,.T.);
#743=ORIENTED_EDGE('',*,*,#549,.T.);
#744=ORIENTED_EDGE('',*,*,#556,.F.);
#745=ORIENTED_EDGE('',*,*,#558,.F.);
#746=ORIENTED_EDGE('',*,*,#559,.T.);
#747=ORIENTED_EDGE('',*,*,#560,.T.);
#748=ORIENTED_EDGE('',*,*,#548,.F.);
#749=ORIENTED_EDGE('',*,*,#561,.F.);
#750=ORIENTED_EDGE('',*,*,#562,.T.);
#751=ORIENTED_EDGE('',*,*,#558,.T.);
#752=ORIENTED_EDGE('',*,*,#563,.F.);
#753=ORIENTED_EDGE('',*,*,#564,.F.);
#754=ORIENTED_EDGE('',*,*,#565,.T.);
#755=ORIENTED_EDGE('',*,*,#544,.F.);
#756=ORIENTED_EDGE('',*,*,#538,.F.);
#757=ORIENTED_EDGE('',*,*,#566,.T.);
#758=ORIENTED_EDGE('',*,*,#546,.F.);
#759=ORIENTED_EDGE('',*,*,#557,.F.);
#760=ORIENTED_EDGE('',*,*,#553,.F.);
#761=ORIENTED_EDGE('',*,*,#550,.F.);
#762=ORIENTED_EDGE('',*,*,#567,.T.);
#763=ORIENTED_EDGE('',*,*,#568,.T.);
#764=ORIENTED_EDGE('',*,*,#569,.T.);
#765=ORIENTED_EDGE('',*,*,#570,.T.);
#766=ORIENTED_EDGE('',*,*,#571,.T.);
#767=ORIENTED_EDGE('',*,*,#572,.T.);
#768=ORIENTED_EDGE('',*,*,#563,.T.);
#769=ORIENTED_EDGE('',*,*,#572,.F.);
#770=ORIENTED_EDGE('',*,*,#573,.F.);
#771=ORIENTED_EDGE('',*,*,#574,.T.);
#772=ORIENTED_EDGE('',*,*,#564,.T.);
#773=ORIENTED_EDGE('',*,*,#571,.F.);
#774=ORIENTED_EDGE('',*,*,#575,.T.);
#775=ORIENTED_EDGE('',*,*,#576,.F.);
#776=ORIENTED_EDGE('',*,*,#577,.F.);
#777=ORIENTED_EDGE('',*,*,#573,.T.);
#778=ORIENTED_EDGE('',*,*,#570,.F.);
#779=ORIENTED_EDGE('',*,*,#578,.T.);
#780=ORIENTED_EDGE('',*,*,#579,.T.);
#781=ORIENTED_EDGE('',*,*,#580,.T.);
#782=ORIENTED_EDGE('',*,*,#581,.T.);
#783=ORIENTED_EDGE('',*,*,#582,.T.);
#784=ORIENTED_EDGE('',*,*,#583,.T.);
#785=ORIENTED_EDGE('',*,*,#584,.F.);
#786=ORIENTED_EDGE('',*,*,#575,.F.);
#787=ORIENTED_EDGE('',*,*,#569,.F.);
#788=ORIENTED_EDGE('',*,*,#585,.F.);
#789=ORIENTED_EDGE('',*,*,#586,.F.);
#790=ORIENTED_EDGE('',*,*,#587,.T.);
#791=ORIENTED_EDGE('',*,*,#578,.F.);
#792=ORIENTED_EDGE('',*,*,#567,.F.);
#793=ORIENTED_EDGE('',*,*,#566,.F.);
#794=ORIENTED_EDGE('',*,*,#537,.F.);
#795=ORIENTED_EDGE('',*,*,#588,.F.);
#796=ORIENTED_EDGE('',*,*,#589,.T.);
#797=ORIENTED_EDGE('',*,*,#590,.T.);
#798=ORIENTED_EDGE('',*,*,#591,.T.);
#799=ORIENTED_EDGE('',*,*,#586,.T.);
#800=ORIENTED_EDGE('',*,*,#592,.F.);
#801=ORIENTED_EDGE('',*,*,#593,.F.);
#802=ORIENTED_EDGE('',*,*,#594,.F.);
#803=ORIENTED_EDGE('',*,*,#594,.T.);
#804=ORIENTED_EDGE('',*,*,#595,.T.);
#805=ORIENTED_EDGE('',*,*,#579,.F.);
#806=ORIENTED_EDGE('',*,*,#587,.F.);
#807=ORIENTED_EDGE('',*,*,#596,.F.);
#808=ORIENTED_EDGE('',*,*,#597,.T.);
#809=ORIENTED_EDGE('',*,*,#581,.F.);
#810=ORIENTED_EDGE('',*,*,#598,.F.);
#811=ORIENTED_EDGE('',*,*,#593,.T.);
#812=ORIENTED_EDGE('',*,*,#598,.T.);
#813=ORIENTED_EDGE('',*,*,#580,.F.);
#814=ORIENTED_EDGE('',*,*,#595,.F.);
#815=ORIENTED_EDGE('',*,*,#599,.F.);
#816=ORIENTED_EDGE('',*,*,#583,.F.);
#817=ORIENTED_EDGE('',*,*,#600,.F.);
#818=ORIENTED_EDGE('',*,*,#601,.F.);
#819=ORIENTED_EDGE('',*,*,#602,.F.);
#820=ORIENTED_EDGE('',*,*,#600,.T.);
#821=ORIENTED_EDGE('',*,*,#582,.F.);
#822=ORIENTED_EDGE('',*,*,#597,.F.);
#823=ORIENTED_EDGE('',*,*,#584,.T.);
#824=ORIENTED_EDGE('',*,*,#603,.F.);
#825=ORIENTED_EDGE('',*,*,#576,.T.);
#826=ORIENTED_EDGE('',*,*,#604,.T.);
#827=ORIENTED_EDGE('',*,*,#605,.T.);
#828=ORIENTED_EDGE('',*,*,#606,.F.);
#829=ORIENTED_EDGE('',*,*,#607,.F.);
#830=ORIENTED_EDGE('',*,*,#601,.T.);
#831=ORIENTED_EDGE('',*,*,#608,.T.);
#832=ORIENTED_EDGE('',*,*,#543,.F.);
#833=ORIENTED_EDGE('',*,*,#545,.F.);
#834=ORIENTED_EDGE('',*,*,#565,.F.);
#835=ORIENTED_EDGE('',*,*,#574,.F.);
#836=ORIENTED_EDGE('',*,*,#577,.T.);
#837=ORIENTED_EDGE('',*,*,#603,.T.);
#838=ORIENTED_EDGE('',*,*,#599,.T.);
#839=ORIENTED_EDGE('',*,*,#607,.T.);
#840=ORIENTED_EDGE('',*,*,#609,.T.);
#841=ORIENTED_EDGE('',*,*,#602,.T.);
#842=ORIENTED_EDGE('',*,*,#610,.T.);
#843=ORIENTED_EDGE('',*,*,#611,.F.);
#844=ORIENTED_EDGE('',*,*,#604,.F.);
#845=ORIENTED_EDGE('',*,*,#596,.T.);
#846=ORIENTED_EDGE('',*,*,#592,.T.);
#847=ORIENTED_EDGE('',*,*,#612,.F.);
#848=ORIENTED_EDGE('',*,*,#613,.F.);
#849=ORIENTED_EDGE('',*,*,#610,.F.);
#850=ORIENTED_EDGE('',*,*,#613,.T.);
#851=ORIENTED_EDGE('',*,*,#614,.T.);
#852=ORIENTED_EDGE('',*,*,#590,.F.);
#853=ORIENTED_EDGE('',*,*,#615,.F.);
#854=ORIENTED_EDGE('',*,*,#605,.F.);
#855=ORIENTED_EDGE('',*,*,#611,.T.);
#856=ORIENTED_EDGE('',*,*,#606,.T.);
#857=ORIENTED_EDGE('',*,*,#615,.T.);
#858=ORIENTED_EDGE('',*,*,#589,.F.);
#859=ORIENTED_EDGE('',*,*,#616,.F.);
#860=ORIENTED_EDGE('',*,*,#617,.F.);
#861=ORIENTED_EDGE('',*,*,#618,.F.);
#862=ORIENTED_EDGE('',*,*,#619,.F.);
#863=ORIENTED_EDGE('',*,*,#620,.F.);
#864=ORIENTED_EDGE('',*,*,#609,.F.);
#865=ORIENTED_EDGE('',*,*,#568,.F.);
#866=ORIENTED_EDGE('',*,*,#591,.F.);
#867=ORIENTED_EDGE('',*,*,#614,.F.);
#868=ORIENTED_EDGE('',*,*,#612,.T.);
#869=ORIENTED_EDGE('',*,*,#585,.T.);
#870=ORIENTED_EDGE('',*,*,#617,.T.);
#871=ORIENTED_EDGE('',*,*,#621,.F.);
#872=ORIENTED_EDGE('',*,*,#513,.T.);
#873=ORIENTED_EDGE('',*,*,#622,.F.);
#874=ORIENTED_EDGE('',*,*,#623,.T.);
#875=ORIENTED_EDGE('',*,*,#608,.F.);
#876=ORIENTED_EDGE('',*,*,#620,.T.);
#877=ORIENTED_EDGE('',*,*,#624,.T.);
#878=ORIENTED_EDGE('',*,*,#514,.T.);
#879=ORIENTED_EDGE('',*,*,#621,.T.);
#880=ORIENTED_EDGE('',*,*,#616,.T.);
#881=ORIENTED_EDGE('',*,*,#588,.T.);
#882=ORIENTED_EDGE('',*,*,#536,.T.);
#883=ORIENTED_EDGE('',*,*,#541,.F.);
#884=ORIENTED_EDGE('',*,*,#512,.T.);
#885=ORIENTED_EDGE('',*,*,#625,.F.);
#886=ORIENTED_EDGE('',*,*,#626,.T.);
#887=ORIENTED_EDGE('',*,*,#622,.T.);
#888=ORIENTED_EDGE('',*,*,#559,.F.);
#889=ORIENTED_EDGE('',*,*,#562,.F.);
#890=ORIENTED_EDGE('',*,*,#627,.F.);
#891=ORIENTED_EDGE('',*,*,#628,.F.);
#892=ORIENTED_EDGE('',*,*,#619,.T.);
#893=ORIENTED_EDGE('',*,*,#629,.F.);
#894=ORIENTED_EDGE('',*,*,#625,.T.);
#895=ORIENTED_EDGE('',*,*,#511,.T.);
#896=ORIENTED_EDGE('',*,*,#624,.F.);
#897=ORIENTED_EDGE('',*,*,#618,.T.);
#898=ORIENTED_EDGE('',*,*,#623,.F.);
#899=ORIENTED_EDGE('',*,*,#626,.F.);
#900=ORIENTED_EDGE('',*,*,#629,.T.);
#901=ORIENTED_EDGE('',*,*,#552,.F.);
#902=ORIENTED_EDGE('',*,*,#630,.F.);
#903=ORIENTED_EDGE('',*,*,#627,.T.);
#904=ORIENTED_EDGE('',*,*,#561,.T.);
#905=ORIENTED_EDGE('',*,*,#555,.F.);
#906=ORIENTED_EDGE('',*,*,#560,.F.);
#907=ORIENTED_EDGE('',*,*,#628,.T.);
#908=ORIENTED_EDGE('',*,*,#630,.T.);
#909=PLANE('',#1024);
#910=PLANE('',#1025);
#911=PLANE('',#1026);
#912=PLANE('',#1027);
#913=PLANE('',#1028);
#914=PLANE('',#1029);
#915=PLANE('',#1030);
#916=PLANE('',#1031);
#917=PLANE('',#1032);
#918=PLANE('',#1033);
#919=PLANE('',#1034);
#920=PLANE('',#1035);
#921=PLANE('',#1036);
#922=PLANE('',#1037);
#923=PLANE('',#1038);
#924=PLANE('',#1039);
#925=PLANE('',#1040);
#926=PLANE('',#1041);
#927=PLANE('',#1042);
#928=PLANE('',#1051);
#929=PLANE('',#1052);
#930=PLANE('',#1053);
#931=PLANE('',#1058);
#932=PLANE('',#1059);
#933=PLANE('',#1060);
#934=PLANE('',#1061);
#935=PLANE('',#1062);
#936=PLANE('',#1063);
#937=PLANE('',#1064);
#938=PLANE('',#1065);
#939=PLANE('',#1066);
#940=PLANE('',#1067);
#941=PLANE('',#1068);
#942=PLANE('',#1069);
#943=PLANE('',#1070);
#944=PLANE('',#1071);
#945=PLANE('',#1072);
#946=PLANE('',#1073);
#947=PLANE('',#1074);
#948=PLANE('',#1075);
#949=PLANE('',#1076);
#950=PLANE('',#1077);
#951=PLANE('',#1078);
#952=PLANE('',#1079);
#953=PLANE('',#1080);
#954=PLANE('',#1081);
#955=PLANE('',#1082);
#956=PLANE('',#1083);
#957=ADVANCED_FACE('',(#30),#909,.F.);
#958=ADVANCED_FACE('',(#31),#910,.F.);
#959=ADVANCED_FACE('',(#32),#911,.F.);
#960=ADVANCED_FACE('',(#33),#912,.T.);
#961=ADVANCED_FACE('',(#34),#913,.T.);
#962=ADVANCED_FACE('',(#35,#27),#914,.F.);
#963=ADVANCED_FACE('',(#36),#915,.T.);
#964=ADVANCED_FACE('',(#37),#916,.T.);
#965=ADVANCED_FACE('',(#38),#917,.T.);
#966=ADVANCED_FACE('',(#39),#918,.T.);
#967=ADVANCED_FACE('',(#40),#919,.T.);
#968=ADVANCED_FACE('',(#41),#920,.T.);
#969=ADVANCED_FACE('',(#42),#921,.T.);
#970=ADVANCED_FACE('',(#43),#922,.T.);
#971=ADVANCED_FACE('',(#44),#923,.T.);
#972=ADVANCED_FACE('',(#45),#924,.T.);
#973=ADVANCED_FACE('',(#46),#925,.T.);
#974=ADVANCED_FACE('',(#47),#926,.T.);
#975=ADVANCED_FACE('',(#48),#927,.F.);
#976=ADVANCED_FACE('',(#49),#22,.T.);
#977=ADVANCED_FACE('',(#50),#23,.T.);
#978=ADVANCED_FACE('',(#51),#24,.T.);
#979=ADVANCED_FACE('',(#52),#25,.T.);
#980=ADVANCED_FACE('',(#53),#928,.T.);
#981=ADVANCED_FACE('',(#54),#929,.T.);
#982=ADVANCED_FACE('',(#55,#28),#930,.T.);
#983=ADVANCED_FACE('',(#56),#26,.T.);
#984=ADVANCED_FACE('',(#57),#931,.T.);
#985=ADVANCED_FACE('',(#58),#932,.F.);
#986=ADVANCED_FACE('',(#59),#933,.T.);
#987=ADVANCED_FACE('',(#60),#934,.T.);
#988=ADVANCED_FACE('',(#61),#935,.T.);
#989=ADVANCED_FACE('',(#62),#936,.F.);
#990=ADVANCED_FACE('',(#63),#937,.T.);
#991=ADVANCED_FACE('',(#64),#938,.T.);
#992=ADVANCED_FACE('',(#65),#939,.T.);
#993=ADVANCED_FACE('',(#66),#940,.T.);
#994=ADVANCED_FACE('',(#67),#941,.T.);
#995=ADVANCED_FACE('',(#68),#942,.F.);
#996=ADVANCED_FACE('',(#69),#943,.T.);
#997=ADVANCED_FACE('',(#70),#944,.T.);
#998=ADVANCED_FACE('',(#71),#945,.F.);
#999=ADVANCED_FACE('',(#72),#946,.F.);
#1000=ADVANCED_FACE('',(#73),#947,.T.);
#1001=ADVANCED_FACE('',(#74),#948,.F.);
#1002=ADVANCED_FACE('',(#75),#949,.F.);
#1003=ADVANCED_FACE('',(#76),#950,.T.);
#1004=ADVANCED_FACE('',(#77),#951,.T.);
#1005=ADVANCED_FACE('',(#78,#29),#952,.F.);
#1006=ADVANCED_FACE('',(#79),#953,.T.);
#1007=ADVANCED_FACE('',(#80),#954,.T.);
#1008=ADVANCED_FACE('',(#81),#955,.T.);
#1009=ADVANCED_FACE('',(#82),#956,.T.);
#1010=CLOSED_SHELL('',(#957,#958,#959,#960,#961,#962,#963,#964,#965,#966,
#967,#968,#969,#970,#971,#972,#973,#974,#975,#976,#977,#978,#979,#980,#981,
#982,#983,#984,#985,#986,#987,#988,#989,#990,#991,#992,#993,#994,#995,#996,
#997,#998,#999,#1000,#1001,#1002,#1003,#1004,#1005,#1006,#1007,#1008,#1009));
#1011=DERIVED_UNIT_ELEMENT(#1013,1.);
#1012=DERIVED_UNIT_ELEMENT(#1627,-3.);
#1013=(
MASS_UNIT()
NAMED_UNIT(*)
SI_UNIT(.KILO.,.GRAM.)
);
#1014=DERIVED_UNIT((#1011,#1012));
#1015=MEASURE_REPRESENTATION_ITEM('density measure',
POSITIVE_RATIO_MEASURE(7850.),#1014);
#1016=PROPERTY_DEFINITION_REPRESENTATION(#1021,#1018);
#1017=PROPERTY_DEFINITION_REPRESENTATION(#1022,#1019);
#1018=REPRESENTATION('material name',(#1020),#1622);
#1019=REPRESENTATION('density',(#1015),#1622);
#1020=DESCRIPTIVE_REPRESENTATION_ITEM('Steel','Steel');
#1021=PROPERTY_DEFINITION('material property','material name',#1635);
#1022=PROPERTY_DEFINITION('material property','density of part',#1635);
#1023=AXIS2_PLACEMENT_3D('',#1338,#1084,#1085);
#1024=AXIS2_PLACEMENT_3D('',#1339,#1086,#1087);
#1025=AXIS2_PLACEMENT_3D('',#1348,#1092,#1093);
#1026=AXIS2_PLACEMENT_3D('',#1354,#1097,#1098);
#1027=AXIS2_PLACEMENT_3D('',#1360,#1102,#1103);
#1028=AXIS2_PLACEMENT_3D('',#1370,#1109,#1110);
#1029=AXIS2_PLACEMENT_3D('',#1378,#1115,#1116);
#1030=AXIS2_PLACEMENT_3D('',#1399,#1127,#1128);
#1031=AXIS2_PLACEMENT_3D('',#1407,#1133,#1134);
#1032=AXIS2_PLACEMENT_3D('',#1411,#1137,#1138);
#1033=AXIS2_PLACEMENT_3D('',#1414,#1141,#1142);
#1034=AXIS2_PLACEMENT_3D('',#1419,#1146,#1147);
#1035=AXIS2_PLACEMENT_3D('',#1422,#1150,#1151);
#1036=AXIS2_PLACEMENT_3D('',#1423,#1152,#1153);
#1037=AXIS2_PLACEMENT_3D('',#1426,#1156,#1157);
#1038=AXIS2_PLACEMENT_3D('',#1427,#1158,#1159);
#1039=AXIS2_PLACEMENT_3D('',#1438,#1165,#1166);
#1040=AXIS2_PLACEMENT_3D('',#1444,#1170,#1171);
#1041=AXIS2_PLACEMENT_3D('',#1448,#1174,#1175);
#1042=AXIS2_PLACEMENT_3D('',#1449,#1176,#1177);
#1043=AXIS2_PLACEMENT_3D('',#1450,#1178,#1179);
#1044=AXIS2_PLACEMENT_3D('',#1455,#1181,#1182);
#1045=AXIS2_PLACEMENT_3D('',#1458,#1184,#1185);
#1046=AXIS2_PLACEMENT_3D('',#1459,#1186,#1187);
#1047=AXIS2_PLACEMENT_3D('',#1463,#1189,#1190);
#1048=AXIS2_PLACEMENT_3D('',#1465,#1192,#1193);
#1049=AXIS2_PLACEMENT_3D('',#1469,#1195,#1196);
#1050=AXIS2_PLACEMENT_3D('',#1471,#1198,#1199);
#1051=AXIS2_PLACEMENT_3D('',#1474,#1202,#1203);
#1052=AXIS2_PLACEMENT_3D('',#1480,#1207,#1208);
#1053=AXIS2_PLACEMENT_3D('',#1484,#1211,#1212);
#1054=AXIS2_PLACEMENT_3D('',#1492,#1217,#1218);
#1055=AXIS2_PLACEMENT_3D('',#1494,#1219,#1220);
#1056=AXIS2_PLACEMENT_3D('',#1500,#1223,#1224);
#1057=AXIS2_PLACEMENT_3D('',#1503,#1226,#1227);
#1058=AXIS2_PLACEMENT_3D('',#1504,#1228,#1229);
#1059=AXIS2_PLACEMENT_3D('',#1508,#1232,#1233);
#1060=AXIS2_PLACEMENT_3D('',#1514,#1237,#1238);
#1061=AXIS2_PLACEMENT_3D('',#1528,#1246,#1247);
#1062=AXIS2_PLACEMENT_3D('',#1534,#1251,#1252);
#1063=AXIS2_PLACEMENT_3D('',#1542,#1257,#1258);
#1064=AXIS2_PLACEMENT_3D('',#1548,#1262,#1263);
#1065=AXIS2_PLACEMENT_3D('',#1550,#1265,#1266);
#1066=AXIS2_PLACEMENT_3D('',#1555,#1270,#1271);
#1067=AXIS2_PLACEMENT_3D('',#1556,#1272,#1273);
#1068=AXIS2_PLACEMENT_3D('',#1562,#1277,#1278);
#1069=AXIS2_PLACEMENT_3D('',#1564,#1280,#1281);
#1070=AXIS2_PLACEMENT_3D('',#1566,#1283,#1284);
#1071=AXIS2_PLACEMENT_3D('',#1574,#1289,#1290);
#1072=AXIS2_PLACEMENT_3D('',#1578,#1293,#1294);
#1073=AXIS2_PLACEMENT_3D('',#1582,#1297,#1298);
#1074=AXIS2_PLACEMENT_3D('',#1586,#1301,#1302);
#1075=AXIS2_PLACEMENT_3D('',#1589,#1305,#1306);
#1076=AXIS2_PLACEMENT_3D('',#1599,#1312,#1313);
#1077=AXIS2_PLACEMENT_3D('',#1600,#1314,#1315);
#1078=AXIS2_PLACEMENT_3D('',#1605,#1319,#1320);
#1079=AXIS2_PLACEMENT_3D('',#1607,#1322,#1323);
#1080=AXIS2_PLACEMENT_3D('',#1614,#1328,#1329);
#1081=AXIS2_PLACEMENT_3D('',#1616,#1331,#1332);
#1082=AXIS2_PLACEMENT_3D('',#1617,#1333,#1334);
#1083=AXIS2_PLACEMENT_3D('',#1619,#1336,#1337);
#1084=DIRECTION('axis',(0.,0.,1.));
#1085=DIRECTION('refdir',(1.,0.,0.));
#1086=DIRECTION('center_axis',(0.,-1.,0.));
#1087=DIRECTION('ref_axis',(1.,0.,0.));
#1088=DIRECTION('',(-1.,0.,0.));
#1089=DIRECTION('',(0.,0.,1.));
#1090=DIRECTION('',(1.,0.,0.));
#1091=DIRECTION('',(0.,0.,1.));
#1092=DIRECTION('center_axis',(-1.,6.38952855475648E-16,0.));
#1093=DIRECTION('ref_axis',(-6.38952855475648E-16,-1.,0.));
#1094=DIRECTION('',(6.38952855475648E-16,1.,0.));
#1095=DIRECTION('',(-6.38952855475648E-16,-1.,0.));
#1096=DIRECTION('',(0.,0.,-1.));
#1097=DIRECTION('center_axis',(1.,0.,0.));
#1098=DIRECTION('ref_axis',(0.,1.,0.));
#1099=DIRECTION('',(0.,-1.,0.));
#1100=DIRECTION('',(0.,0.,1.));
#1101=DIRECTION('',(0.,1.,0.));
#1102=DIRECTION('center_axis',(0.,0.,1.));
#1103=DIRECTION('ref_axis',(1.,0.,0.));
#1104=DIRECTION('',(1.,0.,0.));
#1105=DIRECTION('',(0.,1.,0.));
#1106=DIRECTION('',(-1.,0.,0.));
#1107=DIRECTION('',(0.,1.,0.));
#1108=DIRECTION('',(1.,0.,0.));
#1109=DIRECTION('center_axis',(0.,1.,0.));
#1110=DIRECTION('ref_axis',(0.,0.,1.));
#1111=DIRECTION('',(-1.,0.,0.));
#1112=DIRECTION('',(0.,0.,-1.));
#1113=DIRECTION('',(-1.,0.,0.));
#1114=DIRECTION('',(0.,0.,1.));
#1115=DIRECTION('center_axis',(-6.98238769773578E-15,-0.996938482079541,
-0.0781899159031477));
#1116=DIRECTION('ref_axis',(-1.,6.96101099267157E-15,5.45952306889126E-16));
#1117=DIRECTION('',(0.,0.0781899159031477,-0.996938482079541));
#1118=DIRECTION('',(-1.,0.,0.));
#1119=DIRECTION('',(-1.8076813114497E-17,-0.0781899159031477,0.996938482079541));
#1120=DIRECTION('',(1.,0.,0.));
#1121=DIRECTION('',(-1.,0.,8.93003607573223E-14));
#1122=DIRECTION('',(0.,0.0781899159031477,-0.996938482079541));
#1123=DIRECTION('',(1.,-7.00383004894247E-15,0.));
#1124=DIRECTION('',(-1.,0.,8.93003607573223E-14));
#1125=DIRECTION('',(1.,-7.00383004894247E-15,0.));
#1126=DIRECTION('',(0.,-0.0781899159031477,0.996938482079541));
#1127=DIRECTION('center_axis',(-1.,0.,0.));
#1128=DIRECTION('ref_axis',(0.,0.,1.));
#1129=DIRECTION('',(0.,1.,0.));
#1130=DIRECTION('',(0.,0.,1.));
#1131=DIRECTION('',(0.,1.,0.));
#1132=DIRECTION('',(0.,0.,1.));
#1133=DIRECTION('center_axis',(0.,0.,-1.));
#1134=DIRECTION('ref_axis',(-1.,0.,0.));
#1135=DIRECTION('',(-1.,0.,0.));
#1136=DIRECTION('',(0.,1.,0.));
#1137=DIRECTION('center_axis',(1.,0.,0.));
#1138=DIRECTION('ref_axis',(0.,0.,-1.));
#1139=DIRECTION('',(0.,0.,-1.));
#1140=DIRECTION('',(0.,0.,-1.));
#1141=DIRECTION('center_axis',(1.,0.,0.));
#1142=DIRECTION('ref_axis',(0.,0.,-1.));
#1143=DIRECTION('',(0.,1.,0.));
#1144=DIRECTION('',(0.,0.,1.));
#1145=DIRECTION('',(0.,1.,0.));
#1146=DIRECTION('center_axis',(-1.,0.,0.));
#1147=DIRECTION('ref_axis',(0.,0.,1.));
#1148=DIRECTION('',(0.,1.,0.));
#1149=DIRECTION('',(0.,0.,1.));
#1150=DIRECTION('center_axis',(0.,0.,-1.));
#1151=DIRECTION('ref_axis',(-1.,0.,0.));
#1152=DIRECTION('center_axis',(0.,0.,-1.));
#1153=DIRECTION('ref_axis',(-1.,0.,0.));
#1154=DIRECTION('',(-1.,0.,0.));
#1155=DIRECTION('',(1.,0.,0.));
#1156=DIRECTION('center_axis',(0.,1.,0.));
#1157=DIRECTION('ref_axis',(0.,0.,1.));
#1158=DIRECTION('center_axis',(1.,0.,0.));
#1159=DIRECTION('ref_axis',(0.,0.,1.));
#1160=DIRECTION('',(0.,-1.,0.));
#1161=DIRECTION('',(0.,0.,1.));
#1162=DIRECTION('',(0.,-1.,0.));
#1163=DIRECTION('',(-6.99353086378052E-15,-0.996938482079541,-0.0781899159031471));
#1164=DIRECTION('',(0.,-0.0781899159031477,0.996938482079541));
#1165=DIRECTION('center_axis',(-6.99353086378052E-15,-0.996938482079541,
-0.0781899159031471));
#1166=DIRECTION('ref_axis',(0.,0.0781899159031471,-0.996938482079541));
#1167=DIRECTION('',(1.,-7.01500743475417E-15,0.));
#1168=DIRECTION('',(-1.,9.7408819279333E-16,7.63977670095413E-17));
#1169=DIRECTION('',(-6.83541180756251E-17,0.0781899159031465,-0.996938482079541));
#1170=DIRECTION('center_axis',(-5.17689969051289E-31,-0.0781899159031471,
0.996938482079541));
#1171=DIRECTION('ref_axis',(-1.,9.7408819279333E-16,7.63977670095413E-17));
#1172=DIRECTION('',(-1.,0.,0.));
#1173=DIRECTION('',(-6.99353086378052E-15,-0.996938482079541,-0.0781899159031471));
#1174=DIRECTION('center_axis',(0.,-1.,0.));
#1175=DIRECTION('ref_axis',(0.,0.,-1.));
#1176=DIRECTION('center_axis',(0.,-1.,0.));
#1177=DIRECTION('ref_axis',(1.,0.,0.));
#1178=DIRECTION('center_axis',(3.79671595768079E-16,-1.,0.));
#1179=DIRECTION('ref_axis',(-0.707106781186548,0.,0.707106781186548));
#1180=DIRECTION('',(-3.79671595768079E-16,1.,0.));
#1181=DIRECTION('center_axis',(0.707106781186538,-0.707106781186557,-4.94517309821652E-15));
#1182=DIRECTION('ref_axis',(0.707106781186558,0.707106781186538,-4.94517309821666E-15));
#1183=DIRECTION('',(3.79671595768079E-16,-1.,0.));
#1184=DIRECTION('center_axis',(-0.70710678118655,-0.707106781186545,-4.94517309821657E-15));
#1185=DIRECTION('ref_axis',(0.707106781186545,-0.70710678118655,-4.9451730982166E-15));
#1186=DIRECTION('center_axis',(1.,-2.47196888310639E-16,0.));
#1187=DIRECTION('ref_axis',(0.,-0.707106781186557,0.707106781186538));
#1188=DIRECTION('',(-1.,2.47196888310639E-16,0.));
#1189=DIRECTION('center_axis',(0.707106781186545,0.70710678118655,0.));
#1190=DIRECTION('ref_axis',(-0.70710678118655,0.707106781186545,0.));
#1191=DIRECTION('',(1.,-2.47196888310639E-16,0.));
#1192=DIRECTION('center_axis',(-1.89835797884039E-16,1.,0.));
#1193=DIRECTION('ref_axis',(0.707106781186548,0.,0.707106781186548));
#1194=DIRECTION('',(1.89835797884039E-16,-1.,0.));
#1195=DIRECTION('center_axis',(-0.707106781186548,0.707106781186548,-4.94517309821659E-15));
#1196=DIRECTION('ref_axis',(-0.707106781186548,-0.707106781186548,-4.94517309821659E-15));
#1197=DIRECTION('',(-1.89835797884039E-16,1.,0.));
#1198=DIRECTION('center_axis',(-1.,2.47196888310639E-16,0.));
#1199=DIRECTION('ref_axis',(0.,0.707106781186548,0.707106781186548));
#1200=DIRECTION('',(-1.,2.47196888310639E-16,0.));
#1201=DIRECTION('',(1.,-2.47196888310639E-16,0.));
#1202=DIRECTION('center_axis',(2.47196888310639E-16,1.,0.));
#1203=DIRECTION('ref_axis',(-1.,2.47196888310639E-16,0.));
#1204=DIRECTION('',(0.,0.,1.));
#1205=DIRECTION('',(-1.,2.47196888310639E-16,0.));
#1206=DIRECTION('',(0.,0.,1.));
#1207=DIRECTION('center_axis',(-1.,-3.79671595768079E-16,0.));
#1208=DIRECTION('ref_axis',(3.79671595768079E-16,-1.,0.));
#1209=DIRECTION('',(0.,0.,1.));
#1210=DIRECTION('',(3.79671595768079E-16,-1.,0.));
#1211=DIRECTION('center_axis',(0.,0.,1.));
#1212=DIRECTION('ref_axis',(1.,0.,0.));
#1213=DIRECTION('',(1.,0.,0.));
#1214=DIRECTION('',(0.00337263507899053,0.999994312650139,0.));
#1215=DIRECTION('',(6.19568913834639E-16,-1.,0.));
#1216=DIRECTION('',(0.00337263507899001,0.999994312650139,0.));
#1217=DIRECTION('center_axis',(-1.,0.,0.));
#1218=DIRECTION('ref_axis',(0.,0.,1.));
#1219=DIRECTION('center_axis',(-0.999994312650139,0.00337263507899001,0.));
#1220=DIRECTION('ref_axis',(0.00337263507899001,0.999994312650139,0.));
#1221=DIRECTION('',(-1.,0.,0.));
#1222=DIRECTION('',(-1.,0.,0.));
#1223=DIRECTION('center_axis',(0.9999910732933,-0.00337262396477604,-0.00254533716930282));
#1224=DIRECTION('ref_axis',(0.00422532054561735,0.79818650962215,0.602395586407716));
#1225=DIRECTION('',(-0.999991373891252,0.00328228610652333,0.00254533710942035));
#1226=DIRECTION('center_axis',(0.999994312650139,-0.00337263507899053,0.));
#1227=DIRECTION('ref_axis',(0.00337263507899053,0.999994312650139,0.));
#1228=DIRECTION('center_axis',(-0.999994312650139,0.00337263507899053,0.));
#1229=DIRECTION('ref_axis',(0.,0.,1.));
#1230=DIRECTION('',(0.00337263507899053,0.999994312650139,0.));
#1231=DIRECTION('',(0.,0.,1.));
#1232=DIRECTION('center_axis',(0.00254532264420418,-8.58449326018685E-6,
0.999996760624225));
#1233=DIRECTION('ref_axis',(-0.00337263507898202,-0.999994312650139,0.));
#1234=DIRECTION('',(-0.00337263489000944,-0.999994312650776,-4.81003210623266E-13));
#1235=DIRECTION('',(0.999991073292788,-0.00337262415370579,-0.0025453371204269));
#1236=DIRECTION('',(6.1956891381181E-16,-0.999999999963153,-8.58452106832536E-6));
#1237=DIRECTION('center_axis',(-0.9999910732933,0.00337262396477604,0.00254533716930282));
#1238=DIRECTION('ref_axis',(0.00254535164551273,0.,0.999996760587254));
#1239=DIRECTION('',(-0.00422532054561735,-0.798186531418057,-0.602395557527691));
#1240=DIRECTION('',(-0.00337263489000945,-0.999994312650776,-4.84074541925615E-13));
#1241=DIRECTION('',(0.00422532054083811,0.798157857026822,0.602433549806681));
#1242=DIRECTION('',(-2.00970392385483E-7,-0.602438927602784,0.798164982011092));
#1243=DIRECTION('',(-0.00422532054083811,-0.79815785702682,-0.602433549806684));
#1244=DIRECTION('',(0.00254532269307982,-8.58449342502747E-6,0.9999967606241));
#1245=DIRECTION('',(-0.00254532269307981,8.58449342809879E-6,-0.9999967606241));
#1246=DIRECTION('center_axis',(-1.52862755873479E-10,0.602400934984669,
-0.798193656658331));
#1247=DIRECTION('ref_axis',(-0.00422532066697698,-0.798186531417648,-0.602395557527382));
#1248=DIRECTION('',(0.00422532066697698,0.798186531417648,0.602395557527382));
#1249=DIRECTION('',(0.00422532066697698,0.798186531417648,0.602395557527382));
#1250=DIRECTION('',(-0.9999910732933,0.00337262396477552,0.002545337169302));
#1251=DIRECTION('center_axis',(0.999994312650139,-0.00337263507899001,0.));
#1252=DIRECTION('ref_axis',(0.00337263507899001,0.999994312650139,0.));
#1253=DIRECTION('',(-0.00337263507899001,-0.999994312650139,0.));
#1254=DIRECTION('',(0.0026920214822325,0.798190764406882,0.602398752186537));
#1255=DIRECTION('',(0.00337263507899053,0.999994312650139,0.));
#1256=DIRECTION('',(0.0026920214822325,0.798190764406882,0.602398752186537));
#1257=DIRECTION('center_axis',(-0.999991073292808,0.00337250299033005,0.0025454976485058));
#1258=DIRECTION('ref_axis',(0.00422532066219046,0.798157857026413,0.602433549806372));
#1259=DIRECTION('',(0.,0.602438927602285,-0.798164982011494));
#1260=DIRECTION('',(0.00422532066219046,0.798157857026413,0.602433549806372));
#1261=DIRECTION('',(-0.00337251391733302,-0.999994313058768,-3.0840306706459E-10));
#1262=DIRECTION('center_axis',(-0.00254532264419386,8.58449326322338E-6,
-0.999996760624225));
#1263=DIRECTION('ref_axis',(-0.999996760661072,0.,0.00254532264428764));
#1264=DIRECTION('',(-0.9999910732933,0.00337262396477552,0.002545337169302));
#1265=DIRECTION('center_axis',(-0.00422532054083794,-0.798157856514862,
-0.60243355048497));
#1266=DIRECTION('ref_axis',(-2.01123220698849E-7,-0.602438927602269,0.798164982011481));
#1267=DIRECTION('',(2.01123220698849E-7,0.602438927602269,-0.798164982011481));
#1268=DIRECTION('',(-0.9999910732933,0.00337262396477552,0.002545337169302));
#1269=DIRECTION('',(-0.9999910732933,0.00337262396477552,0.002545337169302));
#1270=DIRECTION('center_axis',(-2.0096680166011E-7,-0.602438926924501,0.798164982523047));
#1271=DIRECTION('ref_axis',(0.00422532066219046,0.798157857026413,0.602433549806372));
#1272=DIRECTION('center_axis',(-0.00337263489000945,-0.999994312650776,
-4.81003210623266E-13));
#1273=DIRECTION('ref_axis',(0.00254532264420418,-8.58449326018685E-6,0.999996760624225));
#1274=DIRECTION('',(-1.97208168284581E-30,3.18299004164071E-15,-1.));
#1275=DIRECTION('',(-0.9999910732933,0.00337262396477552,0.002545337169302));
#1276=DIRECTION('',(-0.00254532264420418,8.58449326018685E-6,-0.999996760624225));
#1277=DIRECTION('center_axis',(2.00966801675723E-7,0.602438926924503,-0.798164982523045));
#1278=DIRECTION('ref_axis',(-0.00422532066219046,-0.79815785702641,-0.602433549806375));
#1279=DIRECTION('',(0.00422532066219046,0.79815785702641,0.602433549806375));
#1280=DIRECTION('center_axis',(-0.00337263507893817,-0.999994312650139,
-3.18297193886274E-15));
#1281=DIRECTION('ref_axis',(-0.00254532264419386,8.58449326322338E-6,-0.999996760624225));
#1282=DIRECTION('',(-1.97208168284581E-30,3.18299004164071E-15,-1.));
#1283=DIRECTION('center_axis',(-0.00337263507898202,-0.999994312650139,
0.));
#1284=DIRECTION('ref_axis',(0.,0.,-1.));
#1285=DIRECTION('',(0.999991072651388,-0.00337262415158643,-0.00254558909859318));
#1286=DIRECTION('',(0.00254532264419386,-8.58449326322338E-6,0.999996760624225));
#1287=DIRECTION('',(0.999991073292787,-0.00337262415374965,-0.00254533712040962));
#1288=DIRECTION('',(0.,0.,-1.));
#1289=DIRECTION('center_axis',(-1.,-6.19568913834639E-16,0.));
#1290=DIRECTION('ref_axis',(6.19568913834639E-16,-1.,0.));
#1291=DIRECTION('',(0.,-1.,0.));
#1292=DIRECTION('',(4.94535976885742E-16,-0.79819365665872,-0.602400934984153));
#1293=DIRECTION('center_axis',(0.,-0.602438927602283,0.798164982011496));
#1294=DIRECTION('ref_axis',(0.,-0.798164982011496,-0.602438927602283));
#1295=DIRECTION('',(1.,0.,0.));
#1296=DIRECTION('',(0.00422532066222605,0.79815785702641,0.602433549806375));
#1297=DIRECTION('center_axis',(0.,0.798164982011497,0.602438927602281));
#1298=DIRECTION('ref_axis',(0.,-0.602438927602281,0.798164982011497));
#1299=DIRECTION('',(-1.,0.,0.));
#1300=DIRECTION('',(2.01123260485087E-7,0.602438927602269,-0.798164982011481));
#1301=DIRECTION('center_axis',(0.999991073292787,-0.00337262415375816,-0.00254533712041659));
#1302=DIRECTION('ref_axis',(-0.00337263507899053,-0.999994312650139,0.));
#1303=DIRECTION('',(0.00422532066701257,0.798186531417648,0.602395557527382));
#1304=DIRECTION('',(0.00422532066700578,0.798186531417648,0.602395557527382));
#1305=DIRECTION('center_axis',(0.,-0.602400934984153,0.79819365665872));
#1306=DIRECTION('ref_axis',(0.,-0.79819365665872,-0.602400934984153));
#1307=DIRECTION('',(1.,0.,0.));
#1308=DIRECTION('',(-1.84535274068709E-16,-0.79819365665872,-0.602400934984153));
#1309=DIRECTION('',(1.,4.75750404646169E-16,3.59051323180934E-16));
#1310=DIRECTION('',(0.,0.79819365665872,0.602400934984153));
#1311=DIRECTION('',(1.,0.,0.));
#1312=DIRECTION('center_axis',(0.,-0.602400934984153,0.79819365665872));
#1313=DIRECTION('ref_axis',(0.,-0.79819365665872,-0.602400934984153));
#1314=DIRECTION('center_axis',(-1.,2.31191105728882E-16,0.));
#1315=DIRECTION('ref_axis',(2.31191105728882E-16,1.,0.));
#1316=DIRECTION('',(0.,1.,0.));
#1317=DIRECTION('',(-2.31191105728882E-16,-1.,0.));
#1318=DIRECTION('',(0.,0.,-1.));
#1319=DIRECTION('center_axis',(0.,0.,-1.));
#1320=DIRECTION('ref_axis',(-1.,0.,0.));
#1321=DIRECTION('',(0.,-1.,0.));
#1322=DIRECTION('center_axis',(0.,0.,1.));
#1323=DIRECTION('ref_axis',(-1.,0.,0.));
#1324=DIRECTION('',(0.,-1.,0.));
#1325=DIRECTION('',(1.,4.75750404646169E-16,0.));
#1326=DIRECTION('',(1.,-2.47196888310639E-16,0.));
#1327=DIRECTION('',(-1.89835797884039E-16,1.,0.));
#1328=DIRECTION('center_axis',(1.,0.,0.));
#1329=DIRECTION('ref_axis',(0.,-1.,0.));
#1330=DIRECTION('',(0.,0.,-1.));
#1331=DIRECTION('center_axis',(4.75750404646169E-16,-1.,0.));
#1332=DIRECTION('ref_axis',(-1.,-4.75750404646169E-16,0.));
#1333=DIRECTION('center_axis',(-2.47196888310639E-16,-1.,0.));
#1334=DIRECTION('ref_axis',(1.,-2.47196888310639E-16,0.));
#1335=DIRECTION('',(0.,0.,1.));
#1336=DIRECTION('center_axis',(1.,1.89835797884039E-16,0.));
#1337=DIRECTION('ref_axis',(-1.89835797884039E-16,1.,0.));
#1338=CARTESIAN_POINT('',(0.,0.,0.));
#1339=CARTESIAN_POINT('Origin',(-0.150168460810564,1.29999998428925,-2.13999997413769));
#1340=CARTESIAN_POINT('',(1.19999998549777,1.29999998428925,-2.10000006702003));
#1341=CARTESIAN_POINT('',(-0.150168460810564,1.29999998428925,-2.10000006702003));
#1342=CARTESIAN_POINT('',(-0.300084237585999,1.29999998428925,-2.10000006702003));
#1343=CARTESIAN_POINT('',(1.19999998549777,1.29999998428925,-2.13999997413769));
#1344=CARTESIAN_POINT('',(1.19999998549777,1.29999998428925,-2.13999997413769));
#1345=CARTESIAN_POINT('',(-0.150168460810564,1.29999998428925,-2.13999997413769));
#1346=CARTESIAN_POINT('',(0.554915766815123,1.29999998428925,-2.13999997413769));
#1347=CARTESIAN_POINT('',(-0.150168460810564,1.29999998428925,-2.13999997413769));
#1348=CARTESIAN_POINT('Origin',(-0.150168460810564,1.43681623770779,-2.13999997413769));
#1349=CARTESIAN_POINT('',(-0.150168460810564,1.43681623770779,-2.10000006702003));
#1350=CARTESIAN_POINT('',(-0.150168460810564,1.36181623770779,-2.10000006702003));
#1351=CARTESIAN_POINT('',(-0.150168460810564,1.43681623770779,-2.13999997413769));
#1352=CARTESIAN_POINT('',(-0.150168460810564,1.36181623770779,-2.13999997413769));
#1353=CARTESIAN_POINT('',(-0.150168460810564,1.43681623770779,-2.12999999735827));
#1354=CARTESIAN_POINT('Origin',(1.19999998549777,1.29999998428925,-2.13999997413769));
#1355=CARTESIAN_POINT('',(1.19999998549777,1.43681623770779,-2.10000006702003));
#1356=CARTESIAN_POINT('',(1.19999998549777,1.29340811099852,-2.10000006702003));
#1357=CARTESIAN_POINT('',(1.19999998549777,1.43681623770779,-2.13999997413769));
#1358=CARTESIAN_POINT('',(1.19999998549777,1.43681623770779,-2.12999999735827));
#1359=CARTESIAN_POINT('',(1.19999998549777,1.29340811099852,-2.13999997413769));
#1360=CARTESIAN_POINT('Origin',(-0.450000014361434,1.28681623770779,-2.10000006702003));
#1361=CARTESIAN_POINT('',(-0.500000015957149,1.43681623770779,-2.10000006702003));
#1362=CARTESIAN_POINT('',(-0.500000015957149,1.43681623770779,-2.10000006702003));
#1363=CARTESIAN_POINT('',(-0.499999994561663,1.18681623770779,-2.09999997413769));
#1364=CARTESIAN_POINT('',(-0.500000015957149,1.28681623770779,-2.10000006702003));
#1365=CARTESIAN_POINT('',(1.29999999444081,1.18681623770779,-2.09999997413769));
#1366=CARTESIAN_POINT('',(-0.449999994561663,1.18681623770779,-2.09999997413769));
#1367=CARTESIAN_POINT('',(1.30000004148859,1.43681623770779,-2.10000006702003));
#1368=CARTESIAN_POINT('',(1.30000004148859,1.28681623770779,-2.10000006702003));
#1369=CARTESIAN_POINT('',(-0.500000015957149,1.43681623770779,-2.10000006702003));
#1370=CARTESIAN_POINT('Origin',(0.404999990039688,1.43681623770779,-2.12000002057886));
#1371=CARTESIAN_POINT('',(-0.450000014361434,1.43681623770779,-2.13999997413769));
#1372=CARTESIAN_POINT('',(1.25999999444081,1.43681623770779,-2.13999997413769));
#1373=CARTESIAN_POINT('',(-0.449999994561663,1.43681623770779,-4.02922297373068));
#1374=CARTESIAN_POINT('',(-0.449999994561663,1.43681623770779,-2.10000006702003));
#1375=CARTESIAN_POINT('',(-0.500000015957149,1.43681623770779,-4.02922297373068));
#1376=CARTESIAN_POINT('',(-0.449999994561663,1.43681623770779,-4.02922297373068));
#1377=CARTESIAN_POINT('',(-0.500000015957149,1.43681623770779,-4.02922297373068));
#1378=CARTESIAN_POINT('Origin',(0.0234428086565821,1.19971794837649,-2.91870078740135));
#1379=CARTESIAN_POINT('',(-1.42999998271817,1.10364116058756,-1.69370078740135));
#1380=CARTESIAN_POINT('',(-1.42999998271817,1.29971623770779,-4.19370078740135));
#1381=CARTESIAN_POINT('',(-1.42999998271817,1.21164812333628,-3.07081312027694));
#1382=CARTESIAN_POINT('',(1.50999998175136,1.10364116058756,-1.69370078740135));
#1383=CARTESIAN_POINT('',(-0.7344421001647,1.10364116058756,-1.69370078740135));
#1384=CARTESIAN_POINT('',(1.50999998175136,1.29971623770779,-4.19370078740135));
#1385=CARTESIAN_POINT('',(1.50999998175136,1.20240120823776,-2.95291293588924));
#1386=CARTESIAN_POINT('',(-1.49754422337032,1.29971623770779,-4.19370078740135));
#1387=CARTESIAN_POINT('',(1.29999999444081,1.18681623770779,-2.75420116233192));
#1388=CARTESIAN_POINT('',(-0.499999994561663,1.18681623770779,-2.75420116233184));
#1389=CARTESIAN_POINT('',(-0.213278592952533,1.18681623770779,-2.75420116233186));
#1390=CARTESIAN_POINT('',(-0.500000015957149,1.28681623770779,-4.02922297373068));
#1391=CARTESIAN_POINT('',(-0.499999994561663,1.16963412025095,-2.53512541709697));
#1392=CARTESIAN_POINT('',(-0.449999994561663,1.28681623770779,-4.02922297373068));
#1393=CARTESIAN_POINT('',(-0.21327859295254,1.28681623770779,-4.02922297373068));
#1394=CARTESIAN_POINT('',(1.25999999444081,1.28681623770779,-4.02922297373076));
#1395=CARTESIAN_POINT('',(0.0142214042979896,1.28681623770779,-4.02922297373072));
#1396=CARTESIAN_POINT('',(1.30000004148859,1.28681623770779,-4.02922297373076));
#1397=CARTESIAN_POINT('',(0.661721425072585,1.28681623770779,-4.02922297373076));
#1398=CARTESIAN_POINT('',(1.29999999444081,1.24914366608595,-3.54888946863751));
#1399=CARTESIAN_POINT('Origin',(1.25999999444081,1.28681623770779,-4.02922297373076));
#1400=CARTESIAN_POINT('',(1.25999999444081,1.28681623770779,-2.13999997413769));
#1401=CARTESIAN_POINT('',(1.25999999444081,1.43681623770779,-2.13999997413769));
#1402=CARTESIAN_POINT('',(1.25999999444081,1.28681623770779,-2.13999997413769));
#1403=CARTESIAN_POINT('',(1.25999999444081,1.43681623770779,-4.02922297373076));
#1404=CARTESIAN_POINT('',(1.25999999444081,1.43681623770779,-2.10000006702003));
#1405=CARTESIAN_POINT('',(1.25999999444081,1.28681623770779,-4.02922297373076));
#1406=CARTESIAN_POINT('',(1.25999999444081,1.28681623770779,-2.13999997413769));
#1407=CARTESIAN_POINT('Origin',(1.30000004148859,1.28681623770779,-4.02922297373076));
#1408=CARTESIAN_POINT('',(1.30000004148859,1.43681623770779,-4.02922297373076));
#1409=CARTESIAN_POINT('',(1.25999999444081,1.43681623770779,-4.02922297373076));
#1410=CARTESIAN_POINT('',(1.30000004148859,1.28681623770779,-4.02922297373076));
#1411=CARTESIAN_POINT('Origin',(1.30000004148859,1.28681623770779,-2.10000006702003));
#1412=CARTESIAN_POINT('',(1.30000004148859,1.43681623770779,-4.02922297373076));
#1413=CARTESIAN_POINT('',(1.29999999444081,1.18681623770779,-2.13999997413769));
#1414=CARTESIAN_POINT('Origin',(-0.449999994561663,1.28681623770779,-2.10000006702003));
#1415=CARTESIAN_POINT('',(-0.449999994561663,1.28681623770779,-2.13999997413769));
#1416=CARTESIAN_POINT('',(-0.450000014361434,1.28681623770779,-2.13999997413769));
#1417=CARTESIAN_POINT('',(-0.449999994561663,1.28681623770779,-4.17999994948389));
#1418=CARTESIAN_POINT('',(-0.449999994561663,1.28681623770779,-4.02922297373068));
#1419=CARTESIAN_POINT('Origin',(-0.500000015957149,1.28681623770779,-4.02922297373068));
#1420=CARTESIAN_POINT('',(-0.500000015957149,1.28681623770779,-4.02922297373068));
#1421=CARTESIAN_POINT('',(-0.499999994561663,1.18681623770779,-2.13999997413769));
#1422=CARTESIAN_POINT('Origin',(-0.449999994561663,1.28681623770779,-4.02922297373068));
#1423=CARTESIAN_POINT('Origin',(1.25999999444081,1.28681623770779,-2.13999997413769));
#1424=CARTESIAN_POINT('',(1.25999999444081,1.43681623770779,-2.13999997413769));
#1425=CARTESIAN_POINT('',(-0.449999994561663,1.28681623770779,-2.13999997413769));
#1426=CARTESIAN_POINT('Origin',(0.404999990039688,1.43681623770779,-2.12000002057886));
#1427=CARTESIAN_POINT('Origin',(1.54442984068348,1.29971965904516,-4.19370078740135));
#1428=CARTESIAN_POINT('',(1.54442984068348,1.29971965904516,-4.19370078740135));
#1429=CARTESIAN_POINT('',(1.54442984068348,1.19940914574821,-4.19370078740135));
#1430=CARTESIAN_POINT('',(1.54442984068348,1.29971965904516,-4.19370078740135));
#1431=CARTESIAN_POINT('',(1.54442984068348,1.29971965904516,-1.64370078740135));
#1432=CARTESIAN_POINT('',(1.54442984068348,1.29971965904516,-1.69370078740135));
#1433=CARTESIAN_POINT('',(1.54442984068348,1.09971965904516,-1.64370078740135));
#1434=CARTESIAN_POINT('',(1.54442984068348,1.29971965904516,-1.64370078740135));
#1435=CARTESIAN_POINT('',(1.54442984068348,1.00002581083721,-1.65151977899166));
#1436=CARTESIAN_POINT('',(1.54442984068348,1.09971965904516,-1.64370078740135));
#1437=CARTESIAN_POINT('',(1.54442984068348,1.20002238949984,-4.20151977899166));
#1438=CARTESIAN_POINT('Origin',(0.0234428086565814,1.10002410016853,-2.92651977899166));
#1439=CARTESIAN_POINT('',(-1.49754422337032,1.19940914574821,-4.19370078740135));
#1440=CARTESIAN_POINT('',(0.783712381815604,1.19940914574821,-4.19370078740135));
#1441=CARTESIAN_POINT('',(-1.49754422337032,1.00002581083721,-1.65151977899166));
#1442=CARTESIAN_POINT('',(1.54442984068348,1.00002581083721,-1.65151977899166));
#1443=CARTESIAN_POINT('',(-1.49754422337032,1.00002581083721,-1.65151977899166));
#1444=CARTESIAN_POINT('Origin',(1.54442984068348,1.09971965904516,-1.64370078740135));
#1445=CARTESIAN_POINT('',(-1.49754422337032,1.09971965904516,-1.64370078740135));
#1446=CARTESIAN_POINT('',(1.54442984068348,1.09971965904516,-1.64370078740135));
#1447=CARTESIAN_POINT('',(-1.49754422337032,1.09971965904516,-1.64370078740135));
#1448=CARTESIAN_POINT('Origin',(0.00499999993957403,1.18681623770779,-3.15999996181079));
#1449=CARTESIAN_POINT('Origin',(0.00499999993957403,1.28681623770779,-3.15999996181079));
#1450=CARTESIAN_POINT('Origin',(1.48034420128983,3.5815286792667,-1.66870078740135));
#1451=CARTESIAN_POINT('',(1.48034420128983,1.52328175574687,-1.64370078740135));
#1452=CARTESIAN_POINT('',(1.48034420128983,4.33627388173112,-1.64370078740135));
#1453=CARTESIAN_POINT('',(1.48034420128983,3.5815286792667,-1.64370078740135));
#1454=CARTESIAN_POINT('',(1.45534420128983,4.31127388173112,-1.66870078740135));
#1455=CARTESIAN_POINT('Origin',(1.48034420128983,4.33627388173112,-1.66870078740135));
#1456=CARTESIAN_POINT('',(1.45534420128983,1.54828175574687,-1.66870078740135));
#1457=CARTESIAN_POINT('',(1.45534420128983,3.5815286792667,-1.66870078740135));
#1458=CARTESIAN_POINT('Origin',(1.48034420128983,1.52328175574687,-1.66870078740135));
#1459=CARTESIAN_POINT('Origin',(-0.672564816968482,4.33627388173112,-1.66870078740135));
#1460=CARTESIAN_POINT('',(-1.39878965697788,4.33627388173112,-1.64370078740135));
#1461=CARTESIAN_POINT('',(-0.672564816968482,4.33627388173112,-1.64370078740135));
#1462=CARTESIAN_POINT('',(-1.37378965697788,4.31127388173112,-1.66870078740135));
#1463=CARTESIAN_POINT('Origin',(-1.39878965697788,4.33627388173112,-1.66870078740135));
#1464=CARTESIAN_POINT('',(-0.672564816968482,4.31127388173112,-1.66870078740135));
#1465=CARTESIAN_POINT('Origin',(-1.39878965697788,2.20003261627457,-1.66870078740135));
#1466=CARTESIAN_POINT('',(-1.39878965697788,1.52328175574687,-1.64370078740135));
#1467=CARTESIAN_POINT('',(-1.39878965697788,2.20003261627457,-1.64370078740135));
#1468=CARTESIAN_POINT('',(-1.37378965697788,1.54828175574687,-1.66870078740135));
#1469=CARTESIAN_POINT('Origin',(-1.39878965697788,1.52328175574687,-1.66870078740135));
#1470=CARTESIAN_POINT('',(-1.37378965697788,2.20003261627457,-1.66870078740135));
#1471=CARTESIAN_POINT('Origin',(0.742002112165376,1.52328175574687,-1.66870078740135));
#1472=CARTESIAN_POINT('',(0.742002112165376,1.54828175574687,-1.66870078740135));
#1473=CARTESIAN_POINT('',(0.742002112165376,1.52328175574687,-1.64370078740135));
#1474=CARTESIAN_POINT('Origin',(1.45534420128983,1.54828175574687,-1.69370078740135));
#1475=CARTESIAN_POINT('',(1.45534420128983,1.54828175574687,-1.69370078740135));
#1476=CARTESIAN_POINT('',(1.45534420128983,1.54828175574687,-1.69370078740135));
#1477=CARTESIAN_POINT('',(-1.37378965697788,1.54828175574687,-1.69370078740135));
#1478=CARTESIAN_POINT('',(-1.37378965697788,1.54828175574687,-1.69370078740135));
#1479=CARTESIAN_POINT('',(-1.37378965697788,1.54828175574687,-1.69370078740135));
#1480=CARTESIAN_POINT('Origin',(1.45534420128983,4.31127388173112,-1.69370078740135));
#1481=CARTESIAN_POINT('',(1.45534420128983,4.31127388173112,-1.69370078740135));
#1482=CARTESIAN_POINT('',(1.45534420128983,4.31127388173112,-1.69370078740135));
#1483=CARTESIAN_POINT('',(1.45534420128983,4.31127388173112,-1.69370078740135));
#1484=CARTESIAN_POINT('Origin',(0.0286600230409197,2.85178347680228,-1.64370078740135));
#1485=CARTESIAN_POINT('',(-1.49739777779523,4.44726875545564,-1.64370078740135));
#1486=CARTESIAN_POINT('',(1.55504543555348,4.44726875545564,-1.64370078740135));
#1487=CARTESIAN_POINT('',(0.0286600230409197,4.44726875545564,-1.64370078740135));
#1488=CARTESIAN_POINT('',(-1.49754422337032,4.40384729455939,-1.64370078740135));
#1489=CARTESIAN_POINT('',(-1.49754422337032,4.40384729455939,-1.64370078740135));
#1490=CARTESIAN_POINT('',(-1.49754422337032,1.29971965904516,-1.64370078740135));
#1491=CARTESIAN_POINT('',(1.55486426945216,4.39355257605142,-1.64370078740135));
#1492=CARTESIAN_POINT('Origin',(0.0286600230409197,4.44726875545564,-1.84370078740135));
#1493=CARTESIAN_POINT('',(1.55545177356946,4.56774894245247,-2.00333951873309));
#1494=CARTESIAN_POINT('Origin',(1.55504543555348,4.44726875545564,-1.84370078740135));
#1495=CARTESIAN_POINT('',(-1.49689549017575,4.56774894245247,-2.00333951873309));
#1496=CARTESIAN_POINT('',(0.0286600230409197,4.56774894245247,-2.00333951873309));
#1497=CARTESIAN_POINT('',(-1.49689649021876,4.56774894245247,-2.00333951873309));
#1498=CARTESIAN_POINT('',(0.0286600230409197,4.56774894259306,-2.00333951891915));
#1499=CARTESIAN_POINT('',(-1.4968854239425,4.56982909306034,-2.0017481336183));
#1500=CARTESIAN_POINT('Origin',(-1.49689649018819,4.44726875545564,-1.84370078740135));
#1501=CARTESIAN_POINT('',(-1.4969844230545,4.56982941801046,-2.00174788163001));
#1502=CARTESIAN_POINT('',(-1.49721477565094,4.5698301740962,-2.00174729529994));
#1503=CARTESIAN_POINT('Origin',(-1.49739777779523,4.44726875545564,-1.84370078740135));
#1504=CARTESIAN_POINT('Origin',(-1.49754422337032,4.40384729455939,-2.00174788163001));
#1505=CARTESIAN_POINT('',(-1.49754422337032,4.4038472945594,-2.00174788163001));
#1506=CARTESIAN_POINT('',(-1.49754422337032,4.4038472945594,-2.00174788163001));
#1507=CARTESIAN_POINT('',(-1.49754422337032,4.40384729455939,-1.69370078740135));
#1508=CARTESIAN_POINT('Origin',(-1.49698432701341,4.56985789442383,-2.00174788163001));
#1509=CARTESIAN_POINT('',(-1.4975126769549,4.3838470744166,-2.00174813361839));
#1510=CARTESIAN_POINT('',(-1.49716527609433,4.48685226060189,-2.00174813361834));
#1511=CARTESIAN_POINT('',(-1.49754422337032,4.38384718081175,-2.00174805332141));
#1512=CARTESIAN_POINT('',(-1.4976116760719,4.38384740830639,-2.00174788163001));
#1513=CARTESIAN_POINT('',(-1.49754422337032,4.39870122417555,-2.00174792580657));
#1514=CARTESIAN_POINT('Origin',(-1.4974452242571,4.40384696066962,-2.00174813361838));
#1515=CARTESIAN_POINT('',(-1.49758674526531,4.43735592837268,-2.10174780968077));
#1516=CARTESIAN_POINT('',(-1.49716527610198,4.5169737954548,-2.04165978821931));
#1517=CARTESIAN_POINT('',(-1.49758676012119,4.43735160335972,-2.10174791540485));
#1518=CARTESIAN_POINT('',(-1.49764325089586,4.42060187374582,-2.10174780968078));
#1519=CARTESIAN_POINT('',(-1.49749972668506,4.45379211247521,-2.08933894870751));
#1520=CARTESIAN_POINT('',(-1.49751598214072,4.45072147687981,-2.09165660289786));
#1521=CARTESIAN_POINT('',(-1.49749974678079,4.39355216171726,-2.00952767322372));
#1522=CARTESIAN_POINT('',(-1.49749973673366,4.42366991757946,-2.04943037035124));
#1523=CARTESIAN_POINT('',(-1.49755112338575,4.38384718418437,-2.01685279570978));
#1524=CARTESIAN_POINT('',(-1.4974724855182,4.39870178071352,-2.0056408440398));
#1525=CARTESIAN_POINT('',(-1.49754422337032,4.38384718081175,-2.01414197009016));
#1526=CARTESIAN_POINT('',(-1.49753190013677,4.38384713924974,-2.00930046466408));
#1527=CARTESIAN_POINT('',(-1.4975126769549,4.3838470744166,-2.00174813361839));
#1528=CARTESIAN_POINT('Origin',(-1.49688432790609,4.56985755716141,-2.00174813616372));
#1529=CARTESIAN_POINT('',(-1.49749872667723,4.45379421850887,-2.08934174598311));
#1530=CARTESIAN_POINT('',(-1.49614523059235,4.70947714292189,-1.89637650322406));
#1531=CARTESIAN_POINT('',(-1.49758574525998,4.43735592500001,-2.10174781222615));
#1532=CARTESIAN_POINT('',(-1.49614523059235,4.70947714292189,-1.89637650322406));
#1533=CARTESIAN_POINT('',(-1.49758574525998,4.43735592500001,-2.10174781222615));
#1534=CARTESIAN_POINT('Origin',(1.54442984068348,1.29971965904516,-1.69370078740135));
#1535=CARTESIAN_POINT('',(1.54510351100544,1.49946450981596,-4.19370078740135));
#1536=CARTESIAN_POINT('',(1.55486426945216,4.39355257605142,-4.19370078740135));
#1537=CARTESIAN_POINT('',(1.55486426945216,4.39355257605142,-2.00951735962933));
#1538=CARTESIAN_POINT('',(1.55180267498819,3.48578254463612,-2.69461615879077));
#1539=CARTESIAN_POINT('',(1.55542416580907,4.55956317591585,-2.00951735962933));
#1540=CARTESIAN_POINT('',(1.55486426945216,4.39355257605142,-2.00951735962933));
#1541=CARTESIAN_POINT('',(1.55283346724147,3.79141489639008,-2.58924289106216));
#1542=CARTESIAN_POINT('Origin',(-1.49758576011586,4.43735159998705,-2.10174791795022));
#1543=CARTESIAN_POINT('',(-1.49749872667723,4.45379210910253,-2.08933895125289));
#1544=CARTESIAN_POINT('',(-1.49749872667723,4.45379210910253,-2.08933895125289));
#1545=CARTESIAN_POINT('',(-1.49758576011586,4.43735159998705,-2.10174791795022));
#1546=CARTESIAN_POINT('',(-1.49749421376059,4.45464459348508,-2.0886955131307));
#1547=CARTESIAN_POINT('',(-1.497642256781,4.42059952294575,-2.10174781223131));
#1548=CARTESIAN_POINT('Origin',(1.55460973718774,4.39355343450075,-2.10951703569175));
#1549=CARTESIAN_POINT('',(-1.49758576011586,4.43735159998705,-2.10174791795022));
#1550=CARTESIAN_POINT('Origin',(-1.49749872667723,4.45379210910253,-2.08933895125289));
#1551=CARTESIAN_POINT('',(-1.49749874678824,4.39355215834463,-2.00952767576906));
#1552=CARTESIAN_POINT('',(-1.49749873673348,4.42366991420405,-2.04943037289295));
#1553=CARTESIAN_POINT('',(-1.49749874678824,4.39355215834463,-2.00952767576906));
#1554=CARTESIAN_POINT('',(-1.49749872667723,4.45379210910253,-2.08933895125289));
#1555=CARTESIAN_POINT('Origin',(-1.49758576011586,4.43735159998705,-2.10174791795022));
#1556=CARTESIAN_POINT('Origin',(-1.49755012332756,4.38384720071026,-2.01685279825512));
#1557=CARTESIAN_POINT('',(-1.49754422337032,4.38384718081175,-2.01453484530432));
#1558=CARTESIAN_POINT('',(-1.49754422337032,4.38384718081175,-1.84772433451568));
#1559=CARTESIAN_POINT('',(-1.49755012339468,4.38384718081175,-2.01685279825512));
#1560=CARTESIAN_POINT('',(-1.49755012339468,4.38384718081175,-2.01685279825512));
#1561=CARTESIAN_POINT('',(-1.49751167696457,4.38384707104397,-2.00174813616371));
#1562=CARTESIAN_POINT('Origin',(-1.49749874678824,4.39355215834463,-2.00952767576906));
#1563=CARTESIAN_POINT('',(-1.49747148593083,4.39870170065662,-2.00564090446489));
#1564=CARTESIAN_POINT('Origin',(-1.4976116760719,4.38384740830639,-2.00174788163001));
#1565=CARTESIAN_POINT('',(-1.49754422337032,4.38384718081175,-1.84772433451568));
#1566=CARTESIAN_POINT('Origin',(1.55479681675058,4.37355268979845,-2.00951735962933));
#1567=CARTESIAN_POINT('',(1.55475836846814,4.37355281947118,-2.02462277582383));
#1568=CARTESIAN_POINT('',(0.0285813818783508,4.37870008678723,-2.02073772164099));
#1569=CARTESIAN_POINT('',(1.55475839772681,4.37355281937251,-2.02461128078785));
#1570=CARTESIAN_POINT('',(1.55479681675058,4.37355268979842,-2.00951735962933));
#1571=CARTESIAN_POINT('',(-1.49754422337032,4.38384718081175,-2.01684207227017));
#1572=CARTESIAN_POINT('',(0.0285541513155726,4.3787001786265,-2.02072654178818));
#1573=CARTESIAN_POINT('',(-1.49754422337032,4.38384718081175,-1.85160907351534));
#1574=CARTESIAN_POINT('Origin',(-1.49754422337032,4.40384729455939,-1.69370078740135));
#1575=CARTESIAN_POINT('',(-1.49754422337032,1.49946450981596,-4.19370078740135));
#1576=CARTESIAN_POINT('',(-1.49754422337032,1.29971965904516,-4.19370078740135));
#1577=CARTESIAN_POINT('',(-1.49754422337032,4.47790683796045,-1.94585475617466));
#1578=CARTESIAN_POINT('Origin',(-1.49754422337032,4.39355215834463,-2.00952767576906));
#1579=CARTESIAN_POINT('',(1.55486424178509,4.39355215834463,-2.00952767576906));
#1580=CARTESIAN_POINT('',(-1.49754422337032,4.39355215834463,-2.00952767576906));
#1581=CARTESIAN_POINT('',(1.55511694590579,4.44128765478635,-1.97349788000875));
#1582=CARTESIAN_POINT('Origin',(-1.49754422337032,4.45379210910253,-2.08933895125289));
#1583=CARTESIAN_POINT('',(1.5548642618961,4.45379421850887,-2.08934174598311));
#1584=CARTESIAN_POINT('',(-1.49752147502378,4.45379421850887,-2.08934174598311));
#1585=CARTESIAN_POINT('',(1.55486426189703,4.45379487882221,-2.08934262082528));
#1586=CARTESIAN_POINT('Origin',(1.55542416580907,4.55956317591585,-2.00951735962933));
#1587=CARTESIAN_POINT('',(1.55644321130127,4.75206652675566,-1.86423407208866));
#1588=CARTESIAN_POINT('',(1.55473700331995,4.36951129714249,-2.02766143879125));
#1589=CARTESIAN_POINT('Origin',(-1.49754422337032,4.4038472945594,-2.00174788163001));
#1590=CARTESIAN_POINT('',(1.50999998175136,1.49946450981596,-4.19370078740135));
#1591=CARTESIAN_POINT('',(-0.7344421001647,1.49946450981596,-4.19370078740135));
#1592=CARTESIAN_POINT('',(1.50999998175136,4.36499994724813,-2.03106617819469));
#1593=CARTESIAN_POINT('',(1.50999998175136,3.50189818819276,-2.68245359815727));
#1594=CARTESIAN_POINT('',(-1.42999998271817,4.36499994724813,-2.03106617819469));
#1595=CARTESIAN_POINT('',(0.00622787919051953,4.36499994724813,-2.03106617819469));
#1596=CARTESIAN_POINT('',(-1.42999998271817,1.49946450981596,-4.19370078740135));
#1597=CARTESIAN_POINT('',(-1.42999998271817,4.46553176076151,-1.95519429177852));
#1598=CARTESIAN_POINT('',(-0.7344421001647,1.49946450981596,-4.19370078740135));
#1599=CARTESIAN_POINT('Origin',(-1.49754422337032,4.95487335821651,-1.71117469373604));
#1600=CARTESIAN_POINT('Origin',(1.50999998175136,1.33999998380584,-1.69370078740135));
#1601=CARTESIAN_POINT('',(1.50999998175136,2.09589173030406,-4.19370078740135));
#1602=CARTESIAN_POINT('',(1.50999998175136,4.36499994724813,-1.69370078740135));
#1603=CARTESIAN_POINT('',(1.50999998175136,2.09589173030406,-1.69370078740135));
#1604=CARTESIAN_POINT('',(1.50999998175136,4.36499994724813,-1.69370078740135));
#1605=CARTESIAN_POINT('Origin',(0.0286600230409197,2.85178347680228,-4.19370078740135));
#1606=CARTESIAN_POINT('',(-1.42999998271817,1.29971965904516,-4.19370078740135));
#1607=CARTESIAN_POINT('Origin',(0.0286600230409196,2.85178347680228,-1.69370078740135));
#1608=CARTESIAN_POINT('',(-1.42999998271817,4.36499994724813,-1.69370078740135));
#1609=CARTESIAN_POINT('',(-1.42999998271817,1.29971965904516,-1.69370078740135));
#1610=CARTESIAN_POINT('',(0.769330002396138,4.36499994724813,-1.69370078740135));
#1611=CARTESIAN_POINT('',(-1.37378965697788,4.31127388173112,-1.69370078740135));
#1612=CARTESIAN_POINT('',(-1.37378965697788,4.31127388173112,-1.69370078740135));
#1613=CARTESIAN_POINT('',(-1.37378965697788,1.54828175574687,-1.69370078740135));
#1614=CARTESIAN_POINT('Origin',(-1.42999998271817,4.36499994724813,-1.69370078740135));
#1615=CARTESIAN_POINT('',(-1.42999998271817,4.36499994724813,-1.69370078740135));
#1616=CARTESIAN_POINT('Origin',(1.50999998175136,4.36499994724813,-1.69370078740135));
#1617=CARTESIAN_POINT('Origin',(-1.37378965697788,4.31127388173112,-1.69370078740135));
#1618=CARTESIAN_POINT('',(-1.37378965697788,4.31127388173112,-1.69370078740135));
#1619=CARTESIAN_POINT('Origin',(-1.37378965697788,1.54828175574687,-1.69370078740135));
#1620=UNCERTAINTY_MEASURE_WITH_UNIT(LENGTH_MEASURE(0.000393700787401575),
#1625,'DISTANCE_ACCURACY_VALUE',
'Maximum model space distance between geometric entities at asserted c
onnectivities');
#1621=UNCERTAINTY_MEASURE_WITH_UNIT(LENGTH_MEASURE(0.000393700787401575),
#1625,'DISTANCE_ACCURACY_VALUE',
'Maximum model space distance between geometric entities at asserted c
onnectivities');
#1622=(
GEOMETRIC_REPRESENTATION_CONTEXT(3)
GLOBAL_UNCERTAINTY_ASSIGNED_CONTEXT((#1620))
GLOBAL_UNIT_ASSIGNED_CONTEXT((#1625,#1629,#1630))
REPRESENTATION_CONTEXT('','3D')
);
#1623=(
GEOMETRIC_REPRESENTATION_CONTEXT(3)
GLOBAL_UNCERTAINTY_ASSIGNED_CONTEXT((#1621))
GLOBAL_UNIT_ASSIGNED_CONTEXT((#1625,#1629,#1630))
REPRESENTATION_CONTEXT('','3D')
);
#1624=DIMENSIONAL_EXPONENTS(1.,0.,0.,0.,0.,0.,0.);
#1625=(
CONVERSION_BASED_UNIT('inch',#1628)
LENGTH_UNIT()
NAMED_UNIT(#1624)
);
#1626=(
LENGTH_UNIT()
NAMED_UNIT(*)
SI_UNIT(.MILLI.,.METRE.)
);
#1627=(
LENGTH_UNIT()
NAMED_UNIT(*)
SI_UNIT($,.METRE.)
);
#1628=LENGTH_MEASURE_WITH_UNIT(LENGTH_MEASURE(25.4),#1626);
#1629=(
NAMED_UNIT(*)
PLANE_ANGLE_UNIT()
SI_UNIT($,.RADIAN.)
);
#1630=(
NAMED_UNIT(*)
SI_UNIT($,.STERADIAN.)
SOLID_ANGLE_UNIT()
);
#1631=SHAPE_DEFINITION_REPRESENTATION(#1632,#1633);
#1632=PRODUCT_DEFINITION_SHAPE('',$,#1635);
#1633=SHAPE_REPRESENTATION('',(#1023),#1622);
#1634=PRODUCT_DEFINITION_CONTEXT('part definition',#1639,'design');
#1635=PRODUCT_DEFINITION('External1','External1 v4',#1636,#1634);
#1636=PRODUCT_DEFINITION_FORMATION('',$,#1641);
#1637=PRODUCT_RELATED_PRODUCT_CATEGORY('External1 v4','External1 v4',(#1641));
#1638=APPLICATION_PROTOCOL_DEFINITION('international standard',
'automotive_design',2009,#1639);
#1639=APPLICATION_CONTEXT(
'Core Data for Automotive Mechanical Design Process');
#1640=PRODUCT_CONTEXT('part definition',#1639,'mechanical');
#1641=PRODUCT('External1','External1 v4',$,(#1640));
#1642=PRESENTATION_STYLE_ASSIGNMENT((#1682));
#1643=PRESENTATION_STYLE_ASSIGNMENT((#1683));
#1644=PRESENTATION_STYLE_ASSIGNMENT((#1684));
#1645=PRESENTATION_STYLE_ASSIGNMENT((#1685));
#1646=PRESENTATION_STYLE_ASSIGNMENT((#1686));
#1647=PRESENTATION_STYLE_ASSIGNMENT((#1687));
#1648=PRESENTATION_STYLE_ASSIGNMENT((#1688));
#1649=PRESENTATION_STYLE_ASSIGNMENT((#1689));
#1650=PRESENTATION_STYLE_ASSIGNMENT((#1690));
#1651=PRESENTATION_STYLE_ASSIGNMENT((#1691));
#1652=PRESENTATION_STYLE_ASSIGNMENT((#1692));
#1653=PRESENTATION_STYLE_ASSIGNMENT((#1693));
#1654=PRESENTATION_STYLE_ASSIGNMENT((#1694));
#1655=PRESENTATION_STYLE_ASSIGNMENT((#1695));
#1656=PRESENTATION_STYLE_ASSIGNMENT((#1696));
#1657=PRESENTATION_STYLE_ASSIGNMENT((#1697));
#1658=PRESENTATION_STYLE_ASSIGNMENT((#1698));
#1659=PRESENTATION_STYLE_ASSIGNMENT((#1699));
#1660=PRESENTATION_STYLE_ASSIGNMENT((#1700));
#1661=PRESENTATION_STYLE_ASSIGNMENT((#1701));
#1662=PRESENTATION_STYLE_ASSIGNMENT((#1702));
#1663=PRESENTATION_STYLE_ASSIGNMENT((#1703));
#1664=PRESENTATION_STYLE_ASSIGNMENT((#1704));
#1665=PRESENTATION_STYLE_ASSIGNMENT((#1705));
#1666=PRESENTATION_STYLE_ASSIGNMENT((#1706));
#1667=PRESENTATION_STYLE_ASSIGNMENT((#1707));
#1668=PRESENTATION_STYLE_ASSIGNMENT((#1708));
#1669=PRESENTATION_STYLE_ASSIGNMENT((#1709));
#1670=PRESENTATION_STYLE_ASSIGNMENT((#1710));
#1671=PRESENTATION_STYLE_ASSIGNMENT((#1711));
#1672=PRESENTATION_STYLE_ASSIGNMENT((#1712));
#1673=PRESENTATION_STYLE_ASSIGNMENT((#1713));
#1674=PRESENTATION_STYLE_ASSIGNMENT((#1714));
#1675=PRESENTATION_STYLE_ASSIGNMENT((#1715));
#1676=PRESENTATION_STYLE_ASSIGNMENT((#1716));
#1677=PRESENTATION_STYLE_ASSIGNMENT((#1717));
#1678=PRESENTATION_STYLE_ASSIGNMENT((#1718));
#1679=PRESENTATION_STYLE_ASSIGNMENT((#1719));
#1680=PRESENTATION_STYLE_ASSIGNMENT((#1720));
#1681=PRESENTATION_STYLE_ASSIGNMENT((#1721));
#1682=SURFACE_STYLE_USAGE(.BOTH.,#1722);
#1683=SURFACE_STYLE_USAGE(.BOTH.,#1723);
#1684=SURFACE_STYLE_USAGE(.BOTH.,#1724);
#1685=SURFACE_STYLE_USAGE(.BOTH.,#1725);
#1686=SURFACE_STYLE_USAGE(.BOTH.,#1726);
#1687=SURFACE_STYLE_USAGE(.BOTH.,#1727);
#1688=SURFACE_STYLE_USAGE(.BOTH.,#1728);
#1689=SURFACE_STYLE_USAGE(.BOTH.,#1729);
#1690=SURFACE_STYLE_USAGE(.BOTH.,#1730);
#1691=SURFACE_STYLE_USAGE(.BOTH.,#1731);
#1692=SURFACE_STYLE_USAGE(.BOTH.,#1732);
#1693=SURFACE_STYLE_USAGE(.BOTH.,#1733);
#1694=SURFACE_STYLE_USAGE(.BOTH.,#1734);
#1695=SURFACE_STYLE_USAGE(.BOTH.,#1735);
#1696=SURFACE_STYLE_USAGE(.BOTH.,#1736);
#1697=SURFACE_STYLE_USAGE(.BOTH.,#1737);
#1698=SURFACE_STYLE_USAGE(.BOTH.,#1738);
#1699=SURFACE_STYLE_USAGE(.BOTH.,#1739);
#1700=SURFACE_STYLE_USAGE(.BOTH.,#1740);
#1701=SURFACE_STYLE_USAGE(.BOTH.,#1741);
#1702=SURFACE_STYLE_USAGE(.BOTH.,#1742);
#1703=SURFACE_STYLE_USAGE(.BOTH.,#1743);
#1704=SURFACE_STYLE_USAGE(.BOTH.,#1744);
#1705=SURFACE_STYLE_USAGE(.BOTH.,#1745);
#1706=SURFACE_STYLE_USAGE(.BOTH.,#1746);
#1707=SURFACE_STYLE_USAGE(.BOTH.,#1747);
#1708=SURFACE_STYLE_USAGE(.BOTH.,#1748);
#1709=SURFACE_STYLE_USAGE(.BOTH.,#1749);
#1710=SURFACE_STYLE_USAGE(.BOTH.,#1750);
#1711=SURFACE_STYLE_USAGE(.BOTH.,#1751);
#1712=SURFACE_STYLE_USAGE(.BOTH.,#1752);
#1713=SURFACE_STYLE_USAGE(.BOTH.,#1753);
#1714=SURFACE_STYLE_USAGE(.BOTH.,#1754);
#1715=SURFACE_STYLE_USAGE(.BOTH.,#1755);
#1716=SURFACE_STYLE_USAGE(.BOTH.,#1756);
#1717=SURFACE_STYLE_USAGE(.BOTH.,#1757);
#1718=SURFACE_STYLE_USAGE(.BOTH.,#1758);
#1719=SURFACE_STYLE_USAGE(.BOTH.,#1759);
#1720=SURFACE_STYLE_USAGE(.BOTH.,#1760);
#1721=SURFACE_STYLE_USAGE(.BOTH.,#1761);
#1722=SURFACE_SIDE_STYLE('',(#1762));
#1723=SURFACE_SIDE_STYLE('',(#1763));
#1724=SURFACE_SIDE_STYLE('',(#1764));
#1725=SURFACE_SIDE_STYLE('',(#1765));
#1726=SURFACE_SIDE_STYLE('',(#1766));
#1727=SURFACE_SIDE_STYLE('',(#1767));
#1728=SURFACE_SIDE_STYLE('',(#1768));
#1729=SURFACE_SIDE_STYLE('',(#1769));
#1730=SURFACE_SIDE_STYLE('',(#1770));
#1731=SURFACE_SIDE_STYLE('',(#1771));
#1732=SURFACE_SIDE_STYLE('',(#1772));
#1733=SURFACE_SIDE_STYLE('',(#1773));
#1734=SURFACE_SIDE_STYLE('',(#1774));
#1735=SURFACE_SIDE_STYLE('',(#1775));
#1736=SURFACE_SIDE_STYLE('',(#1776));
#1737=SURFACE_SIDE_STYLE('',(#1777));
#1738=SURFACE_SIDE_STYLE('',(#1778));
#1739=SURFACE_SIDE_STYLE('',(#1779));
#1740=SURFACE_SIDE_STYLE('',(#1780));
#1741=SURFACE_SIDE_STYLE('',(#1781));
#1742=SURFACE_SIDE_STYLE('',(#1782));
#1743=SURFACE_SIDE_STYLE('',(#1783));
#1744=SURFACE_SIDE_STYLE('',(#1784));
#1745=SURFACE_SIDE_STYLE('',(#1785));
#1746=SURFACE_SIDE_STYLE('',(#1786));
#1747=SURFACE_SIDE_STYLE('',(#1787));
#1748=SURFACE_SIDE_STYLE('',(#1788));
#1749=SURFACE_SIDE_STYLE('',(#1789));
#1750=SURFACE_SIDE_STYLE('',(#1790));
#1751=SURFACE_SIDE_STYLE('',(#1791));
#1752=SURFACE_SIDE_STYLE('',(#1792));
#1753=SURFACE_SIDE_STYLE('',(#1793));
#1754=SURFACE_SIDE_STYLE('',(#1794));
#1755=SURFACE_SIDE_STYLE('',(#1795));
#1756=SURFACE_SIDE_STYLE('',(#1796));
#1757=SURFACE_SIDE_STYLE('',(#1797));
#1758=SURFACE_SIDE_STYLE('',(#1798));
#1759=SURFACE_SIDE_STYLE('',(#1799));
#1760=SURFACE_SIDE_STYLE('',(#1800));
#1761=SURFACE_SIDE_STYLE('',(#1801));
#1762=SURFACE_STYLE_FILL_AREA(#1802);
#1763=SURFACE_STYLE_FILL_AREA(#1803);
#1764=SURFACE_STYLE_FILL_AREA(#1804);
#1765=SURFACE_STYLE_FILL_AREA(#1805);
#1766=SURFACE_STYLE_FILL_AREA(#1806);
#1767=SURFACE_STYLE_FILL_AREA(#1807);
#1768=SURFACE_STYLE_FILL_AREA(#1808);
#1769=SURFACE_STYLE_FILL_AREA(#1809);
#1770=SURFACE_STYLE_FILL_AREA(#1810);
#1771=SURFACE_STYLE_FILL_AREA(#1811);
#1772=SURFACE_STYLE_FILL_AREA(#1812);
#1773=SURFACE_STYLE_FILL_AREA(#1813);
#1774=SURFACE_STYLE_FILL_AREA(#1814);
#1775=SURFACE_STYLE_FILL_AREA(#1815);
#1776=SURFACE_STYLE_FILL_AREA(#1816);
#1777=SURFACE_STYLE_FILL_AREA(#1817);
#1778=SURFACE_STYLE_FILL_AREA(#1818);
#1779=SURFACE_STYLE_FILL_AREA(#1819);
#1780=SURFACE_STYLE_FILL_AREA(#1820);
#1781=SURFACE_STYLE_FILL_AREA(#1821);
#1782=SURFACE_STYLE_FILL_AREA(#1822);
#1783=SURFACE_STYLE_FILL_AREA(#1823);
#1784=SURFACE_STYLE_FILL_AREA(#1824);
#1785=SURFACE_STYLE_FILL_AREA(#1825);
#1786=SURFACE_STYLE_FILL_AREA(#1826);
#1787=SURFACE_STYLE_FILL_AREA(#1827);
#1788=SURFACE_STYLE_FILL_AREA(#1828);
#1789=SURFACE_STYLE_FILL_AREA(#1829);
#1790=SURFACE_STYLE_FILL_AREA(#1830);
#1791=SURFACE_STYLE_FILL_AREA(#1831);
#1792=SURFACE_STYLE_FILL_AREA(#1832);
#1793=SURFACE_STYLE_FILL_AREA(#1833);
#1794=SURFACE_STYLE_FILL_AREA(#1834);
#1795=SURFACE_STYLE_FILL_AREA(#1835);
#1796=SURFACE_STYLE_FILL_AREA(#1836);
#1797=SURFACE_STYLE_FILL_AREA(#1837);
#1798=SURFACE_STYLE_FILL_AREA(#1838);
#1799=SURFACE_STYLE_FILL_AREA(#1839);
#1800=SURFACE_STYLE_FILL_AREA(#1840);
#1801=SURFACE_STYLE_FILL_AREA(#1841);
#1802=FILL_AREA_STYLE('Steel - Satin',(#1842));
#1803=FILL_AREA_STYLE('Opaque(120,110,70)',(#1843));
#1804=FILL_AREA_STYLE('Opaque(251,212,169)',(#1844));
#1805=FILL_AREA_STYLE('Opaque(160,160,160)',(#1845));
#1806=FILL_AREA_STYLE('Opaque(255,255,255)',(#1846));
#1807=FILL_AREA_STYLE('Opaque(228,180,12)',(#1847));
#1808=FILL_AREA_STYLE('Opaque(128,128,128)',(#1848));
#1809=FILL_AREA_STYLE('Opaque(191,191,191)',(#1849));
#1810=FILL_AREA_STYLE('Opaque(10,10,10)',(#1850));
#1811=FILL_AREA_STYLE('Opaque(0,127,0)',(#1851));
#1812=FILL_AREA_STYLE('Opaque(209,204,192)',(#1852));
#1813=FILL_AREA_STYLE('Opaque(230,230,230)',(#1853));
#1814=FILL_AREA_STYLE('Opaque(68,150,72)',(#1854));
#1815=FILL_AREA_STYLE('Opaque(247,247,247)',(#1855));
#1816=FILL_AREA_STYLE('Opaque(25,25,25)',(#1856));
#1817=FILL_AREA_STYLE('Opaque(244,244,244)',(#1857));
#1818=FILL_AREA_STYLE('Opaque(64,64,64)',(#1858));
#1819=FILL_AREA_STYLE('Opaque(255,206,127)',(#1859));
#1820=FILL_AREA_STYLE('Opaque(229,234,237)',(#1860));
#1821=FILL_AREA_STYLE('Opaque(75,75,75)',(#1861));
#1822=FILL_AREA_STYLE('Opaque(89,89,89)',(#1862));
#1823=FILL_AREA_STYLE('Opaque(212,212,212)',(#1863));
#1824=FILL_AREA_STYLE('Opaque(250,220,148)',(#1864));
#1825=FILL_AREA_STYLE('Opaque(212,154,95)',(#1865));
#1826=FILL_AREA_STYLE('Opaque(222,161,44)',(#1866));
#1827=FILL_AREA_STYLE('Opaque(178,178,178)',(#1867));
#1828=FILL_AREA_STYLE('Opaque(51,51,51)',(#1868));
#1829=FILL_AREA_STYLE('Opaque(77,77,77)',(#1869));
#1830=FILL_AREA_STYLE('Opaque(87,87,87)',(#1870));
#1831=FILL_AREA_STYLE('Opaque(105,105,105)',(#1871));
#1832=FILL_AREA_STYLE('Opaque(79,79,79)',(#1872));
#1833=FILL_AREA_STYLE('Opaque(76,76,76)',(#1873));
#1834=FILL_AREA_STYLE('Opaque(255,210,1)',(#1874));
#1835=FILL_AREA_STYLE('Opaque(87,120,255)',(#1875));
#1836=FILL_AREA_STYLE('Opaque(255,210,0)',(#1876));
#1837=FILL_AREA_STYLE('Opaque(255,227,36)',(#1877));
#1838=FILL_AREA_STYLE('Opaque(255,255,55)',(#1878));
#1839=FILL_AREA_STYLE('Opaque(236,236,236)',(#1879));
#1840=FILL_AREA_STYLE('Opaque(29,29,29)',(#1880));
#1841=FILL_AREA_STYLE('Opaque(0,41,215)',(#1881));
#1842=FILL_AREA_STYLE_COLOUR('Steel - Satin',#1882);
#1843=FILL_AREA_STYLE_COLOUR('Opaque(120,110,70)',#1883);
#1844=FILL_AREA_STYLE_COLOUR('Opaque(251,212,169)',#1884);
#1845=FILL_AREA_STYLE_COLOUR('Opaque(160,160,160)',#1885);
#1846=FILL_AREA_STYLE_COLOUR('Opaque(255,255,255)',#1886);
#1847=FILL_AREA_STYLE_COLOUR('Opaque(228,180,12)',#1887);
#1848=FILL_AREA_STYLE_COLOUR('Opaque(128,128,128)',#1888);
#1849=FILL_AREA_STYLE_COLOUR('Opaque(191,191,191)',#1889);
#1850=FILL_AREA_STYLE_COLOUR('Opaque(10,10,10)',#1890);
#1851=FILL_AREA_STYLE_COLOUR('Opaque(0,127,0)',#1891);
#1852=FILL_AREA_STYLE_COLOUR('Opaque(209,204,192)',#1892);
#1853=FILL_AREA_STYLE_COLOUR('Opaque(230,230,230)',#1893);
#1854=FILL_AREA_STYLE_COLOUR('Opaque(68,150,72)',#1894);
#1855=FILL_AREA_STYLE_COLOUR('Opaque(247,247,247)',#1895);
#1856=FILL_AREA_STYLE_COLOUR('Opaque(25,25,25)',#1896);
#1857=FILL_AREA_STYLE_COLOUR('Opaque(244,244,244)',#1897);
#1858=FILL_AREA_STYLE_COLOUR('Opaque(64,64,64)',#1898);
#1859=FILL_AREA_STYLE_COLOUR('Opaque(255,206,127)',#1899);
#1860=FILL_AREA_STYLE_COLOUR('Opaque(229,234,237)',#1900);
#1861=FILL_AREA_STYLE_COLOUR('Opaque(75,75,75)',#1901);
#1862=FILL_AREA_STYLE_COLOUR('Opaque(89,89,89)',#1902);
#1863=FILL_AREA_STYLE_COLOUR('Opaque(212,212,212)',#1903);
#1864=FILL_AREA_STYLE_COLOUR('Opaque(250,220,148)',#1904);
#1865=FILL_AREA_STYLE_COLOUR('Opaque(212,154,95)',#1905);
#1866=FILL_AREA_STYLE_COLOUR('Opaque(222,161,44)',#1906);
#1867=FILL_AREA_STYLE_COLOUR('Opaque(178,178,178)',#1907);
#1868=FILL_AREA_STYLE_COLOUR('Opaque(51,51,51)',#1908);
#1869=FILL_AREA_STYLE_COLOUR('Opaque(77,77,77)',#1909);
#1870=FILL_AREA_STYLE_COLOUR('Opaque(87,87,87)',#1910);
#1871=FILL_AREA_STYLE_COLOUR('Opaque(105,105,105)',#1911);
#1872=FILL_AREA_STYLE_COLOUR('Opaque(79,79,79)',#1912);
#1873=FILL_AREA_STYLE_COLOUR('Opaque(76,76,76)',#1913);
#1874=FILL_AREA_STYLE_COLOUR('Opaque(255,210,1)',#1914);
#1875=FILL_AREA_STYLE_COLOUR('Opaque(87,120,255)',#1915);
#1876=FILL_AREA_STYLE_COLOUR('Opaque(255,210,0)',#1916);
#1877=FILL_AREA_STYLE_COLOUR('Opaque(255,227,36)',#1917);
#1878=FILL_AREA_STYLE_COLOUR('Opaque(255,255,55)',#1918);
#1879=FILL_AREA_STYLE_COLOUR('Opaque(236,236,236)',#1919);
#1880=FILL_AREA_STYLE_COLOUR('Opaque(29,29,29)',#1920);
#1881=FILL_AREA_STYLE_COLOUR('Opaque(0,41,215)',#1921);
#1882=COLOUR_RGB('Steel - Satin',0.627450980392157,0.627450980392157,0.627450980392157);
#1883=COLOUR_RGB('Opaque(120,110,70)',0.470588235294118,0.431372549019608,
0.274509803921569);
#1884=COLOUR_RGB('Opaque(251,212,169)',0.984313725490196,0.831372549019608,
0.662745098039216);
#1885=COLOUR_RGB('Opaque(160,160,160)',0.627450980392157,0.627450980392157,
0.627450980392157);
#1886=COLOUR_RGB('Opaque(255,255,255)',1.,1.,1.);
#1887=COLOUR_RGB('Opaque(228,180,12)',0.894117647058824,0.705882352941177,
0.0470588235294118);
#1888=COLOUR_RGB('Opaque(128,128,128)',0.501960784313725,0.501960784313725,
0.501960784313725);
#1889=COLOUR_RGB('Opaque(191,191,191)',0.749019607843137,0.749019607843137,
0.749019607843137);
#1890=COLOUR_RGB('Opaque(10,10,10)',0.0392156862745098,0.0392156862745098,
0.0392156862745098);
#1891=COLOUR_RGB('Opaque(0,127,0)',0.,0.498039215686275,0.);
#1892=COLOUR_RGB('Opaque(209,204,192)',0.819607843137255,0.8,0.752941176470588);
#1893=COLOUR_RGB('Opaque(230,230,230)',0.901960784313726,0.901960784313726,
0.901960784313726);
#1894=COLOUR_RGB('Opaque(68,150,72)',0.266666666666667,0.588235294117647,
0.282352941176471);
#1895=COLOUR_RGB('Opaque(247,247,247)',0.968627450980392,0.968627450980392,
0.968627450980392);
#1896=COLOUR_RGB('Opaque(25,25,25)',0.0980392156862745,0.0980392156862745,
0.0980392156862745);
#1897=COLOUR_RGB('Opaque(244,244,244)',0.956862745098039,0.956862745098039,
0.956862745098039);
#1898=COLOUR_RGB('Opaque(64,64,64)',0.250980392156863,0.250980392156863,
0.250980392156863);
#1899=COLOUR_RGB('Opaque(255,206,127)',1.,0.807843137254902,0.498039215686275);
#1900=COLOUR_RGB('Opaque(229,234,237)',0.898039215686275,0.917647058823529,
0.929411764705882);
#1901=COLOUR_RGB('Opaque(75,75,75)',0.294117647058824,0.294117647058824,
0.294117647058824);
#1902=COLOUR_RGB('Opaque(89,89,89)',0.349019607843137,0.349019607843137,
0.349019607843137);
#1903=COLOUR_RGB('Opaque(212,212,212)',0.831372549019608,0.831372549019608,
0.831372549019608);
#1904=COLOUR_RGB('Opaque(250,220,148)',0.980392156862745,0.862745098039216,
0.580392156862745);
#1905=COLOUR_RGB('Opaque(212,154,95)',0.831372549019608,0.603921568627451,
0.372549019607843);
#1906=COLOUR_RGB('Opaque(222,161,44)',0.870588235294118,0.631372549019608,
0.172549019607843);
#1907=COLOUR_RGB('Opaque(178,178,178)',0.698039215686274,0.698039215686274,
0.698039215686274);
#1908=COLOUR_RGB('Opaque(51,51,51)',0.2,0.2,0.2);
#1909=COLOUR_RGB('Opaque(77,77,77)',0.301960784313725,0.301960784313725,
0.301960784313725);
#1910=COLOUR_RGB('Opaque(87,87,87)',0.341176470588235,0.341176470588235,
0.341176470588235);
#1911=COLOUR_RGB('Opaque(105,105,105)',0.411764705882353,0.411764705882353,
0.411764705882353);
#1912=COLOUR_RGB('Opaque(79,79,79)',0.309803921568627,0.309803921568627,
0.309803921568627);
#1913=COLOUR_RGB('Opaque(76,76,76)',0.298039215686275,0.298039215686275,
0.298039215686275);
#1914=COLOUR_RGB('Opaque(255,210,1)',1.,0.823529411764706,0.00392156862745098);
#1915=COLOUR_RGB('Opaque(87,120,255)',0.341176470588235,0.470588235294118,
1.);
#1916=COLOUR_RGB('Opaque(255,210,0)',1.,0.823529411764706,0.);
#1917=COLOUR_RGB('Opaque(255,227,36)',1.,0.890196078431372,0.141176470588235);
#1918=COLOUR_RGB('Opaque(255,255,55)',1.,1.,0.215686274509804);
#1919=COLOUR_RGB('Opaque(236,236,236)',0.925490196078431,0.925490196078431,
0.925490196078431);
#1920=COLOUR_RGB('Opaque(29,29,29)',0.113725490196078,0.113725490196078,
0.113725490196078);
#1921=COLOUR_RGB('Opaque(0,41,215)',0.,0.16078431372549,0.843137254901961);
ENDSEC;
END-ISO-10303-21;
